<?xml version="1.0" encoding="UTF-8"?>
<svg version="1.1" viewBox="0 0 1152 1600" xmlns="http://www.w3.org/2000/svg">
<path transform="translate(0)" d="m0 0h1152v1600h-1152v-1600z" fill="#FAFEFE"/>
<path transform="translate(509 388)" d="m0 0c0.828 0.0308 1.66 0.0616 2.51 0.0933 3.81 0.195 5.82 0.375 9.05 2.53 2.32 0.456 2.32 0.456 4.89 0.633 0.938 0.0838 1.88 0.168 2.84 0.254 0.976 0.0786 1.95 0.157 2.96 0.238 0.988 0.0864 1.98 0.173 2.99 0.262 2.44 0.212 4.88 0.416 7.32 0.613v2c0.964 0.049 1.93 0.098 2.92 0.148 1.26 0.0748 2.53 0.15 3.83 0.227 1.25 0.0696 2.51 0.139 3.8 0.211 3.17 0.38 4.74 0.927 7.45 2.41 1.68 0.367 3.37 0.675 5.06 0.938 13.7 2.32 13.7 2.32 18.9 5.12 2.41 1.13 4.41 1.32 7.06 1.5 2.93 0.216 5.12 0.499 7.94 1.44v2c0.748 0.049 1.5 0.098 2.27 0.148 0.985 0.0748 1.97 0.15 2.98 0.227 1.46 0.104 1.46 0.104 2.95 0.211 2.74 0.405 4.4 1.1 6.8 2.41 2.33 0.672 4.67 1.34 7 2l1 1c1.55 0.348 3.12 0.654 4.69 0.938 2.86 0.546 5.49 1.12 8.25 2.06 3.87 1.26 7.76 1.88 11.8 2.54 2.29 0.465 2.29 0.465 3.29 1.46 2.19 0.0726 4.38 0.0837 6.56 0.0625 1.2-0.00902 2.4-0.018 3.63-0.0273 1.39-0.0174 1.39-0.0174 2.81-0.0352v-2c0.784-0.124 1.57-0.248 2.38-0.375 2.77-0.416 2.77-0.416 4.62-2.62 2.71-0.301 2.71-0.301 5.94-0.312 1.06-0.0168 2.12-0.0335 3.21-0.0508 2.85 0.363 2.85 0.363 4.5 1.55 1.83 2.45 1.75 4.1 1.79 7.14 0.0396 1.57 0.0396 1.57 0.0801 3.17 0.0203 1.64 0.0203 1.64 0.041 3.31 0.116 10.4 0.116 10.4 3.44 20.2 0 1.59-0.00424 3.19-0.0312 4.78 0.0623 4.42 0.586 8.82 1.03 13.2l2-4c0.893 5.94 0.97 11.1 0 17 0.99 0.33 1.98 0.66 3 1 0.364 2.08 0.716 4.17 1.06 6.25 0.197 1.16 0.394 2.32 0.598 3.52 0.34 3.23 0.34 3.23-0.131 5.02-0.718 3-0.659 5.84-0.662 8.92-0.00193 1.96-0.00193 1.96-0.00391 3.97 0.00209 0.68 0.00419 1.36 0.00635 2.06 0.00533 2.06 5.84e-5 4.12-0.00635 6.18 0.00129 1.31 0.00258 2.63 0.00391 3.98 0.00113 1.19 0.00226 2.39 0.00342 3.62 0.132 3.56 0.601 6.97 1.13 10.5 0.037 2.33 0.0476 4.67 0 7l2 1c0.344 2 0.344 2 0.5 4.44 0.151 3.73 0.151 3.73 2.5 6.56-0.0234 2.16-0.0234 2.16-0.375 4.62-0.111 0.817-0.222 1.63-0.336 2.48-0.143 0.94-0.143 0.94-0.289 1.9-0.59-0.18-1.18-0.361-1.79-0.547-2.41-0.65-2.41-0.65-5.59 0.297-3.81 0.263-4.27 0.218-7.06-2-2.56-2.75-2.56-2.75-2.56-5.75l-2-1v-4l-2-1v-2c-1.86-3.75-3.99-7.36-6.06-11-0.842-1.51-0.842-1.51-1.7-3.04-4.16-7.35-8.69-14.3-13.8-21-1.96-2.69-3.23-5.6-4.65-8.6-2.95-6.06-6.3-11.2-10.8-16.3-0.674-0.782-1.35-1.56-2.04-2.37-3.52-4.02-7.13-7.9-11-11.6-0.701-0.763-1.4-1.53-2.12-2.31-3.62-3.38-7.58-6.11-11.6-8.92-0.736-0.584-1.47-1.17-2.23-1.77v-2l-2.17-0.766c-3.07-1.34-5.41-2.97-8.08-4.98-8.6-6.36-17.1-11.7-26.8-16.2-0.855-0.406-1.71-0.812-2.59-1.23-3.77-1.74-7.25-3.23-11.4-3.77v-2l-3.75-0.312c-2.74-0.228-3.99-0.488-6.19-2.2-2.53-1.83-4.15-1.91-7.25-2.05-2.67-0.129-2.67-0.129-4.81-0.438l-1-2c-1.85-0.434-1.85-0.434-4.06-0.562l-4.94-0.438c-1.52-0.18-3.04-0.367-4.56-0.562-1.13-0.144-2.27-0.289-3.44-0.438l2-2c-17.3-1.76-35.9-2.75-53 1-1.8 0.344-1.8 0.344-3.63 0.695-6.16 1.22-11.7 2.6-17.4 5.3h-2c-2.56 0.879-5.09 1.79-7.62 2.75-0.728 0.274-1.46 0.549-2.21 0.832-4.9 1.87-9.54 3.94-14.2 6.42-1.46 0.756-2.91 1.51-4.38 2.25-0.647 0.335-1.29 0.67-1.96 1.02-1.66 0.734-1.66 0.734-3.66 0.734v2c-0.541 0.0799-1.08 0.16-1.64 0.242-10 3.22-20.7 14.2-27 22.5-1.32 1.29-1.32 1.29-4.32 1.29-0.379 0.818-0.379 0.818-0.766 1.65-1.47 2.79-3.2 5.31-4.98 7.91-7.08 9.5-7.08 9.5-10.2 20.4-0.282 1.46-0.598 2.92-0.938 4.38-0.183 0.802-0.366 1.6-0.555 2.43-0.168 0.724-0.335 1.45-0.508 2.2-1.65 7.35-2.1 14.6-2.12 22.1-0.00689 1-0.00689 1-0.0139 2.03 0.0135 4.37 0.486 8.53 1.14 12.8v7l1 1v-10h1c-0.0116 1.05-0.0232 2.1-0.0352 3.18-0.056 7.36-0.00762 14.5 1.04 21.8l2-1c0.0258 0.834 0.0516 1.67 0.0781 2.53 0.722 14.3 7.28 24 15.1 35.7 1.12 1.68 2.2 3.38 3.21 5.13 4.79 7.73 10.8 14.6 16.6 21.6 0.446 0.539 0.891 1.08 1.35 1.63 5.61 6.77 11.3 13.3 17.6 19.4 5 5 5 5 6.51 6.56 4.06 4.18 8.3 7.8 13 11.2 0.688 0.512 1.38 1.02 2.08 1.55 4.68 3.46 9.48 6.71 14.4 9.89 4.96 3.24 9.42 6.63 13.8 10.7 2.78 2.49 5.7 4.75 8.67 7 4.13 3.13 8.19 6.32 12.2 9.62 11.8 9.7 24.2 19 37.2 27.1 5.43 3.4 10.3 7.3 15.2 11.4 2.56 2.09 5.12 4.17 7.69 6.25 0.618 0.507 1.24 1.01 1.87 1.54 2.92 2.36 5.77 4.47 9.08 6.26 3.43 2 5.6 4.12 8.36 6.95 2.58 2.11 5.26 4.08 7.94 6.06 0.69 0.516 1.38 1.03 2.09 1.56 3.1 2.31 6.21 4.55 9.47 6.62 0.824 0.579 1.65 1.16 2.5 1.75v2c0.875 0.413 0.875 0.413 1.77 0.835 3.68 1.92 6.86 4.49 10.2 6.98 1.05 0.782 1.05 0.782 2.13 1.58 3.95 2.97 7.5 6.04 10.9 9.61 1.66 1.53 3.32 3.05 5 4.56 1.24 1.12 1.24 1.12 2.5 2.25 1.63 1.42 3.3 2.81 5 4.15 2.69 2.19 5.06 4.57 7.5 7.04 1.72 1.57 3.45 3.13 5.19 4.69 7.92 7.18 15.4 14.8 22.9 22.4 1.54 1.54 3.09 3.07 4.64 4.6 3.24 3.33 6.07 6.96 8.96 10.6 2.24 2.78 2.24 2.78 4.96 5.19 2.64 2.88 3.18 4.66 3.88 8.46 1.07 4.93 2.55 7.9 5.44 12.1 1.31 3.12 2.48 6.28 3.66 9.45 3.9 10.4 8.42 19.7 14.2 29.1 2.67 4.35 4.94 8.85 7.11 13.5 0.38 0.745 0.761 1.49 1.15 2.26 2.36 4.81 3.29 8.92 3.63 14.3 0.215 2.48 0.682 4.75 1.28 7.17 0.737 3.01 0.926 5.06 0.875 8.25l0.0625 3.06 3 2c0.432 1.82 0.432 1.82 0.512 4.06 0.0356 0.848 0.0712 1.7 0.108 2.57 0.0336 1.39 0.0336 1.39 0.0679 2.81 0.0491 1.44 0.0491 1.44 0.0991 2.91 0.242 8.03 0.31 16.1 0.338 24.1 0.00713 1.71 0.00713 1.71 0.0144 3.46-0.0287 14.3-0.0287 14.3-2.6 18.5-2.17 3.68-2.6 7.31-3.23 11.5-0.13 0.777-0.259 1.55-0.393 2.36-0.562 3.54-0.923 6.69-0.76 10.3-0.217 4.72-1.94 8.12-4.04 12.3-0.365 0.762-0.73 1.52-1.11 2.31-2.7 5.56-2.7 5.56-5.02 7.88l-0.5 3.5c-0.535 3.74-1.01 4.01-3.5 6.5-0.248 0.846-0.495 1.69-0.75 2.56-1.29 3.55-2.93 6.31-4.98 9.45-1.09 1.7-2.07 3.46-3.02 5.24-3.14 5.57-7.11 10.9-11.2 15.8h-2l-0.188 1.69c-1.17 3.32-3.24 4.91-5.81 7.31-1.11 1.12-2.21 2.25-3.31 3.38-3.74 3.73-7.66 7.2-11.7 10.6-1.47 1.25-1.47 1.25-2.96 2.52-1.05 0.889-2.11 1.78-3.16 2.66-0.972 0.819-1.94 1.64-2.95 2.48-2.89 2.3-5.84 4.32-8.93 6.33-1.16 0.787-2.32 1.58-3.48 2.37-7.32 4.97-14.7 9.54-22.5 13.6-1.54 0.837-3.08 1.68-4.62 2.52-1.69 0.912-3.38 1.82-5.07 2.73-1.19 0.655-1.19 0.655-2.41 1.32-4.92 2.63-9.39 4.45-14.9 5.43-0.99-0.33-1.98-0.66-3-1v2l2 1c-1.31 0.335-2.62 0.668-3.94 1-0.731 0.186-1.46 0.371-2.21 0.562-1.85 0.438-1.85 0.438-2.85 0.438l-1.62 0.938c-4.87 2.18-10.1 2.19-15.4 2.06l-1 3c-3.29 0.8-4.71 1.1-8 0v2l-18 4v-2h-3v2c-1.64 0.659-3.29 1.3-4.94 1.94-1.37 0.539-1.37 0.539-2.78 1.09-8.59 2.54-17.5 2.07-26.3 1.97-9.04-0.232-9.04-0.232-18 0.551-5.54 0.637-10.9 0.119-16.4-0.363-1.63-0.125-1.63-0.125-3.3-0.252-5.96-0.494-11.4-1.38-17.2-2.94-1.7-0.212-3.41-0.387-5.12-0.5-2.96-0.248-5.16-0.595-8-1.56-3.77-1.23-6.91-1-10.9-0.938-0.99-0.33-1.98-0.66-3-1-2.51-0.264-5.01-0.443-7.53-0.621-2.55-0.391-4.21-1.19-6.47-2.38-1.11-0.144-2.23-0.289-3.38-0.438-3.82-0.593-6.19-1.83-9.62-3.56-5.56-1.98-11.2-3.92-17.1-4.62-2.88-0.375-2.88-0.375-5.88-2.38-2.87-0.37-5.71-0.505-8.6-0.656-0.791-0.113-1.58-0.227-2.4-0.344l-1-2c-1.32-0.37-2.66-0.695-4-1-1.93-0.765-3.84-1.56-5.75-2.38-4.72-1.99-9.45-3.86-14.2-5.62-1.67-0.661-3.34-1.32-5-2v-2c-7.34-1.17-14.6-1.09-22-1l-1 3-2.94 0.312c-2.93 0.405-5.48 1.15-8.25 2.19-5.49 1.95-11 2.22-16.8 2.5-3.53-6.56-3.64-12.9-4-20.2-0.726-12.3-1.92-24.3-4.56-36.3-0.574-3.21-0.71-6.38-0.875-9.63-0.249-4.43-0.636-8.72-1.62-13.1-1-4.43-1.07-8.58-0.91-13.1 0.0431-2.66 0.0431-2.66-0.496-5.34-0.851-5.28-0.888-10.6-1.05-16-0.195-4.88-0.919-8.7-2.48-13.3-0.39-3.24-0.51-6.49-0.625-9.75-0.0387-0.918-0.0773-1.84-0.117-2.78-0.264-6.84-0.336-13.7-0.221-20.5 0.0557-4.45-0.306-8.58-1.04-13 2.62-1.31 2.62-1.31 6-2 2.56 1.34 3.96 2.86 6 5v2h3c4 4.34 4 4.34 4 7l2 1c2.89 5.44 5.13 11.1 7 17 4.39 11.8 9.94 23 15.7 34.2 1.32 2.8 1.32 2.8 1.32 4.8h2c2 2.16 2.96 3.84 3.75 6.69 1.49 3.96 3.66 6.61 6.31 9.87 2.6 3.28 4.92 6.72 7.26 10.2 1.72 2.33 3.6 4.25 5.68 6.26 1.1 1.19 2.18 2.4 3.25 3.62 0.521 0.59 1.04 1.18 1.58 1.79 1.17 1.59 1.17 1.59 1.17 3.59h2v2l4 1v2c0.779 0.346 0.779 0.346 1.57 0.699 3.28 1.76 6.23 3.93 9.24 6.11 0.887 0.639 0.887 0.639 1.79 1.29 0.887 0.639 0.887 0.639 1.79 1.29 0.887 0.637 0.887 0.637 1.79 1.29 1.25 0.907 2.49 1.83 3.72 2.76 3.64 2.86 3.64 2.86 8.1 3.56-0.742-0.825-1.48-1.65-2.25-2.5-4.06-4.88-6.43-10.6-8.83-16.4-0.756-1.73-1.57-3.43-2.41-5.12-6.08-12.5-6.08-12.5-5.52-19 1.06-3.06 1.06-3.06 3-5 2.88-0.688 2.88-0.688 6 0 2.69 2.75 2.69 2.75 5 6 0.75 0.922 0.75 0.922 1.52 1.86 1.7 2.45 2.58 4.76 3.55 7.57 0.954 2.75 1.91 5.48 3 8.18 0.938 2.38 0.938 2.38 1.88 6 0.735 3.3 0.735 3.3 2.59 4.79 1.93 2.07 1.96 3.48 2.16 6.27 0.0657 0.808 0.131 1.62 0.199 2.45 0.0561 0.922 0.0561 0.922 0.113 1.86h3c-0.0348 0.592-0.0696 1.18-0.105 1.79-0.169 4.93-0.154 8.22 3.11 12.2 2.68 2.18 2.68 2.18 5 2v2l2.25 0.875c2.32 0.948 4.53 1.97 6.75 3.12v2c0.99-0.33 1.98-0.66 3-1l1.69 1.31c2.75 2.01 5.12 2.54 8.41 3.26 1.9 0.43 1.9 0.43 4.9 1.43v2c1.58-0.0309 1.58-0.0309 3.19-0.0625 7.88 0.129 7.88 0.129 10.8 3.06 2.52 0.255 4.97 0.42 7.5 0.5 7.23 0.23 7.23 0.23 9.5 2.5 2 0.0425 4 0.0408 6 0 0.99 0.33 1.98 0.66 3 1 1.6 0.0922 3.2 0.128 4.8 0.129 0.976 0.00315 1.95 0.0063 2.96 0.00955 1.06-0.00202 2.12-0.00405 3.21-0.00613 1.1 9.57e-4 2.21 0.00191 3.34 0.0029 2.35 6.82e-4 4.69-0.00117 7.04-0.00534 3.52-0.00526 7.04-1.01e-4 10.6 0.00635 13.4 0.00355 26.7-0.3 40.1-1.14l-2-2 3.19-0.438c4.44-0.616 4.44-0.616 8.81-1.56l1-2c2.44-0.527 2.44-0.527 5.56-0.938 5.21-0.79 9.64-1.89 14.4-4.06l1-2c1.67-0.333 3.33-0.667 5-1l1-2c1.88-0.683 3.76-1.37 5.64-2.04 9.46-3.84 17.5-10.6 25.4-17 0.705-0.559 1.41-1.12 2.14-1.7 5.42-4.46 9.91-9.7 14.1-15.3 0.578-0.66 1.16-1.32 1.75-2h3l0.375-1.88c0.625-2.12 0.625-2.12 2.62-4.12 0.697-1.92 1.39-3.85 2.08-5.78 1.26-3.04 3-5.66 4.79-8.41 1.36-2.18 2.24-4.4 3.13-6.81 0.495-0.949 0.99-1.9 1.5-2.88 2.02-4.2 3.54-8.16 3.44-12.9 0.0615-3.2 0.636-5.4 1.56-8.44 1.66-5.69 1.81-10.9 1.5-16.8 0.99-0.33 1.98-0.66 3-1-0.111-3.69-0.241-7.38-0.375-11.1-0.0464-1.56-0.0464-1.56-0.0938-3.15-0.214-5.63-0.778-10.4-2.53-15.8v-6c-0.541-3.36-1.27-6.68-2-10-0.179-0.826-0.358-1.65-0.543-2.5-0.475-2.17-0.956-4.33-1.46-6.5-0.122-0.601-0.245-1.2-0.371-1.82-0.918-3.18-2.29-6.16-3.63-9.18-1.61-3.63-3.06-7.14-4-11l-1.44-1.44c-1.56-1.56-1.56-1.56-2.38-4.12-0.954-2.69-0.954-2.69-3.69-3.31-1.16-0.371-2.31-0.742-3.5-1.12-6.38-3.9-12.2-8.66-18.1-13.2-3.43-2.66-6.91-5.24-10.5-7.76-5.05-3.64-9.81-7.58-14.6-11.6-3.36-2.8-6.82-5.43-10.3-8.03l-1.55-1.38v-2c-0.577-0.251-1.15-0.501-1.75-0.76-2.55-1.41-4.22-3-6.25-5.08-0.741-0.752-1.48-1.5-2.24-2.28-0.764-0.785-1.53-1.57-2.31-2.38-1.52-1.55-3.04-3.11-4.57-4.66-0.671-0.689-1.34-1.38-2.03-2.09-1.92-1.94-1.92-1.94-4.84-3.76v-2l-1.62-0.625c-3.29-1.91-5.97-4.42-8.38-7.38v-2l-1.69-0.75c-3.87-2.09-7.43-4.91-10.3-8.25v-2l-1.77-0.781c-2.41-1.32-4.05-2.77-5.98-4.72l-1.86-1.84c-1.39-1.66-1.39-1.66-1.39-3.66l-2.12-0.562c-3.43-1.71-5.03-3.76-7.4-6.7-1.91-2.25-4.17-3.91-6.48-5.73-0.598-0.763-1.2-1.53-1.81-2.31-2.5-3.07-5.29-5.48-8.28-8.05-2.08-1.79-4.08-3.59-5.91-5.64v-2c-0.59-0.263-1.18-0.527-1.79-0.798-2.31-1.25-3.78-2.55-5.6-4.43-0.623-0.635-1.25-1.27-1.89-1.92-0.65-0.671-1.3-1.34-1.97-2.03-5.63-5.72-11.3-11.2-17.6-16.3-1.43-1.15-2.81-2.35-4.19-3.55v-2c-0.576-0.257-1.15-0.513-1.75-0.777-2.47-1.34-4.25-2.88-6.32-4.79-4.21-3.82-8.56-7.43-13-11-3.23-2.65-6.41-5.34-9.59-8.05-5.76-4.9-11.6-9.61-17.7-14.1-4.34-3.26-7.87-6.51-11.3-10.7-2.11-2.36-4.74-3.82-7.38-5.54-3.43-2.89-6.71-5.95-10-9-0.639-0.589-1.28-1.18-1.94-1.78-2.13-1.96-4.25-3.93-6.38-5.9-1.02-0.944-1.02-0.944-2.07-1.91-3.86-3.61-7.28-7.31-10.6-11.4-1.65-1.68-3.32-3.35-5-5-18-19.1-18-19.1-18-23h-2c-1.51-1.9-1.51-1.9-3.12-4.38-0.539-0.812-1.08-1.62-1.63-2.46-1.24-2.16-1.24-2.16-1.24-4.16l-2-2c-4.31-4.77-7.02-10.4-10-16-0.748-1.38-1.5-2.76-2.25-4.14-3.71-6.86-7.35-13.6-10-21-0.79-2.16-0.79-2.16-2.75-4.88 0.375-2.69 0.375-2.69 1-5l-2-1h2l-1-4-2 3c-1.14-4.99-2.18-9.95-3-15-0.33-1.63-0.664-3.25-1-4.88-0.659-3.23-1.19-6.42-1.56-9.69-0.0589-3.26-0.0589-3.26-1.44-4.44-0.0604-3.83-0.0199-7.65 0.0391-11.5 0.00773-0.801 0.0155-1.6 0.0234-2.43 0.0116-0.737 0.0232-1.47 0.0352-2.23 0.0219-1.96 0.0219-1.96-1.1-3.86-0.101-2.76-0.141-5.49-0.125-8.25 0.00338-0.803 0.00677-1.61 0.0103-2.43 0.17-19.9 0.17-19.9 3.11-24.3 0.349-2.4 0.349-2.4 0.438-5.06 0.425-5.65 1.74-10.6 3.56-15.9 0.262-0.82 0.523-1.64 0.793-2.48 1.18-3.67 2.42-7.09 4.21-10.5h2l0.25-3.62c0.609-4.92 2.66-8.37 6.25-11.8 2.39-2.49 3.84-5.57 5.5-8.56 1.03-1.82 2.07-3.63 3.12-5.44 0.498-0.865 0.995-1.73 1.51-2.62 0.451-0.641 0.902-1.28 1.37-1.94h2c0.226-0.706 0.451-1.41 0.684-2.14 1.59-3.44 3.79-5.9 6.38-8.61 0.492-0.524 0.985-1.05 1.49-1.59 1.47-1.56 2.96-3.11 4.45-4.66 1.16-1.22 1.16-1.22 2.34-2.46 5.51-5.67 11.5-10.6 17.7-15.5 0.871-0.726 1.74-1.45 2.64-2.2 2.36-1.8 2.36-1.8 5.36-2.8 1.02-0.982 2.02-1.98 3-3 1.23-0.886 2.49-1.74 3.77-2.56 1.09-0.703 1.09-0.703 2.2-1.42 0.754-0.481 1.51-0.963 2.29-1.46 0.739-0.478 1.48-0.955 2.24-1.45 13.6-8.72 13.6-8.72 18.5-8.12v-2c0.927-0.41 1.85-0.82 2.81-1.24 1.2-0.539 2.4-1.08 3.63-1.63 1.19-0.534 2.39-1.07 3.62-1.62 3.03-1.19 3.03-1.19 3.94-3.51 2.5-0.414 2.5-0.414 5.56-0.625 1.01-0.0748 2.02-0.15 3.07-0.227 0.782-0.049 1.56-0.098 2.37-0.148v-2l10-2v-2l12-1v-2c5.67-1.23 11.2-1.09 17-1l-1-2c2.23-1.12 3.61-1.19 6.09-1.32 1.28-0.0631 1.28-0.0631 2.58-0.127 0.932-0.0392 1.86-0.0783 2.82-0.119 0.972-0.0417 1.94-0.0835 2.94-0.126 15.7-0.608 31.3-0.602 47 0.064z" fill="#020202"/>
<path transform="translate(688,873)" d="m0 0c3.85 1.57 6.13 4.05 9 7 2.03 1.77 4.06 3.52 6.12 5.25 0.505 0.427 1.01 0.853 1.53 1.29 2.49 2.1 4.99 4.18 7.57 6.17 8.99 7.05 16.9 15.1 25 23.2 2.5 2.51 5.02 5.02 7.53 7.52 1.59 1.59 3.18 3.19 4.77 4.78 1.13 1.12 1.13 1.12 2.28 2.27 0.685 0.692 1.37 1.38 2.08 2.1 0.91 0.912 0.91 0.912 1.84 1.84 1.29 1.55 1.29 1.55 1.29 3.55 0.899 0.391 0.899 0.391 1.82 0.789 2.33 1.29 3.48 2.51 5.12 4.59 2.45 2.98 5.04 5.22 8.06 7.62 5 5.29 5 5.29 5 8 0.587 0.267 1.17 0.534 1.78 0.809 2.27 1.22 3.89 2.52 5.79 4.25 3.07 2.78 6.24 5.39 9.48 7.96 5.76 4.7 11 9.76 16.2 15 1.49 1.5 2.98 3 4.47 4.49 4.78 4.79 9.43 9.65 13.8 14.8 1.79 2.09 3.67 4.08 5.54 6.09 14.6 16.3 30.4 35.8 39.9 55.6 0.701 1.27 1.41 2.55 2.12 3.81 0.961 1.73 1.92 3.46 2.88 5.19 0.323 0.582 0.645 1.16 0.978 1.76 8.17 14.8 14.8 29.9 20 46 0.295 0.917 0.589 1.83 0.893 2.78 1.5 4.83 2.57 9.44 3.17 14.5 0.342 1.54 0.696 3.09 1.06 4.62 1.09 5.23 1.06 10.3 0.91 15.6-0.114 2.87-0.114 2.87 1.03 5.79 0.0953 2.33 0.13 4.67 0.125 7 0.00258 1.24 0.00516 2.48 0.00781 3.75-0.133 3.25-0.133 3.25-1.13 6.25l0.0625 3.88c0.07 6.15-0.973 12.1-2.06 18.1-0.118 0.72-0.237 1.44-0.358 2.18-1.28 7.21-3.59 13.9-6.14 20.8-0.44 1.18-0.88 2.36-1.33 3.58-5.37 14.1-11.9 27.5-21.2 39.5-0.736 0.987-1.47 1.97-2.23 2.99-8.19 10.9-16.9 21.6-26.8 31l-2.31 2.38c-8.03 7.85-16.5 14.7-25.7 21.2-1.42 1.01-2.83 2.03-4.23 3.06-6.82 4.94-14 8.95-21.5 12.9-1.25 0.664-2.5 1.33-3.75 1.99-22.8 12.1-22.8 12.1-32.9 14.8-2.73 0.77-5.4 1.69-8.08 2.63-6.2 2.16-12.2 3.74-18.8 4.66-2.82 0.461-5.45 1.15-8.2 1.96-5.4 1.55-10.8 2.35-16.4 3.07-3.1 0.409-6.18 0.904-9.26 1.43-19.6 2.84-39.9 2.94-59.6 1.21-1.76-0.151-3.53-0.289-5.29-0.418-14.2-1.06-27.9-3.11-41.7-6.72-0.646-0.169-1.29-0.338-1.96-0.512-7.16-1.89-14.1-4.07-21.1-6.68-3.33-1.2-6.67-2.04-10.1-2.87-4.73-1.19-8.91-2.63-13.2-5-4.01-1.87-8.34-2.83-12.6-3.99-4.95-1.41-9.73-3.2-14.5-5.01-2.7-0.917-5.4-1.81-8.11-2.68-3.58-1.17-6.89-2.32-10.3-4.01-4.96-1.8-9.42-2.42-14.6-1.31-2.11 1.56-3.63 3.24-5.32 5.24-2.73 2.87-5.84 4.02-9.68 4.76-5-0.1-8.12-1.91-12-5-2.51-3.69-2.64-7.93-3.06-12.2-0.0852-0.801-0.17-1.6-0.258-2.43-0.517-5.05-0.831-10.1-1.05-15.1-0.502-9.13-2.33-17.9-4.17-26.9-0.576-2.92-1.01-5.86-1.45-8.8-0.792-4.18-1.65-6.65-5-9.5-12.4-7.42-26.6-10.9-41-9-3.24 1.57-6.08 3.43-9.08 5.42-4.91 2.65-9.52 2.68-14.9 1.58-3.19-1.25-3.79-2.09-6-5-0.769-2.37-1.23-4.64-1.58-7.11-0.345-2.37-0.819-4.57-1.38-6.89-1.19-5.29-1.66-10.6-2.07-16-0.0836-1.02-0.167-2.03-0.253-3.08-0.264-3.22-0.519-6.44-0.774-9.66-0.259-3.23-0.521-6.46-0.785-9.69-0.163-2-0.324-4-0.481-6.01-0.37-4.59-0.814-9.09-1.67-13.6l2 1c1.75 0.154 3.5 0.274 5.25 0.375 4.62 0.373 7.66 1.39 11.8 3.62 1.05 0.144 2.1 0.289 3.18 0.438 4.12 0.607 7.77 1.71 11.7 3.06 0.675 0.226 1.35 0.451 2.05 0.684 4.94 1.68 4.94 1.68 6.08 2.82 1.37 0.349 2.74 0.654 4.12 0.938 2.93 0.617 5.69 1.31 8.56 2.19 3.28 0.868 5.94 0.95 9.31 0.875 1.33 0.328 2.67 0.662 4 1 1.44 0.167 2.87 0.312 4.31 0.438 2.97 0.301 5.36 0.763 8.25 1.62 2.89 0.788 4.61 1.02 7.5 0.938 3.94 0 3.94 0 6.76 0.958 3.41 1.12 6.39 1.46 9.97 1.71 1.27 0.0883 2.54 0.177 3.85 0.268 1.97 0.125 1.97 0.125 3.98 0.252 1.34 0.0951 2.67 0.191 4.01 0.287 7.25 0.574 7.25 0.574 14.4-0.475 2.05-0.07 4.11-0.0844 6.16-0.0625 1.21 0.00773 2.41 0.0155 3.65 0.0234 2.52 0.0258 5.03 0.0518 7.55 0.0781 13.3 0.129 13.3 0.129 26.3-2.6 0.838-0.269 1.68-0.539 2.54-0.816 0.606-0.205 1.21-0.41 1.84-0.621v-2h3v2c1.32-0.433 1.32-0.433 2.67-0.875 1.16-0.371 2.32-0.742 3.52-1.12 1.15-0.371 2.3-0.742 3.48-1.12 2.98-0.781 5.28-1.06 8.33-0.875v-2c3.08-0.293 3.08-0.293 6.15-0.586 0.61-0.137 1.22-0.273 1.85-0.414l1-2c1.82-0.344 1.82-0.344 4.12-0.5 4.2-0.369 7.87-1.22 11.9-2.5l-1-2 2.25 0.625c3.07 0.419 4.18-0.00551 6.75-1.62v-2c1.27-0.0645 2.55-0.129 3.86-0.195 5.78-0.645 10.3-2.98 15.4-5.68 0.871-0.447 1.74-0.895 2.64-1.36 4.12-2.13 8.17-4.32 12.1-6.77 0.984-0.593 1.97-1.19 2.98-1.8 6.85-4.17 13.5-8.52 20-13.2l2.64-1.83c7.36-5.17 13.8-11 20.4-17.2 1.49-1.36 2.99-2.72 4.5-4.06 0.588-0.527 1.18-1.05 1.78-1.6 1.72-1.34 1.72-1.34 3.86-2.4 3.25-1.64 3.75-4.63 4.86-7.94 1.14-1.1 2.27-2.2 3.41-3.3 5.68-6.07 10-13 13.6-20.5 1.03-2.15 1.03-2.15 2.78-4.96 1.37-2.4 1.86-4.46 2.25-7.19h2l0.312-3.19c0.696-3.86 1.63-5.56 3.69-8.81 4.68-8.1 7.64-14.3 7.9-23.8 0.101-3.29 0.468-6.43 0.973-9.68 0.142-0.938 0.284-1.88 0.43-2.84 0.695-2.66 0.695-2.66 2.2-4.81 3.73-7.11 2.63-16.9 2.59-24.8-0.00141-0.983-0.00283-1.97-0.00429-2.98-0.00553-3.1-0.0181-6.19-0.0309-9.29-0.00502-2.12-0.00958-4.24-0.0137-6.35-0.0109-5.15-0.0282-10.3-0.0488-15.5l-4-2 0.125-3.38c0-4.14-0.669-7.94-1.56-12-0.779-3.65-1.34-7.33-1.91-11-0.794-3.18-2.13-5.75-3.66-8.64-0.46-0.944-0.92-1.89-1.39-2.86-2.39-4.87-4.84-9.64-7.67-14.3-6.35-10.4-11.1-21.6-15.8-32.8-1.11-2.64-2.15-5-3.8-7.35-2.07-4.04-2.12-8.2-2.38-12.7z" fill="#818483"/>
<path transform="translate(498 419)" d="m0 0c1.14-0.00387 2.28-0.00773 3.45-0.0117 21.8 0.0247 21.8 0.0247 29.3 4.14 2.3 0.368 4.59 0.564 6.91 0.758 2.61 0.302 4.69 1.19 7.09 2.24 2.04 0.52 4.08 0.99 6.13 1.44 1.87 0.562 1.87 0.562 4.87 2.56 1.09 0.309 2.19 0.619 3.31 0.938 3.55 1.02 6.41 2.39 9.69 4.06l3.56 1.25c10.2 3.72 19.5 9.78 28.4 15.8 0.574 0.38 1.15 0.76 1.74 1.15 1.82 1.21 3.64 2.43 5.45 3.66 0.578 0.385 1.16 0.771 1.75 1.17 1.39 0.955 2.73 1.98 4.06 3.02v2l1.73 0.812c2.34 1.23 4.39 2.61 6.52 4.19 1.06 0.773 1.06 0.773 2.14 1.56 0.531 0.474 1.06 0.949 1.61 1.44v2c0.598 0.268 1.2 0.536 1.81 0.812 2.19 1.19 3.6 2.28 5.19 4.19v2c0.561 0.228 1.12 0.456 1.7 0.691 11.4 6.47 18.5 21.2 23.8 32.6 1.55 2.89 3.37 5.2 5.46 7.73 2.47 3.58 4.73 7.29 7 11 0.46 0.748 0.92 1.5 1.39 2.27 1.53 2.51 3.04 5.02 4.54 7.55 0.497 0.812 0.994 1.62 1.51 2.46 2.59 4.39 4.24 7.46 3.56 12.7 0.99 0.33 1.98 0.66 3 1l0.438 1.88c0.429 2.22 0.429 2.22 2.06 3.94 3.41 1.62 5.92 1.02 9.57 0.414 0.953-0.112 0.953-0.112 1.93-0.227l1 1c1.38-2.76 1.19-4.95 1-8l-2-2c-0.195-2.16-0.195-2.16-0.125-4.62 0.018-0.817 0.0361-1.63 0.0547-2.48 0.0232-0.626 0.0464-1.25 0.0703-1.9-0.99-0.33-1.98-0.66-3-1 0.0174-1.26 0.0174-1.26 0.0352-2.55 0.00902-1.1 0.018-2.19 0.0273-3.32 0.0174-1.64 0.0174-1.64 0.0352-3.3 0.0998-2.77 0.0998-2.77-1.1-4.82-0.111-2.43-0.164-4.84-0.168-7.27-0.00333-0.72-0.00666-1.44-0.0101-2.18-0.00507-1.52-0.00741-3.05-0.00725-4.57-0.00218-2.33-0.0203-4.66-0.0393-6.99-0.00293-1.48-0.00492-2.96-0.00586-4.45-0.00719-0.695-0.0144-1.39-0.0218-2.11 0.0172-3.65 0.252-6.33 2.25-9.43 2.61 0.542 5.22 1.08 7.82 1.63 2.21 0.46 4.42 0.919 6.63 1.38 9.44 1.96 9.44 1.96 13.8 2.96 6.45 1.46 12.7 2.45 19.3 2.82 2.43 0.211 2.43 0.211 5.43 1.21v2h2l1-2 11 1v-2c4.92-0.579 7.96-0.763 12.1 2.25 2.78 3.96 2.28 8.29 2.02 12.9-0.203 2.68-0.203 2.68 0.406 4.7 1.08 4.39 0.524 9.08 0.453 13.6 0.0502 2.83 0.299 4.86 1.06 7.53v7c0.166 0.646 0.333 1.29 0.504 1.96 0.532 2.19 0.528 3.98 0.434 6.23-0.0638 4.83 0.844 9.16 2.06 13.8 0.0445 1.04 0.0445 1.04 0.0898 2.1 0.844 2.3 0.844 2.3 4.2 3.28 1.44 0.414 2.89 0.807 4.34 1.18 0.765 0.211 1.53 0.422 2.32 0.64 6.1 1.64 12.2 2.96 18.5 4.11 2.35 0.451 4.69 0.962 7.02 1.54 6.83 1.69 13.3 2.43 20.3 2.46 0.779 0.0054 1.56 0.0108 2.36 0.0164 3.83-0.0485 5.7-0.16 8.95-2.33 2.38-0.5 2.38-0.5 5 0 3.61 3.33 5.28 5.54 5.6 10.5 0.0284 1.75 0.0349 3.51 0.0234 5.27 0.175 9.91 1.1 19.6 2.36 29.4 0.558 4.44 1.1 8.79 1.05 13.3-0.0272 3.1 0.221 5.62 0.906 8.62 1.27 5.91 2.05 11.7 2.5 17.8 0.296 3.84 0.775 7.49 1.62 11.2 0.978 4.49 1.03 8.69 0.949 13.3-0.0233 5.3 0.582 10.3 2.05 15.4 1.63 5.94 1.09 12.2 0.938 18.3-3.5 1.17-4.9 0.608-8.16-0.941-6.42-3.7-8.47-8.26-10.7-15.1-1.95-5.1-5.07-9.42-8.12-13.9-3.5-5.36-6.88-10.7-9.81-16.4-3.33-6.22-7.57-11.6-12-17.1-1.11-1.39-2.2-2.81-3.29-4.22-10.1-13.6-10.1-13.6-24.7-20.8-0.859-0.058-1.72-0.116-2.6-0.176-1.31-0.0986-1.31-0.0986-2.65-0.199-0.978-0.0561-0.978-0.0561-1.98-0.113l-0.25 2.38c-0.75 2.62-0.75 2.62-2.81 3.94l-1.94 0.688 1-3-2.62 1.31c-3.38 0.688-3.38 0.688-6.56-0.938-4.23-3.97-4.82-9.9-5.81-15.4h-2l-1.06-2.88c-5.55-12.6-17.6-26.9-30.6-32.3-0.777-0.268-1.55-0.536-2.36-0.812-0.808-0.289-1.62-0.578-2.45-0.875-5.2-1.7-10.5-2.76-15.9-3.65-2.68-0.473-2.68-0.473-4.9-1.04-5.62-1.41-11-1.55-16.8-1.51-1.31 0.00515-1.31 0.00515-2.64 0.0104-9.15 0.0483-18.3 0.185-27.4 0.385-1.85 0.0389-3.71 0.0736-5.56 0.104-2.74 0.0457-5.47 0.104-8.21 0.164-1.23 0.0173-1.23 0.0173-2.48 0.035-4.87 0.125-9.01 0.849-13.7 2.38-2.44 0.627-4.87 1.25-7.31 1.88-11.3 3-21.4 7.82-31.8 13.2-1.58 0.804-3.17 1.58-4.77 2.34-20.6 10.3-43.7 31.5-51.1 53.7-1.33 4.82-1.69 9.72-2.09 14.7-0.0842 1-0.168 2.01-0.255 3.04-0.513 6.59-0.801 13.2-0.807 19.8-8.06e-4 0.766-0.00161 1.53-0.00244 2.32 0.0417 4.14 0.431 8.05 1.19 12.1 0.272 2.48 0.496 4.96 0.719 7.44 0.256 2.62 0.256 2.62 0.809 5.41 0.533 3.55 0.569 6.93 0.535 10.5-0.00902 1.25-0.018 2.49-0.0273 3.77-0.0116 0.941-0.0232 1.88-0.0352 2.85-3.45-1.28-6.42-2.77-9.48-4.8-0.844-0.559-1.69-1.12-2.56-1.69-0.893-0.6-1.79-1.2-2.71-1.82-1.39-0.932-1.39-0.932-2.81-1.88-11.7-7.92-22.8-16.5-33.7-25.6-3.83-3.13-7.72-6.18-11.6-9.22-3.45-2.7-6.86-5.43-10.2-8.21-3.45-2.77-6.99-5.26-10.7-7.69-9.61-6.31-18.5-13.3-27-21.1-1.55-1.4-3.15-2.75-4.8-4.04-2.16-1.76-3.88-3.47-5.67-5.59-2.66-3.11-5.37-6.16-8.12-9.19-3.93-4.35-7.67-8.82-11.4-13.4-1.56-1.93-3.14-3.84-4.73-5.73-0.797-0.951-1.59-1.9-2.41-2.88-0.719-0.852-1.44-1.7-2.18-2.58-2.05-2.74-3.46-5.53-4.95-8.61l-1.81-2.25c-7.51-9.45-15-21.5-15.8-33.7-0.246-2.39-0.246-2.39-2.34-5.09-0.316-3.25-0.463-6.46-0.566-9.73-0.0792-1.76-0.249-3.52-0.434-5.27l-2-1c0.0116-0.843 0.0232-1.69 0.0352-2.55 0.00902-1.1 0.018-2.19 0.0273-3.32 0.0116-1.09 0.0232-2.18 0.0352-3.3 0.0998-2.77 0.0998-2.77-1.1-4.82-0.1-2.45-0.141-4.86-0.125-7.31 0.00266-0.71 0.00532-1.42 0.00806-2.15 0.164-18.6 0.164-18.6 2.12-20.5 0.371-1.43 0.697-2.87 1-4.31 0.331-1.56 0.664-3.13 1-4.69 0.112-0.611 0.224-1.22 0.34-1.85 1-3.27 2.61-6.21 4.22-9.21 0.529-0.988 0.529-0.988 1.07-2 8.8-16.1 8.8-16.1 14.4-17.9 1.64-1.66 1.64-1.66 3.25-3.69 5.68-6.66 12.3-11.5 19.4-16.6 2.39-1.67 2.39-1.67 4.36-3.73 0.99 0.33 1.98 0.66 3 1v-2c6.32-3.3 12.8-6.31 19.2-9.25 0.768-0.353 1.54-0.706 2.33-1.07 4.19-1.88 7.86-2.97 12.4-3.68l1-2 2 1c1.73-0.681 1.73-0.681 3.69-1.75 13-6.09 28.4-6.42 42.6-6.38z" fill="#808382"/>
<path transform="translate(777,959)" d="m0 0c2.96 1.35 5.17 2.87 7.56 5.06 3.07 2.78 6.24 5.39 9.48 7.96 5.76 4.7 11 9.76 16.2 15 1.49 1.5 2.98 3 4.47 4.49 4.78 4.79 9.43 9.65 13.8 14.8 1.79 2.09 3.67 4.08 5.54 6.09 14.6 16.3 30.4 35.8 39.9 55.6 0.701 1.27 1.41 2.55 2.12 3.81 0.961 1.73 1.92 3.46 2.88 5.19 0.484 0.872 0.484 0.872 0.978 1.76 8.17 14.8 14.8 29.9 20 46 0.295 0.917 0.589 1.83 0.893 2.78 1.5 4.83 2.57 9.44 3.17 14.5 0.342 1.54 0.696 3.09 1.06 4.62 1.09 5.23 1.06 10.3 0.91 15.6-0.114 2.87-0.114 2.87 1.03 5.79 0.0953 2.33 0.13 4.67 0.125 7 0.00258 1.24 0.00516 2.48 0.00781 3.75-0.133 3.25-0.133 3.25-1.13 6.25l0.0625 3.88c0.07 6.15-0.973 12.1-2.06 18.1-0.118 0.72-0.237 1.44-0.358 2.18-1.28 7.21-3.59 13.9-6.14 20.8-0.44 1.18-0.88 2.36-1.33 3.58-5.37 14.1-11.9 27.5-21.2 39.5-0.736 0.987-1.47 1.97-2.23 2.99-8.19 10.9-16.9 21.6-26.8 31l-2.31 2.38c-8.03 7.85-16.5 14.7-25.7 21.2-1.42 1.01-2.83 2.03-4.23 3.06-6.82 4.94-14 8.95-21.5 12.9-1.25 0.664-2.5 1.33-3.75 1.99-22.8 12.1-22.8 12.1-32.9 14.8-2.73 0.77-5.4 1.69-8.08 2.63-6.2 2.16-12.2 3.74-18.8 4.66-2.82 0.461-5.45 1.15-8.2 1.96-5.4 1.55-10.8 2.35-16.4 3.07-3.1 0.409-6.18 0.904-9.26 1.43-19.6 2.84-39.9 2.94-59.6 1.21-1.76-0.151-3.53-0.289-5.29-0.418-14.2-1.06-27.9-3.11-41.7-6.72-0.646-0.169-1.29-0.338-1.96-0.512-7.16-1.89-14.1-4.07-21.1-6.68-3.33-1.2-6.67-2.04-10.1-2.87-4.73-1.19-8.91-2.63-13.2-5-4.01-1.87-8.34-2.83-12.6-3.99-4.95-1.41-9.73-3.2-14.5-5.01-2.7-0.917-5.4-1.81-8.11-2.68-3.58-1.17-6.89-2.32-10.3-4.01-4.96-1.8-9.42-2.42-14.6-1.31-2.11 1.56-3.63 3.24-5.32 5.24-2.73 2.87-5.84 4.02-9.68 4.76-5-0.1-8.12-1.91-12-5-2.51-3.69-2.64-7.93-3.06-12.2-0.128-1.2-0.128-1.2-0.258-2.43-0.517-5.05-0.831-10.1-1.05-15.1-0.502-9.13-2.33-17.9-4.17-26.9-0.572-2.9-1.01-5.81-1.45-8.74-0.766-4.37-2.21-7.12-5-10.6 3.46-1.15 3.85-0.915 7 0.562 0.795 0.371 1.59 0.742 2.41 1.12 2.72 1.38 5.37 2.87 8.03 4.38 6.14 3.4 12.2 5.52 19.1 6.38 3.08 0.505 4.93 1.17 7.69 2.5 4.35 2.06 8.53 2.94 13.3 3.67 2.48 0.395 2.48 0.395 4.49 0.953 3.18 0.706 6.32 0.351 9.55 0.184 2.95 0.312 4.25 1.32 6.44 3.26l-1 1c1.01-0.00786 1.01-0.00786 2.04-0.0159 3.11-0.021 6.22-0.0339 9.33-0.0466 1.06-0.00838 2.12-0.0168 3.21-0.0254 1.58-0.00483 1.58-0.00483 3.18-0.00977 1.43-0.00786 1.43-0.00786 2.89-0.0159 2.68 0.091 5.23 0.311 7.89 0.614 6.29 0.66 12.5 0.625 18.9 0.598 1.87-0.00212 1.87-0.00212 3.78-0.00429 3.29-0.00462 6.57-0.0136 9.86-0.0247 3.36-0.0103 6.72-0.0148 10.1-0.0198 5.88-0.00981 11.8-0.024 17.6-0.0421 2.22-0.00673 2.22-0.00673 3.22-0.00673v-1c1.47 0.0348 1.47 0.0348 2.96 0.0703 9.4 0.13 9.4 0.13 18.6-1.51 3.14-0.727 6.27-1.02 9.47-1.37 8.36-1.06 16-3.47 23.9-6.19 1.58-0.514 1.58-0.514 3.18-1.04 1.95-0.639 3.91-1.29 5.85-1.95 2.04-0.694 4.09-1.36 6.15-2.02 9.65-3.19 18.3-7.7 27.2-12.6 2.72-1.48 5.45-2.92 8.19-4.35 10.6-5.57 20.5-11.4 29.9-18.8 1.38-1.09 2.79-2.15 4.21-3.21 14.6-11.3 28-25 38.2-40.4 1.07-1.58 2.2-3.13 3.33-4.67 5.03-6.93 9.4-14.2 13.7-21.6 0.56-0.954 1.12-1.91 1.7-2.89 3.19-5.62 5.36-10.9 6.79-17.2 0.636-2.3 0.636-2.3 2.64-5.3 0.599-1.97 0.599-1.97 1-4.12 0.983-4.81 0.983-4.81 1.5-6.87 1.96-7.87 2.63-16 3.5-24h2c-0.244-1.2-0.244-1.2-0.492-2.43-0.607-4.27-0.657-8.39-0.633-12.7 0.00193-0.834 0.00387-1.67 0.00586-2.53 0.045-6.48 0.399-12.9 1.12-19.3h-2c-0.481-2.52-0.96-5.04-1.44-7.56-0.202-1.06-0.202-1.06-0.408-2.13-0.632-3.35-1.2-6.67-1.67-10-1.02-6.79-3.73-13-6.49-19.3-1.08-2.6-2.03-5.11-2.81-7.81-1.26-3.4-2.94-6.05-4.91-9.07-1.26-2.08-2.22-4.13-3.16-6.37-1.58-3.72-3.47-7.1-5.56-10.6-2.98-5-5.3-10-7.45-15.4-0.968-2.38-2.01-4.65-3.18-6.93-3.55-6.98-6.36-12.9-6.94-20.8z" fill="#B5B5B5"/>
<path transform="translate(811,1157)" d="m0 0 2 2 3-1c1.51 3.49 2.45 6.75 3.06 10.5 0.156 0.918 0.312 1.84 0.473 2.78 2.65 21.2 2.89 43.6-0.535 64.7-0.118 0.737-0.237 1.47-0.358 2.23-3.37 19.8-11.7 39.3-24.6 54.8-0.637 0.771-1.27 1.54-1.93 2.34-3.52 4.16-3.52 4.16-5.07 5.66h-2l-1 3c-3.49 3.21-7.28 6.06-11 9-0.704 0.592-1.41 1.18-2.13 1.79-16.9 14-39.2 25-60.8 28.8-2.24 0.383-2.24 0.383-5.06 1.39-7.46 2.49-14.8 3.31-22.6 3.19-0.894-0.0079-1.79-0.0158-2.71-0.0239-14.5-0.178-29.1-0.709-43.5-2.04-0.777-0.0662-1.55-0.132-2.36-0.201-4.97-0.503-9.47-1.64-14.2-3.15-4.23-1.29-8.55-2.19-12.9-3.15-7.07-1.63-13.8-3.5-20.5-6.31-3.04-1.26-6.09-2.42-9.17-3.57-7.16-2.75-14.1-5.88-21.1-9.12-1.18-0.539-2.35-1.08-3.56-1.63-7.73-3.59-15.1-7.57-22.4-12-0.633-0.377-1.27-0.755-1.92-1.14-1.39-0.833-2.77-1.69-4.14-2.54-0.878-0.54-1.76-1.08-2.66-1.64-2.33-1.72-3.79-3.2-5.28-5.68v-3c9.8-0.885 19.6-1.65 29.4-0.498 6.35 0.644 12.7 0.623 19.1 0.595 1.87-0.00212 1.87-0.00212 3.78-0.00429 3.29-0.00462 6.57-0.0136 9.86-0.0247 3.36-0.0103 6.72-0.0148 10.1-0.0198 5.88-0.00981 11.8-0.024 17.6-0.0421 2.22-0.00673 2.22-0.00673 3.22-0.00673v-1c0.978 0.0232 1.96 0.0464 2.96 0.0703 9.4 0.13 9.4 0.13 18.6-1.51 3.14-0.727 6.27-1.02 9.47-1.37 8.36-1.06 16-3.47 23.9-6.19 1.05-0.343 2.1-0.686 3.18-1.04 1.95-0.639 3.91-1.29 5.85-1.95 2.04-0.694 4.09-1.36 6.15-2.02 9.65-3.19 18.3-7.7 27.2-12.6 2.72-1.48 5.45-2.92 8.19-4.35 10.6-5.57 20.5-11.4 29.9-18.8 1.38-1.09 2.79-2.15 4.21-3.21 14.6-11.3 28-25 38.2-40.4 1.07-1.58 2.2-3.13 3.33-4.67 5.13-7.06 9.49-14.5 13.8-22.1 0.577-1.01 1.15-2.03 1.75-3.07 0.806-1.44 0.806-1.44 1.63-2.9 0.723-1.29 0.723-1.29 1.46-2.61 1.06-2.14 1.7-4.03 2.16-6.36z" fill="#FAFEFE"/>
<path transform="translate(724,1065)" d="m0 0c3.88 2.62 3.88 2.62 5 6l-0.188 3.44c-0.0607 3.72 0.767 6.52 2.06 10 2.75 7.71 3.42 15.5 4.12 23.6 0.0947 1 0.0947 1 0.191 2.03 1.01 10.8 1.01 10.8 0.32 14.8-0.536 3.31-0.53 6.34-0.446 9.68 0.233 9.54-0.61 18.2-3.07 27.5-0.177 0.705-0.355 1.41-0.538 2.14-7.64 29.7-25.9 54.2-51.5 70.9-0.757 0.538-1.51 1.08-2.29 1.63-6.28 4.3-12.9 7.47-19.8 10.6-0.93 0.425-1.86 0.849-2.82 1.29-7.04 3.15-14.1 6.04-21.7 7.53-3.54 0.74-6.89 1.74-10.3 2.94l-2.31 0.5-1.69 0.5-1 2c-1.65-0.0174-1.65-0.0174-3.32-0.0352-1.45-0.00938-2.91-0.0185-4.36-0.0273-0.721-0.00838-1.44-0.0168-2.19-0.0254-4.19-0.0301-4.19-0.0301-8.33 0.599-3.9 0.68-7.67 0.519-11.6 0.403-0.852-0.0212-1.7-0.0425-2.58-0.0644-1.8-0.0462-3.61-0.0951-5.41-0.147-2.72-0.0772-5.44-0.145-8.16-0.211-24.5-0.628-24.5-0.628-34-3.49-3.82-0.565-7.66-0.87-11.5-1.21-4.21-0.412-7.59-1.08-11.5-2.79-0.949 0.0412-1.9 0.0825-2.88 0.125-3.43-0.137-5.18-1.14-8.04-2.94-2.47-1.4-5-2.36-7.65-3.38-10.8-4.4-20.5-11.3-29.4-18.8l-3-2.44c-2.77-3.55-2.77-6.11-3-10.6 3.13-1.86 5.37-2.2 9-2v-1c1.18 0.0116 2.36 0.0232 3.58 0.0352 1.56 0.00938 3.11 0.0185 4.67 0.0273 0.777 0.00838 1.55 0.0168 2.36 0.0254 0.754 0.00322 1.51 0.00645 2.29 0.00977 0.691 0.00524 1.38 0.0105 2.09 0.0159 2.01-0.0445 2.01-0.0445 3.89-0.616 2.81-0.656 5.41-0.591 8.29-0.56 1.21 0.00773 2.41 0.0155 3.65 0.0234 2.52 0.0258 5.03 0.0518 7.55 0.0781 13.3 0.129 13.3 0.129 26.3-2.6 0.838-0.269 1.68-0.539 2.54-0.816 0.606-0.205 1.21-0.41 1.84-0.621v-2h3v2c1.32-0.433 1.32-0.433 2.67-0.875 1.74-0.557 1.74-0.557 3.52-1.12 1.15-0.371 2.3-0.742 3.48-1.12 2.98-0.781 5.28-1.06 8.33-0.875v-2c3.08-0.293 3.08-0.293 6.15-0.586 0.61-0.137 1.22-0.273 1.85-0.414l1-2c1.82-0.344 1.82-0.344 4.12-0.5 4.2-0.369 7.87-1.22 11.9-2.5l-1-2 2.25 0.625c3.07 0.419 4.18-0.00551 6.75-1.62v-2c1.27-0.0645 2.55-0.129 3.86-0.195 5.78-0.645 10.3-2.98 15.4-5.68 0.871-0.447 1.74-0.895 2.64-1.36 4.12-2.13 8.17-4.32 12.1-6.77 1.48-0.889 1.48-0.889 2.98-1.8 6.85-4.17 13.5-8.52 20-13.2l2.64-1.83c7.36-5.17 13.8-11 20.4-17.2 1.49-1.36 2.99-2.72 4.5-4.06 0.588-0.527 1.18-1.05 1.78-1.6 1.72-1.34 1.72-1.34 3.86-2.4 3.25-1.64 3.75-4.63 4.86-7.94 1.14-1.1 2.27-2.2 3.41-3.3 5.68-6.07 10-13 13.6-20.5 1.03-2.15 1.03-2.15 2.78-4.96 1.37-2.4 1.86-4.46 2.25-7.19h2l0.312-3.19c0.701-3.89 1.63-5.52 3.69-8.81 1.43-2.59 2.81-5.2 4.19-7.81 0.368-0.693 0.736-1.39 1.12-2.1 0.9-1.7 1.8-3.39 2.7-5.09z" fill="#FAFEFE"/>
<path transform="translate(892,1224)" d="m0 0c2.69 1.94 2.69 1.94 5 4-0.508 6.27-3.29 11.4-6 17-0.299 0.623-0.597 1.25-0.905 1.89-6.14 12.8-13.1 24.1-22.1 35.1-1.27 1.62-2.54 3.25-3.81 4.88-3.59 4.49-7.41 8.73-11.3 12.9-2.08 2.23-4.07 4.47-5.97 6.86-15.2 18.8-40.3 32.7-61.4 43.6-2 1.03-4 2.08-5.99 3.13-7.65 3.98-15.2 7.14-23.4 9.65-1.57 0.536-3.13 1.08-4.69 1.63-7.5 2.61-14.7 4.87-22.6 5.94-2.79 0.438-5.38 1.13-8.09 1.93-5.4 1.55-10.8 2.35-16.4 3.07-3.1 0.409-6.18 0.904-9.26 1.43-19.6 2.84-39.9 2.94-59.6 1.21-1.76-0.151-3.53-0.289-5.29-0.418-14.2-1.06-27.9-3.11-41.7-6.72-0.646-0.169-1.29-0.338-1.96-0.512-7.16-1.89-14.1-4.07-21.1-6.68-3.33-1.2-6.67-2.04-10.1-2.87-4.73-1.19-8.91-2.63-13.2-5-4.01-1.87-8.34-2.83-12.6-3.99-4.95-1.41-9.73-3.2-14.5-5.01-2.7-0.917-5.4-1.81-8.11-2.68-3.58-1.17-6.89-2.32-10.3-4.01-4.96-1.8-9.42-2.42-14.6-1.31-2.11 1.56-3.63 3.24-5.32 5.24-2.73 2.87-5.84 4.02-9.68 4.76-5-0.1-8.12-1.91-12-5-2.51-3.69-2.64-7.93-3.06-12.2-0.128-1.2-0.128-1.2-0.258-2.43-0.517-5.05-0.831-10.1-1.05-15.1-0.502-9.13-2.33-17.9-4.17-26.9-0.572-2.9-1.01-5.81-1.45-8.74-0.766-4.37-2.21-7.12-5-10.6 3.46-1.15 3.85-0.915 7 0.562 0.795 0.371 1.59 0.742 2.41 1.12 2.72 1.38 5.37 2.87 8.03 4.38 6.14 3.4 12.2 5.52 19.1 6.38 3.08 0.505 4.93 1.17 7.69 2.5 4.35 2.06 8.53 2.94 13.3 3.67 2.48 0.395 2.48 0.395 4.49 0.953 3.18 0.706 6.32 0.351 9.55 0.184 2.95 0.312 4.25 1.32 6.44 3.26l-0.625 2.25c-0.431 3.16-0.288 4.23 1.62 6.75 1.06 0.412 1.06 0.412 2.15 0.832 2.88 1.18 5.32 2.69 7.91 4.39 10.2 6.68 20.9 11.8 31.9 16.8 1.6 0.743 3.21 1.49 4.81 2.23 19 8.74 38.9 13.8 59.2 18.8 0.666 0.182 1.33 0.364 2.02 0.551 12.5 2.83 25.6 2.74 38.4 3.07 0.778 0.0205 1.56 0.0409 2.36 0.062 4.43 0.113 8.86 0.205 13.3 0.277 1.83 0.033 3.66 0.0801 5.5 0.128 5.59 0.099 10.1-0.21 15.5-2.09 1.12-0.318 2.24-0.637 3.39-0.965 3.54-1.01 7.07-2.02 10.6-3.04 0.87-0.248 1.74-0.495 2.64-0.75 2.47-0.717 4.91-1.48 7.36-2.25 0.986-0.289 1.97-0.578 2.99-0.875 12.6-4.04 24.7-10.8 35.4-18.6 0.846-0.517 1.69-1.03 2.56-1.57 0.99 0.33 1.98 0.66 3 1l-3 2c1.44-0.0875 2.88-0.196 4.31-0.312 0.801-0.058 1.6-0.116 2.43-0.176 3.89-0.879 5.11-3.29 7.26-6.51 1.88-0.562 1.88-0.562 4-1 3.85-1.49 6.19-4.04 9-7l2-2c1.52-1.99 2.99-4.01 4.46-6.03 1.54-1.97 1.54-1.97 3.04-3.44 2.45-2.51 4.13-5.52 6-8.47 1.5-2.06 1.5-2.06 4.5-4.06 0.125 2.38 0.125 2.38 0 5l-2 2 2 2c9.2-2.64 9.2-2.64 17-8h2l2-4h2v-2h2l1-4h2c0.34-0.804 0.34-0.804 0.688-1.62 3.12-5.64 7.94-10.8 13.3-14.4h3c0.268-0.639 0.536-1.28 0.812-1.94 1.19-2.06 1.19-2.06 4.19-3.06 0.702-1.32 1.37-2.65 2-4 2.46-3.2 5.25-3.75 9-5 5.69-3.19 8.08-6.88 11.2-12.5 2.54-4.42 2.54-4.42 5.81-5.51z" fill="#B0B0B0"/>
<path transform="translate(498 419)" d="m0 0c1.14-0.00387 2.28-0.00773 3.45-0.0117 21.8 0.0247 21.8 0.0247 29.3 4.14 2.3 0.368 4.59 0.564 6.91 0.758 2.61 0.302 4.69 1.19 7.09 2.24 2.04 0.52 4.08 0.99 6.13 1.44 1.87 0.562 1.87 0.562 4.87 2.56 1.09 0.309 2.19 0.619 3.31 0.938 3.55 1.02 6.41 2.39 9.69 4.06l3.56 1.25c10.2 3.72 19.5 9.78 28.4 15.8 0.574 0.38 1.15 0.76 1.74 1.15 1.82 1.21 3.64 2.43 5.45 3.66 0.578 0.385 1.16 0.771 1.75 1.17 1.39 0.955 2.73 1.98 4.06 3.02v2l1.73 0.812c2.34 1.23 4.39 2.61 6.52 4.19 1.06 0.773 1.06 0.773 2.14 1.56 0.531 0.474 1.06 0.949 1.61 1.44v2l1.75 0.688c2.82 1.64 4.33 3.71 6.25 6.31-1.81 0.625-1.81 0.625-4 1l-3-2c-1.53-0.41-3.07-0.762-4.62-1.06-4.27-0.837-4.27-0.837-5.38-1.94-13.3-3.8-26.9-3.43-40.6-3.34-3.82 0.0239-7.64 0.0205-11.5 0.0139-2.43 0.00557-4.85 0.0127-7.28 0.0215-1.14-9.11e-4 -2.29-0.00182-3.46-0.00276-1.57 0.0143-1.57 0.0143-3.18 0.0289-1.39 0.00691-1.39 0.00691-2.8 0.014-2.43 0.0521-2.43 0.0521-4.22 2.26-2.6 0.419-5.14 0.747-7.75 1-5.05 0.499-9.44 1.28-14.2 3-1.6 0.343-3.2 0.657-4.81 0.938-19.9 3.89-40.8 14.1-57.3 25.8-1.98 1.34-4.01 2.43-6.13 3.53-7.44 4.02-14 9.65-20.5 15.1-2.23 1.69-2.23 1.69-4.23 1.69v2c-1.56 1.37-3.17 2.67-4.81 3.94-15.3 12.3-32.8 29.6-38.3 49-0.422 1.01-0.422 1.01-0.852 2.05-0.99 0.33-1.98 0.66-3 1-0.433 0.846-0.866 1.69-1.31 2.56-1.69 2.44-1.69 2.44-4.69 3.06-3-0.625-3-0.625-4.75-2.81l-1.25-2.81-1.12-2.25c-1.03-3.23-1.3-6.29-1.53-9.66-0.246-2.39-0.246-2.39-2.34-5.09-0.316-3.25-0.463-6.46-0.566-9.73-0.0792-1.76-0.249-3.52-0.434-5.27l-2-1c0.0116-0.843 0.0232-1.69 0.0352-2.55 0.00902-1.1 0.018-2.19 0.0273-3.32 0.0116-1.09 0.0232-2.18 0.0352-3.3 0.0998-2.77 0.0998-2.77-1.1-4.82-0.1-2.45-0.141-4.86-0.125-7.31 0.00266-0.71 0.00532-1.42 0.00806-2.15 0.164-18.6 0.164-18.6 2.12-20.5 0.371-1.43 0.697-2.87 1-4.31 0.331-1.56 0.664-3.13 1-4.69 0.112-0.611 0.224-1.22 0.34-1.85 1-3.27 2.61-6.21 4.22-9.21 0.529-0.988 0.529-0.988 1.07-2 8.8-16.1 8.8-16.1 14.4-17.9 1.64-1.66 1.64-1.66 3.25-3.69 5.68-6.66 12.3-11.5 19.4-16.6 2.39-1.67 2.39-1.67 4.36-3.73 0.99 0.33 1.98 0.66 3 1v-2c6.32-3.3 12.8-6.31 19.2-9.25 0.768-0.353 1.54-0.706 2.33-1.07 4.19-1.88 7.86-2.97 12.4-3.68l1-2 2 1c1.73-0.681 1.73-0.681 3.69-1.75 13-6.09 28.4-6.42 42.6-6.38z" fill="#FAFEFE"/>
<path transform="translate(576 502)" d="m0 0c1.13-0.00129 2.26-0.00258 3.42-0.00391 1.17 0.00387 2.34 0.00773 3.55 0.0117 1.17-0.00387 2.33-0.00773 3.54-0.0117 1.7 0.00193 1.7 0.00193 3.43 0.00391 1.03 0.00113 2.05 0.00226 3.11 0.00342 3.07 0.133 5.97 0.594 8.99 1.13 1.85 0.0411 3.71 0.0422 5.56 0 3.68-0.0836 6.84 0.256 10.4 1 1.75 0.297 3.5 0.586 5.25 0.867 4.23 0.686 8.46 1.39 12.7 2.12 3.49 0.596 6.97 1.15 10.5 1.59 6.24 0.95 9.91 1.99 14 6.92 1.23 1.81 2.42 3.64 3.56 5.5 0.544 0.803 1.09 1.61 1.65 2.43 1.87 2.81 3.61 5.68 5.35 8.57 0.454 0.741 0.908 1.48 1.38 2.25 1.54 2.51 3.05 5.04 4.56 7.57 0.497 0.813 0.995 1.63 1.51 2.46 2.59 4.39 4.24 7.46 3.56 12.7-2.26 1.13-3.52 1.13-6.03 1.13-0.792 0.00129-1.58 0.00258-2.4 0.00391-0.828-0.00387-1.66-0.00773-2.51-0.0117-0.824 0.00387-1.65 0.00773-2.5 0.0117-0.793-0.00129-1.59-0.00258-2.4-0.00391-0.726-0.00113-1.45-0.00226-2.2-0.00342-1.96-0.129-1.96-0.129-4.96-1.13-4.53 0.0323-9.04 0.337-13.6 0.614-2.21 0.133-4.42 0.248-6.63 0.362-9.19 0.52-17.8 1.86-26.8 4.02-1.59 0.337-3.18 0.669-4.78 0.992-15.9 3.33-29.9 8.41-44.2 16-0.908 0.471-1.82 0.941-2.75 1.43-18.1 9.59-34.5 20.5-49.9 34-2.13 1.84-4.08 3.46-6.62 4.7-2.06 0.816-2.06 0.816-2.69 3.88-1.53 1.47-1.53 1.47-3.5 3.06-7.65 6.52-13.7 14.1-19.5 22.2-7.85 10.6-7.85 10.6-12 12.7-3 0.188-3 0.188-6 0-2.79-2.79-3.22-6.02-4.12-9.75-0.273-1.06-0.273-1.06-0.551-2.13-1.03-4.15-1.41-7.82-1.32-12.1l-1-2c-0.0203-1.67 0.00807-3.33 0.0625-5 0.0448-3.82-0.199-7.21-1.06-10.9-1.87-8.41-1.36-16.4 0.566-24.8 0.416-2.2 0.474-4.07 0.371-6.3-0.311-15.6 11.3-29.6 21.2-40.4 21.2-21.9 51.6-40.1 82.2-43.2 3.69-0.409 7.22-1.09 10.8-1.92 2.95-0.515 5.7-0.606 8.69-0.609z" fill="#FAFEFE"/>
<path transform="translate(551 472)" d="m0 0c1.05-0.00953 2.1-0.0191 3.18-0.0289 1.14 9.11e-4 2.29 0.00182 3.46 0.00276 1.18-0.00429 2.36-0.00857 3.58-0.013 2.51-0.00576 5.02-0.00623 7.53-0.00191 3.79 0.00312 7.58-0.0201 11.4-0.0457 30.9-0.0814 30.9-0.0814 40.9 5.36 1.3 0.396 2.61 0.751 3.94 1.06 1.05 0.255 1.05 0.255 2.11 0.516 2.05 0.476 2.05 0.476 4.57 0.734 10.9 3.17 19.1 18.8 24.3 28.1 0.351 0.846 0.701 1.69 1.06 2.56l-1 2c-1.33-0.265-1.33-0.265-2.69-0.535-3.34-0.662-6.67-1.32-10-1.97-1.44-0.283-2.87-0.567-4.31-0.853-7.37-1.47-14.7-2.9-22.2-3.43-1.82-0.209-1.82-0.209-3.82-1.21-3.58-0.0709-7.14 0.00334-10.7 0.0625-3.29-0.0625-3.29-0.0625-6.29-1.06-1.93-0.0945-3.87-0.131-5.8-0.133-1.14-0.00129-2.28-0.00258-3.46-0.00391-1.19 0.00387-2.38 0.00773-3.61 0.0117-1.18-0.00387-2.37-0.00773-3.59-0.0117-1.14 0.00129-2.29 0.00258-3.46 0.00391-1.04 0.00113-2.09 0.00226-3.16 0.00342-2.75 0.122-5.23 0.511-7.91 1.13-5.02 1.1-9.8 2.02-14.9 2.19-12.8 1.02-25.9 7.78-37.1 13.8-0.884 0.447-1.77 0.895-2.68 1.36-23.1 12-46 31.9-55.1 56.9-1.22 4.23-1.25 8.17-1.13 12.5-0.0646 2.35-0.473 4.32-1.06 6.59-1.99 8.15-1.31 16.1 0.559 24.2 0.654 3.74 0.539 7.39 0.414 11.2-0.0903 2.5-0.0903 2.5 1.03 5.35 0.124 1.28 0.248 2.56 0.375 3.88 0.524 5.29 1.8 10.4 3.1 15.5 0.173 0.866 0.345 1.73 0.523 2.62l-1 1c-0.519 5.32 0.982 9.21 3 14 0.392 0.99 0.784 1.98 1.19 3 0.402 0.99 0.402 0.99 0.812 2l-4 3c-10.4-7.13-20.5-14.4-29.7-23-1.56-1.42-3.18-2.77-4.84-4.08-2.16-1.76-3.88-3.47-5.67-5.59-2.66-3.11-5.37-6.16-8.12-9.19-3.93-4.35-7.67-8.82-11.4-13.4-1.56-1.93-3.14-3.84-4.73-5.73-0.797-0.951-1.59-1.9-2.41-2.88-0.719-0.852-1.44-1.7-2.18-2.58-2.05-2.74-3.46-5.53-4.95-8.61l-1.81-2.25c-3.91-4.91-7.99-10.5-9.19-16.8l2.31-0.188c3.54-1.07 3.93-2.69 5.69-5.81h3c0.112-0.643 0.224-1.29 0.34-1.95 4.33-19.8 25.7-41.2 41.7-53.1h2v-2c1.31-1.22 1.31-1.22 3.15-2.57 1.01-0.749 1.01-0.749 2.03-1.51 0.724-0.528 1.45-1.06 2.19-1.6 0.731-0.539 1.46-1.08 2.21-1.63 2.13-1.57 4.27-3.13 6.41-4.68 1-0.728 2.01-1.46 3.04-2.21 4.52-3.21 9.13-6.07 14-8.79 1.33-0.765 2.66-1.53 3.99-2.3 13.6-7.75 27.4-14.8 42.5-18.9 2.71-0.727 2.71-0.727 5.5-2.79 1.86-0.402 3.74-0.727 5.62-1 3.73-0.57 7.39-1.19 11.1-2.06 3.81-0.897 7.56-1.32 11.5-1.59 3.66-0.681 4.61-2.6 8.87-2.62z" fill="#808382"/>
<path transform="translate(711,552)" d="m0 0c6.35 4.46 10 11 12.4 18.2 1.31 3.77 2.93 4.98 6.56 6.75v2l2.25 0.75c3.6 1.64 5.97 3.69 7.75 7.25 0.0402 2.33 0.0432 4.67 0 7-8.14-1.7-8.14-1.7-11.9-3-3.73-1.19-7.44-1.84-11.3-2.49-1.7-0.305-3.39-0.651-5.05-1.08-5.62-1.41-11-1.55-16.8-1.51-1.31 0.00515-1.31 0.00515-2.64 0.0104-9.15 0.0483-18.3 0.185-27.4 0.385-1.85 0.0389-3.71 0.0736-5.56 0.104-2.74 0.0457-5.47 0.104-8.21 0.164-0.82 0.0116-1.64 0.0231-2.48 0.035-4.87 0.125-9.01 0.849-13.7 2.38-2.44 0.627-4.87 1.25-7.31 1.88-11.3 3-21.4 7.82-31.8 13.2-1.58 0.804-3.17 1.58-4.77 2.34-20.6 10.3-43.7 31.5-51.1 53.7-1.33 4.82-1.69 9.72-2.09 14.7-0.0842 1-0.168 2.01-0.255 3.04-0.513 6.59-0.801 13.2-0.807 19.8-8.06e-4 0.766-0.00161 1.53-0.00244 2.32 0.0417 4.14 0.431 8.05 1.19 12.1 0.272 2.48 0.496 4.96 0.719 7.44 0.256 2.62 0.256 2.62 0.809 5.41 0.533 3.55 0.569 6.93 0.535 10.5-0.00902 1.25-0.018 2.49-0.0273 3.77-0.0116 0.941-0.0232 1.88-0.0352 2.85-3.45-1.28-6.42-2.77-9.48-4.8-1.27-0.838-1.27-0.838-2.56-1.69-0.893-0.6-1.79-1.2-2.71-1.82-0.928-0.622-1.86-1.24-2.81-1.88-11.7-7.92-22.8-16.5-33.7-25.6-3.82-3.13-7.71-6.17-11.6-9.21-4.45-3.48-8.87-7.01-13.3-10.6-1.83-1.51-1.83-1.51-3.89-2.46l1.25-2.5c0.939-4.38-0.085-5.61-2.22-9.33-1.69-3.57-1.85-7.26-2.03-11.2 3-1 3-1 5.75-0.688 5.22-0.502 8.43-4.13 11.7-8.06 1.4-1.87 2.75-3.77 4.1-5.69 8.23-11.3 17.6-21.6 28.4-30.6 1.01-0.894 2.02-1.79 3.03-2.69 21.4-19 47.9-35.8 75-45.3 1.17-0.41 2.33-0.82 3.53-1.24 8-2.7 15.9-4.56 24.3-5.77 0.708-0.103 1.42-0.206 2.14-0.312 0.616-0.0834 1.23-0.167 1.87-0.253 2.4-0.424 2.4-0.424 5.5-1.43 3.72-1 7.06-1.4 10.9-1.63 0.669-0.0417 1.34-0.0834 2.03-0.126 2.15-0.131 4.31-0.249 6.46-0.366 1.1-0.063 1.1-0.063 2.22-0.127 9.03-0.518 18-0.927 27.1-0.935 1.23-0.00121 1.23-0.00121 2.48-0.00244 5.39 0.0535 5.39 0.0535 6.52 1.19 1.66 0.364 3.33 0.7 5 1l0.25 1.81c0.631 2.26 0.631 2.26 2.25 4 3.41 1.62 5.92 1.02 9.57 0.414 0.636-0.0748 1.27-0.15 1.93-0.227l1 1c1.37-2.74 1.13-4.97 1-8l-1-2h2v-2c3.25-1.62 5.4-1.47 9-1z" fill="#B0B0B0"/>
<path transform="translate(688,873)" d="m0 0c3.85 1.57 6.13 4.05 9 7 2.03 1.77 4.06 3.52 6.12 5.25 0.505 0.427 1.01 0.853 1.53 1.29 2.49 2.1 4.99 4.18 7.57 6.17 8.99 7.05 16.9 15.1 25 23.2 2.5 2.51 5.02 5.02 7.53 7.52 1.59 1.59 3.18 3.19 4.77 4.78 0.753 0.749 1.51 1.5 2.28 2.27 1.03 1.04 1.03 1.04 2.08 2.1 0.606 0.608 1.21 1.22 1.84 1.84 1.29 1.55 1.29 1.55 1.29 3.55 0.599 0.26 1.2 0.521 1.82 0.789 2.33 1.29 3.48 2.51 5.12 4.59 2.45 2.98 5.04 5.22 8.06 7.62 4.38 4.68 6.49 8.5 7.41 14.8 2.33 12.5 10.1 24.6 16.2 35.7 1.88 3.46 3.63 6.98 5.37 10.5 1.02 2.06 2.04 4.13 3.06 6.19 0.729 1.48 0.729 1.48 1.47 2.98 1.43 2.84 1.43 2.84 3.11 5.5 1.6 2.76 1.86 5.2 2.35 8.34l2 2c0.716 1.98 1.38 3.99 2 6 0.33 0.911 0.66 1.82 1 2.76 3.29 9.62 4.19 19.2 5 29.2h2v37h-2c0.0116 0.713 0.0232 1.43 0.0352 2.16 0.0712 7.56-0.577 14.4-2.49 21.7-0.939 3.69-1.73 7.41-2.54 11.1-0.11-0.637-0.219-1.27-0.332-1.93-0.22-0.683-0.441-1.37-0.668-2.07-2.96-1.24-5.84-1.97-8.99-2.61-4.05-1.87-4.96-4.5-6.51-8.45-0.587-1.37-1.18-2.74-1.78-4.1-0.289-0.662-0.577-1.32-0.875-2-1.82-3.92-4.28-7.37-6.85-10.8-0.517-0.708-1.03-1.42-1.57-2.14-1.46-1.97-2.94-3.92-4.43-5.86-0.742-0.969-1.48-1.94-2.25-2.94-1.59-2.15-1.59-2.15-3.75-3.06-1.01-1.75-2.01-3.51-2.98-5.29-1.11-1.87-2.45-3.22-4.02-4.71v-2c-0.572-0.223-1.14-0.446-1.73-0.676-2.93-1.72-4.45-3.82-6.52-6.51-5.58-7.27-5.58-7.27-12.8-12.8-2.55 0.34-2.55 0.34-5 1-2.02-0.614-4.02-1.29-6-2-3.6-0.813-3.6-0.813-7-1l-3 2-6-4c1.47-21.8 1.47-21.8 4.51-26.2 3.73-7.1 2.63-16.9 2.59-24.8-0.00141-0.983-0.00283-1.97-0.00429-2.98-0.00553-3.1-0.0181-6.19-0.0309-9.29-0.00502-2.12-0.00958-4.24-0.0137-6.35-0.0109-5.15-0.0282-10.3-0.0488-15.5l-4-2 0.125-3.38c0-4.14-0.669-7.94-1.56-12-0.779-3.65-1.34-7.33-1.91-11-0.794-3.18-2.13-5.75-3.66-8.64-0.46-0.944-0.92-1.89-1.39-2.86-2.39-4.87-4.84-9.64-7.67-14.3-6.35-10.4-11.1-21.6-15.8-32.8-1.11-2.64-2.15-5-3.8-7.35-2.07-4.04-2.12-8.2-2.38-12.7z" fill="#5B5B5B"/>
<path transform="translate(441,1267)" d="m0 0c5.33 1.27 9.86 2.67 14.3 5.94 6.32 4.52 13.8 6.54 21.4 7.56 3.01 0.463 4.8 1.14 7.5 2.44 4.35 2.06 8.53 2.94 13.3 3.67 2.48 0.395 2.48 0.395 4.49 0.953 3.18 0.706 6.32 0.351 9.55 0.184 2.95 0.312 4.25 1.32 6.44 3.26l-0.625 2.25c-0.431 3.16-0.288 4.23 1.62 6.75 0.709 0.275 1.42 0.549 2.15 0.832 2.88 1.18 5.32 2.69 7.91 4.39 10.2 6.68 20.9 11.8 31.9 16.8 1.6 0.743 3.21 1.49 4.81 2.23 15.4 7.07 31.2 11.8 47.6 15.9 0.732 0.182 1.46 0.363 2.22 0.551 1.42 0.35 2.83 0.697 4.25 1.04 4.89 1.2 4.89 1.2 7.1 2.31 0.625 2.06 0.625 2.06 1 4-0.99 0.33-1.98 0.66-3 1 3.83 2.39 7.6 2.56 12 3l-1 5 1.69 1.19c2.31 1.81 2.31 1.81 4.69 4.25 2.59 2.69 2.59 2.69 5.94 4.75l2.69 1.81v2h3v2c-0.71 0.133-1.42 0.266-2.15 0.402-1.38 0.265-1.38 0.265-2.79 0.535-1.37 0.261-1.37 0.261-2.78 0.527-2.24 0.312-2.24 0.312-3.29 1.54-2.82 0.0742-5.62-0.00377-8.43-0.0625-2.88 0.0505-5.57 0.281-8.42 0.625-4.88 0.512-9.26 0.223-14.1-0.562-0.833-0.13-1.67-0.261-2.52-0.395-14.9-2.52-29.9-6.39-44.1-11.7-3.35-1.2-6.7-2.05-10.2-2.89-4.73-1.19-8.91-2.63-13.2-5-4.01-1.87-8.34-2.83-12.6-3.99-4.95-1.41-9.73-3.2-14.5-5.01-2.7-0.917-5.4-1.81-8.11-2.68-3.58-1.17-6.89-2.32-10.3-4.01-4.96-1.8-9.42-2.42-14.6-1.31-2.11 1.56-3.63 3.24-5.32 5.24-2.73 2.87-5.84 4.02-9.68 4.76-5-0.1-8.12-1.91-12-5-2.51-3.69-2.64-7.93-3.06-12.2-0.0852-0.801-0.17-1.6-0.258-2.43-0.517-5.05-0.831-10.1-1.05-15.1-0.502-9.13-2.33-17.9-4.17-26.9-0.572-2.9-1.01-5.81-1.45-8.74-0.766-4.37-2.21-7.12-5-10.6l1-1z" fill="#B5B5B5"/>
<path transform="translate(360,1190)" d="m0 0 2 1c1.75 0.154 3.5 0.274 5.25 0.375 4.62 0.373 7.66 1.39 11.8 3.62 1.05 0.144 2.1 0.289 3.18 0.438 4.12 0.607 7.77 1.71 11.7 3.06 0.675 0.226 1.35 0.451 2.05 0.684 4.94 1.68 4.94 1.68 6.08 2.82 1.37 0.349 2.74 0.654 4.12 0.938 2.93 0.617 5.69 1.31 8.56 2.19 3.28 0.868 5.94 0.95 9.31 0.875 1.33 0.328 2.67 0.662 4 1 1.44 0.167 2.87 0.312 4.31 0.438 2.97 0.301 5.36 0.763 8.25 1.62 2.89 0.788 4.61 1.02 7.5 0.938 3.94 0 3.94 0 6.69 0.938 4.97 1.62 10.1 1.74 15.2 2.06l1 3-3.31-0.0625c-3.63-0.123-3.63-0.123-6.69 1.06 0.205 0.615 0.41 1.23 0.621 1.86 1.13 3.38 2.25 6.76 3.38 10.1 1.65 0.704 3.32 1.37 5 2 1.54 1.09 3.04 2.24 4.5 3.44 2.48 2 4.72 3.69 7.5 5.25 2 1.31 2 1.31 2.88 3.19 0.125 2.12 0.125 2.12-0.438 4.75l-0.438 2.38c1.93 2.22 1.93 2.22 5 3v2h3v2l2.17 0.844c2.75 1.12 5.41 2.35 8.08 3.66 0.871 0.423 1.74 0.846 2.64 1.28 2.11 1.22 2.11 1.22 3.11 3.22 0.99 0.33 1.98 0.66 3 1 0.474 0.804 0.949 1.61 1.44 2.44 1.69 2.77 2.67 3.31 5.56 4.56l1 2c4.65 2.34 9.05 2.36 14.2 2.56 3.12 0.485 4.52 1.36 6.84 3.44-0.25 2.38-0.25 2.38-1 5-1.88 1.12-1.88 1.12-4 2-0.742 0.773-0.742 0.773-1.5 1.56-3.22 3.09-7.52 2.55-11.8 2.5-1.08-0.00902-2.16-0.018-3.27-0.0273-1.23-0.0174-1.23-0.0174-2.48-0.0352l1-2c-4.08-2.1-7.44-2.15-11.9-1.97-2.09-0.0273-2.09-0.0273-5.09-1.03-1.71-0.283-3.42-0.552-5.12-0.812-4.66-0.816-8.46-2.21-12.7-4.25-3.59-1.56-7.35-2.17-11.2-2.94-7.58-1.56-13-4.08-19.4-8.42-4.24-2.61-8.33-3.21-13.2-4.02-3.06-0.726-5.56-2.15-8.38-3.56-9.88-3.83-20.4-5.37-31-4-3.24 1.57-6.08 3.43-9.08 5.42-4.91 2.65-9.52 2.68-14.9 1.58-3.19-1.25-3.79-2.09-6-5-0.769-2.37-1.23-4.64-1.58-7.11-0.345-2.37-0.819-4.57-1.38-6.89-1.19-5.29-1.66-10.6-2.07-16-0.0836-1.02-0.167-2.03-0.253-3.08-0.264-3.22-0.519-6.44-0.774-9.66-0.259-3.23-0.521-6.46-0.785-9.69-0.163-2-0.324-4-0.481-6.01-0.37-4.59-0.814-9.09-1.67-13.6z" fill="#808382"/>
<path transform="translate(782,576)" d="m0 0c1.09 0.433 2.19 0.866 3.31 1.31 8.74 3.26 17.7 5.18 26.9 6.93 2.43 0.485 4.85 1.02 7.25 1.62 6.82 1.68 13.3 2.43 20.2 2.46 0.779 0.0054 1.56 0.0108 2.36 0.0164 3.83-0.0485 5.7-0.16 8.95-2.33 2.38-0.5 2.38-0.5 5 0 3.61 3.33 5.28 5.54 5.6 10.5 0.0284 1.75 0.0349 3.51 0.0234 5.27 0.175 9.91 1.1 19.6 2.36 29.4 0.558 4.44 1.1 8.79 1.05 13.3-0.0272 3.1 0.221 5.62 0.906 8.62 1.27 5.91 2.05 11.7 2.5 17.8 0.296 3.84 0.775 7.49 1.62 11.2 0.978 4.49 1.03 8.69 0.949 13.3-0.0233 5.3 0.582 10.3 2.05 15.4 1.63 5.94 1.09 12.2 0.938 18.3-3.5 1.17-4.9 0.608-8.16-0.941-6.42-3.7-8.47-8.26-10.7-15.1-1.95-5.1-5.07-9.42-8.12-13.9-3.5-5.36-6.88-10.7-9.81-16.4-3.33-6.22-7.57-11.6-12-17.1-1.11-1.39-2.2-2.81-3.29-4.22-9.29-12.2-9.29-12.2-21.9-20.3-3.06-0.276-3.06-0.276-6.12-0.188-5.4-0.307-5.4-0.307-7.47-2.51-1.01-2.08-1.73-4.1-2.41-6.3-0.34-0.54-0.68-1.08-1.03-1.64-1.39-3.39-1.2-6.67-1.13-10.3 0.0052-0.762 0.0104-1.52 0.0158-2.31 0.0178-2.43 0.0489-4.86 0.0819-7.29 0.0277-2.43 0.0524-4.86 0.0712-7.29 0.0122-1.51 0.0298-3.02 0.0533-4.53 0.0324-3.41-0.114-6.41-1.06-9.69 0.298-1.34 0.633-2.68 1-4 0.0655-1.58 0.0858-3.17 0.0625-4.75-0.00902-0.799-0.018-1.6-0.0273-2.42-0.0116-0.603-0.0232-1.21-0.0352-1.83z" fill="#B5B5B5"/>
<path transform="translate(777,959)" d="m0 0c2.96 1.35 5.17 2.87 7.56 5.06 3.07 2.78 6.24 5.39 9.48 7.96 5.76 4.7 11 9.76 16.2 15 1.49 1.5 2.98 3 4.47 4.49 4.78 4.79 9.43 9.65 13.8 14.8 1.79 2.09 3.67 4.08 5.54 6.09 14.6 16.3 30.4 35.8 39.9 55.6 0.721 1.32 1.45 2.63 2.19 3.94 0.418 0.755 0.835 1.51 1.27 2.29 0.854 1.53 1.71 3.06 2.59 4.58 1.15 1.99 2.27 4 3.4 6 0.379 0.646 0.757 1.29 1.15 1.96 2.58 4.66 2.58 4.66 1.76 7.55-1.35 1.68-1.35 1.68-3.35 3.68-4.05 0.345-5.55 0.302-9-2-2.48-0.223-2.48-0.223-5 1-1.39 1.69-2.56 3.46-3.77 5.28-1.84 2.57-3.27 3.56-6.23 4.72-1.77 0.106-3.54 0.186-5.31 0.25-5.6 0.341-8.28 2.2-12.2 6.06-1.54 1.64-1.54 1.64-2.46 3.69l-3.38 1.31c-3.98 1.85-4.76 2.86-6.62 6.69-0.982 1.35-1.98 2.68-3 4l-3-3c1.75-4.88 1.75-4.88 4-6l-3-6v2h-2l-1-4h2c-0.162-0.802-0.325-1.6-0.492-2.43-0.607-4.27-0.657-8.39-0.633-12.7 0.00193-0.834 0.00387-1.67 0.00586-2.53 0.045-6.48 0.399-12.9 1.12-19.3h-2c-0.481-2.52-0.96-5.04-1.44-7.56-0.135-0.704-0.269-1.41-0.408-2.13-0.632-3.35-1.2-6.67-1.67-10-1.02-6.79-3.73-13-6.49-19.3-1.08-2.6-2.03-5.11-2.81-7.81-1.26-3.4-2.94-6.05-4.91-9.07-1.26-2.08-2.22-4.13-3.16-6.37-1.58-3.72-3.47-7.1-5.56-10.6-2.98-5-5.3-10-7.45-15.4-0.968-2.38-2.01-4.65-3.18-6.93-3.55-6.98-6.36-12.9-6.94-20.8z" fill="#B0B0B0"/>
<path transform="translate(441,1267)" d="m0 0c5.33 1.27 9.86 2.67 14.3 5.94 6.32 4.52 13.8 6.54 21.4 7.56 3.01 0.463 4.8 1.14 7.5 2.44 4.35 2.06 8.53 2.94 13.3 3.67 2.48 0.395 2.48 0.395 4.49 0.953 3.18 0.706 6.32 0.351 9.55 0.184 2.95 0.312 4.25 1.32 6.44 3.26l-0.625 2.38-0.375 2.62 2 2v3l-1 1-0.25 3.31c-0.75 3.69-0.75 3.69-3 6.12-3.01 1.71-4.37 1.74-7.75 1.56-2.25 0.916-2.25 0.916-4 2-0.388 2.64-0.44 4.37 1.11 6.6 1.29 1.48 2.59 2.94 3.89 4.4v2h5l2 5 2-1 1 2c0.99-0.33 1.98-0.66 3-1 2 1 2 1 3.12 4.06l0.875 2.94-1 1 6 3v2l10 3-2 2c-1.95-0.242-1.95-0.242-4.12-0.875-0.724-0.204-1.45-0.407-2.2-0.617-0.554-0.168-1.11-0.335-1.68-0.508l1 1 1 2c-6.02-0.65-11.4-2.89-17-5-2.7-0.917-5.4-1.81-8.11-2.68-3.58-1.17-6.89-2.32-10.3-4.01-4.96-1.8-9.42-2.42-14.6-1.31-2.11 1.56-3.63 3.24-5.32 5.24-2.73 2.87-5.84 4.02-9.68 4.76-5-0.1-8.12-1.91-12-5-2.51-3.69-2.64-7.93-3.06-12.2-0.0852-0.801-0.17-1.6-0.258-2.43-0.517-5.05-0.831-10.1-1.05-15.1-0.502-9.13-2.33-17.9-4.17-26.9-0.572-2.9-1.01-5.81-1.45-8.74-0.766-4.37-2.21-7.12-5-10.6l1-1z" fill="#B0B0B0"/>
<path transform="translate(491 829)" d="m0 0c2.47 1.95 5.02 3.72 7.62 5.49 3.65 2.52 6.61 5.24 9.75 8.38 1.38 0.963 2.78 1.9 4.19 2.81 8.11 5.26 15.3 11.5 22.5 18 2.05 1.86 4.13 3.66 6.23 5.45 6.57 5.72 12.6 12.1 18.7 18.3 2.41 2.37 4.9 4.62 7.45 6.85 2.76 2.46 5.39 4.85 7.69 7.75 1.85 2.26 3.47 3.86 5.69 5.69 3.23 2.69 5.9 5.61 8.62 8.8 1.94 2.25 3.94 4.43 5.96 6.61 27.9 30.1 27.9 30.1 32 45.7-7.5 0-14.4-6.12-19.7-11-2.91-2.52-6.01-4.71-9.16-6.92-4.93-3.47-9.73-7.03-14.4-10.8-2.21-1.8-4.44-3.56-6.68-5.31-1.03-0.812-1.03-0.812-2.09-1.64-1.38-1.08-2.76-2.16-4.14-3.23-1.65-1.3-3.24-2.66-4.82-4.04v-2c-0.577-0.251-1.15-0.501-1.75-0.76-2.55-1.41-4.22-3-6.25-5.08-1.11-1.13-1.11-1.13-2.24-2.28-0.764-0.785-1.53-1.57-2.31-2.38-1.52-1.55-3.04-3.11-4.57-4.66-0.671-0.689-1.34-1.38-2.03-2.09-1.92-1.94-1.92-1.94-4.84-3.76v-2l-1.62-0.625c-3.29-1.91-5.97-4.42-8.38-7.38v-2l-1.69-0.75c-3.87-2.09-7.43-4.91-10.3-8.25v-2l-1.77-0.781c-2.41-1.32-4.05-2.77-5.98-4.72-0.92-0.913-0.92-0.913-1.86-1.84-1.39-1.66-1.39-1.66-1.39-3.66l-2.12-0.562c-3.43-1.71-5.03-3.76-7.4-6.7-1.91-2.25-4.17-3.91-6.48-5.73-0.598-0.763-1.2-1.53-1.81-2.31-2.5-3.07-5.29-5.48-8.28-8.05-2.08-1.79-4.08-3.59-5.91-5.64v-2c-0.586-0.259-1.17-0.518-1.77-0.785-2.39-1.31-3.93-2.71-5.83-4.66-0.655-0.666-1.31-1.33-1.98-2.02-0.673-0.694-1.35-1.39-2.04-2.1-1.34-1.38-2.69-2.75-4.04-4.13-0.592-0.61-1.18-1.22-1.8-1.85-1.49-1.56-1.49-1.56-3.54-2.46v-2c13.5-2.39 24.3 2.75 34.6 11.1z" fill="#2E3134"/>
<path transform="translate(815,1043)" d="m0 0c3.91 10.6 5.1 20.8 6 32h2v37h-2c0.0116 0.713 0.0232 1.43 0.0352 2.16 0.0712 7.56-0.577 14.4-2.49 21.7-0.939 3.69-1.73 7.41-2.54 11.1-0.164-0.955-0.164-0.955-0.332-1.93-0.22-0.683-0.441-1.37-0.668-2.07-2.96-1.24-5.84-1.97-8.99-2.61-4.05-1.87-4.96-4.5-6.51-8.45-0.587-1.37-1.18-2.74-1.78-4.1-0.289-0.662-0.577-1.32-0.875-2-1.82-3.92-4.28-7.37-6.85-10.8-0.517-0.708-1.03-1.42-1.57-2.14-1.46-1.97-2.94-3.92-4.43-5.86-0.742-0.969-1.48-1.94-2.25-2.94-1.59-2.15-1.59-2.15-3.75-3.06-1.01-1.75-2.01-3.51-2.98-5.29-1.11-1.87-2.45-3.22-4.02-4.71v-2c-0.572-0.223-1.14-0.446-1.73-0.676-2.93-1.72-4.45-3.82-6.52-6.51-5.58-7.27-5.58-7.27-12.8-12.8-2.55 0.34-2.55 0.34-5 1-2.02-0.614-4.02-1.29-6-2-3.6-0.813-3.6-0.813-7-1l-3 2-6-4c0.115-1.92 0.242-3.83 0.375-5.75 0.0696-1.07 0.139-2.13 0.211-3.23 0.387-2.82 0.971-4.6 2.41-7.02l1 2 3.19 0.188c4.68 0.998 5.82 2.59 8.55 6.32 0.416 0.494 0.833 0.987 1.26 1.5 2.07 0.149 2.07 0.149 4-1 5.87 1.78 9.8 4.57 14 9 2.67 1.32 2.67 1.32 5 2v2l10 1 0.688-4.38c0.543-2.5 0.543-2.5 1.31-4.62 2.5-1.44 2.5-1.44 5-2l2-2c2.02 0.0234 2.02 0.0234 4.38 0.375 2.98 0.428 5.59 0.625 8.62 0.625 1.95-1.79 1.95-1.79 3.62-4.19 0.886-1.17 0.886-1.17 1.79-2.36 1.67-2.4 1.67-2.4 2.61-5.13 0.977-2.32 0.977-2.32 3.98-4.32v2l2.88-1.5c3.12-1.5 3.12-1.5 5.12-1.5z" fill="#666"/>
<path transform="translate(711,552)" d="m0 0c7.65 5.37 10.9 13.5 14 22l2 3c-3.24 1.62-6.78 1.01-10.3 0.922-1.72-0.0273-3.44-0.0533-5.16-0.0781-2.71-0.0429-5.41-0.0931-8.12-0.166-10.6-0.275-19-0.268-28.4 5.32-10.2 3.41-22.3 2.11-33 2l-1-3c-8.38 1.87-8.38 1.87-16.7 4.06-5.73 1.62-11.3 2.94-17.3 2.94v2l-1.62 0.594c-6.57 2.51-12.8 5.54-19 8.76-5.16 2.64-5.16 2.64-7.36 2.64l-1 2-1.94 1.38c-2.2 1.73-3.01 3.07-4.06 5.62h-3v2c-3.49 1.6-6.15 2.48-10 2-1.69-0.962-3.35-1.97-5-3-2.1-1.23-4.21-2.46-6.31-3.69-1.07-0.623-2.14-1.25-3.24-1.89-0.808-0.471-1.62-0.941-2.45-1.43 2-3.5 3.6-5.77 7-8l-2-2 2.5-0.688c2.78-1.04 4.5-1.89 6.88-3.5 5.74-3.71 12.1-6.21 18.4-8.85 2.32-0.98 4.62-1.98 6.93-2.97 3.99-1.72 7.99-3.39 12-5.04 1.5-0.611 2.99-1.23 4.48-1.85 11-4.57 21.4-6.13 33.2-6.91 4.15-0.296 8.28-0.732 12.4-1.19 1.07-0.107 1.07-0.107 2.15-0.216 3.42-0.369 6.66-0.904 9.99-1.8 4.31-1.14 8.54-1.45 13-1.67 0.766-0.0471 1.53-0.0941 2.32-0.143 1.91-0.103 3.83-0.142 5.74-0.17l1 1c1.67 0.0438 3.33 0.0397 5 0 3 0 3 0 4.62 1.56 3.33 2.01 5.72 1.29 9.45 0.664 0.636-0.0748 1.27-0.15 1.93-0.227l1 1c1.37-2.74 1.13-4.97 1-8l-1-2h2v-2c3.25-1.62 5.4-1.47 9-1z" fill="#B5B5B5"/>
<path transform="translate(532,643)" d="m0 0c0.939 7.04 1.11 13.9 1 21l2 1 2-2c1 1 1 1 1.13 2.83-0.0153 4.73-0.21 9.39-0.633 14.1-0.473 5.68-0.612 11.3-0.625 17-0.00451 0.805-0.00902 1.61-0.0137 2.44 0.0108 4.33 0.325 8.36 1.14 12.6 0.272 2.48 0.496 4.96 0.719 7.44 0.256 2.62 0.256 2.62 0.809 5.41 0.533 3.55 0.569 6.93 0.535 10.5-0.00902 1.25-0.018 2.49-0.0273 3.77-0.0116 0.941-0.0232 1.88-0.0352 2.85-3.45-1.28-6.42-2.77-9.48-4.8-1.27-0.838-1.27-0.838-2.56-1.69-0.893-0.6-1.79-1.2-2.71-1.82-1.39-0.932-1.39-0.932-2.81-1.88-8.11-5.48-15.9-11.3-23.6-17.3-1.75-1.38-3.5-2.74-5.27-4.09-0.994-0.78-1.99-1.56-3.01-2.36-0.844-0.66-1.69-1.32-2.56-2-2.21-2.21-3.07-4.05-4-7h3l1-2-2-1c-0.287-4.97-0.0767-7.15 3-11 0.045-1.67 0.0387-3.33 0-5l1-3.25c1.17-4.38 1.18-8.26 1-12.8 1.05-0.268 2.1-0.536 3.19-0.812 3.71-0.963 3.71-0.963 6.19-2.75 2.73-1.49 3.97-1.61 7-1.75 5.34-0.444 8.08-2.83 11.6-6.69 0.864-1.05 1.72-2.12 2.56-3.19 2.84-3.27 5.93-5.81 10.4-5.81z" fill="#B6B6B6"/>
<path transform="translate(619,476)" d="m0 0c0.664 0.205 1.33 0.41 2.01 0.621 0.883 0.269 1.77 0.539 2.68 0.816 0.87 0.267 1.74 0.534 2.64 0.809 2.65 0.795 2.65 0.795 5.33 1.22 6.53 1.48 11.3 8.65 15.3 13.5-0.852 1.96-0.852 1.96-2 4-2.38 0.625-2.38 0.625-5 1-0.571 0.343-1.14 0.686-1.73 1.04-3.22 1.36-5.74 0.983-9.21 0.711-0.997-0.0775-0.997-0.0775-2.02-0.157-3.9-0.312-7.8-0.664-11.7-1.1-12.4-1.35-24.6-1.78-37.1-1.7-3.05 0.0187-6.1 0.0205-9.15 0.0203-1.95 0.0049-3.9 0.0107-5.85 0.0176-0.908 0.00111-1.82 0.00223-2.75 0.00337-0.833 0.00638-1.67 0.0128-2.52 0.0193-1.1 0.00572-1.1 0.00572-2.22 0.0116-1.91 0.0261-1.91 0.0261-3.81 1.13-1.87 0.0273-3.75 0.0465-5.62 0.0625-17 1.12-33.6 8.82-48.4 16.9-1.06 0.559-2.12 1.12-3.21 1.7-3.9 2.08-7.71 4.18-11.4 6.68-2.44 1.62-2.44 1.62-4.44 1.62v2c-2.65 1.46-3.89 2-7 2l-1 3c-5.26 4-5.26 4-9 4-1.66-0.597-3.31-1.25-4.94-1.94-3.01-1.26-5.88-2.36-9.06-3.06 1.53-4.3 4.77-6.37 8.38-8.88 0.623-0.44 1.25-0.88 1.89-1.33 4.83-3.34 9.83-6 15.1-8.5 2.24-1.12 4.02-2.25 5.96-3.79 7.51-5.7 17.5-8.59 26.3-11.5 2.35-0.851 2.35-0.851 4.18-2.45 2.85-2.02 5.63-2.64 9-3.51 3.64-0.942 6.78-1.82 10.1-3.59 3.65-1.7 6.51-1.85 10.5-1.97 6.58-0.221 11.8-0.535 16.5-5.44h3l1-2c6.3-0.0762 12.6-0.129 18.9-0.165 2.14-0.0151 4.28-0.0355 6.42-0.0615 3.08-0.0365 6.17-0.0534 9.25-0.0667 0.953-0.0155 1.91-0.031 2.89-0.0469 5.38-0.00135 8.79 0.568 13.5 3.34 3.25 0.252 3.25 0.252 6 0l2-5z" fill="#8C8E8D"/>
<path transform="translate(551 472)" d="m0 0c1.05-0.00953 2.1-0.0191 3.18-0.0289 1.14 9.11e-4 2.29 0.00182 3.46 0.00276 1.18-0.00429 2.36-0.00857 3.58-0.013 2.51-0.00576 5.02-0.00623 7.53-0.00191 3.79 0.00312 7.58-0.0201 11.4-0.0457 12.6-0.0316 24.6 0.199 36.9 3.36l0.375 1.94 0.625 2.06 2 1c-3.53 2.35-4.84 2.41-9 2-0.845-0.493-1.69-0.985-2.56-1.49-4.63-2.03-8.65-1.96-13.7-1.94-0.976-0.00524-1.95-0.0105-2.96-0.0159-2.06-0.0064-4.12-0.0051-6.17 0.00343-3.14 0.00852-6.28-0.0203-9.42-0.052-2-0.00161-4.01-0.00103-6.01 0.00195-0.935-0.0112-1.87-0.0225-2.83-0.034-6.76 0.072-10.5 1.66-15.4 6.53-4.06 1.14-8.11 1.16-12.3 1.31-5.2 0.267-9.18 0.924-13.7 3.65-3.48 1.78-7.29 2.36-11.1 3.13-3.05 0.791-3.05 0.791-5.79 2.82-3.66 2.43-7.18 3.63-11.3 4.96-9.18 3.09-17.3 7.09-25 12.9-2.05 1.38-4.16 2.35-6.41 3.38-6.82 3.29-12.5 8.1-18.4 12.8-1.71 1.36-3.41 2.71-5.12 4.06-0.683 0.548-1.37 1.1-2.07 1.66-1.8 1.28-1.8 1.28-4.8 2.28-0.293 0.589-0.585 1.18-0.887 1.79-1.47 2.92-3.46 4.52-5.93 6.65-3.52 3.09-6.93 6.2-10.2 9.56-1 1-1 1-4.82 1.1-1.58-0.00668-3.16-0.0186-4.75-0.0352-0.806-0.00451-1.61-0.00902-2.44-0.0137-2-0.0118-4-0.0298-5.99-0.0488 0.864-4.54 3.51-7.07 6.62-10.3 0.545-0.578 1.09-1.16 1.65-1.75 1.57-1.65 3.14-3.3 4.72-4.94 1.06-1.1 1.06-1.1 2.14-2.23 3.43-3.5 6.96-6.78 10.9-9.77h2v-2c1.31-1.22 1.31-1.22 3.15-2.57 1.01-0.749 1.01-0.749 2.03-1.51 0.724-0.528 1.45-1.06 2.19-1.6 0.731-0.539 1.46-1.08 2.21-1.63 2.13-1.57 4.27-3.13 6.41-4.68 1-0.728 2.01-1.46 3.04-2.21 4.52-3.21 9.13-6.07 14-8.79 1.33-0.765 2.66-1.53 3.99-2.3 13.6-7.75 27.4-14.8 42.5-18.9 2.71-0.727 2.71-0.727 5.5-2.79 1.86-0.402 3.74-0.727 5.62-1 3.73-0.57 7.39-1.19 11.1-2.06 3.81-0.897 7.56-1.32 11.5-1.59 3.66-0.681 4.61-2.6 8.87-2.62z" fill="#737373"/>
<path transform="translate(562,892)" d="m0 0c0.767 0.236 1.53 0.472 2.32 0.715 3.38 1.62 5.12 3.69 7.55 6.54 2.81 3.2 5.51 6.25 8.81 8.94 3.13 2.56 5.69 5.41 8.3 8.49 1.94 2.25 3.94 4.43 5.96 6.61 27.9 30.1 27.9 30.1 32 45.7-7.5 0-14.4-6.12-19.7-11-2.91-2.52-6.01-4.71-9.16-6.92-4.93-3.47-9.73-7.03-14.4-10.8-2.21-1.8-4.44-3.56-6.68-5.31-0.689-0.542-1.38-1.08-2.09-1.64-1.38-1.08-2.76-2.16-4.14-3.23-1.65-1.3-3.24-2.66-4.82-4.04v-2c-0.577-0.251-1.15-0.503-1.75-0.762-2.54-1.4-4.22-2.98-6.25-5.05-0.741-0.747-1.48-1.49-2.24-2.26-0.764-0.781-1.53-1.56-2.31-2.37-1.15-1.16-1.15-1.16-2.33-2.35-1.43-1.44-2.85-2.89-4.27-4.34-1.6-1.63-3.22-3.25-4.84-4.87 3-5.49 6.18-7.78 12-10 3.16-0.927 4.85-1.05 8 0z" fill="#B0B0B0"/>
<path transform="translate(648,495)" d="m0 0c3.59 4.5 6.8 9.69 9 15l-1 2c-1.33-0.265-1.33-0.265-2.69-0.535-3.34-0.662-6.67-1.32-10-1.97-1.44-0.283-2.87-0.567-4.31-0.853-7.37-1.47-14.7-2.9-22.2-3.43-1.82-0.209-1.82-0.209-3.82-1.21-3.58-0.0709-7.14 0.00334-10.7 0.0625-3.29-0.0625-3.29-0.0625-6.29-1.06-1.93-0.0945-3.87-0.131-5.8-0.133-1.14-0.00129-2.28-0.00258-3.46-0.00391-1.19 0.00387-2.38 0.00773-3.61 0.0117-1.18-0.00387-2.37-0.00773-3.59-0.0117-1.14 0.00129-2.29 0.00258-3.46 0.00391-1.04 0.00113-2.09 0.00226-3.16 0.00342-2.75 0.122-5.23 0.511-7.91 1.13-5.02 1.1-9.8 2.02-14.9 2.19-12.8 1.02-25.9 7.78-37.1 13.8-0.884 0.447-1.77 0.895-2.68 1.36-12.5 6.45-23.2 15-33.3 24.6l-2-1 2-3c-0.414-4.76-1.88-8.76-4-13 3-2 3-2 6-2v-2c2.12-1.49 4.21-2.82 6.44-4.12 1-0.594 1-0.594 2.02-1.2 7.04-4.09 14.3-7.54 21.8-10.9 1.41-0.64 2.82-1.31 4.22-1.98 11.4-5.42 23.3-9.41 35.9-9.72 2.61 0.0754 2.61 0.0754 4.62-1.11 3.01-0.125 6-0.188 9.02-0.203 0.918-0.00679 1.84-0.0136 2.78-0.0206 3-0.0171 6.01-0.0232 9.01-0.0263 1.52-0.0035 1.52-0.0035 3.08-0.00708 15-0.0131 29.7 0.681 44.6 2.6 8.35 1.1 8.35 1.1 16.5-0.344l2-2c2.39-0.598 4.54-1 7-1z" fill="#727272"/>
<path transform="translate(464,1227)" d="m0 0 1 2c0.753 0.3 1.51 0.601 2.28 0.91 2.89 1.16 4.82 2.56 7.22 4.53 2.48 2 4.72 3.69 7.5 5.25 2 1.31 2 1.31 2.88 3.19 0.125 2.12 0.125 2.12-0.438 4.75-0.144 0.784-0.289 1.57-0.438 2.38 1.93 2.22 1.93 2.22 5 3l-0.562 3.25c-0.368 3.15-0.482 4.85 0.562 7.75h2v3h2v2l2 1c2.19 2.25 2.19 2.25 4 5-0.169 3.55-1 5-3 8-10.3-0.255-19.3-3.69-28-9-1.23-0.541-2.48-1.05-3.75-1.5-0.679-0.262-1.36-0.523-2.06-0.793-2.2-0.775-2.2-0.775-4.6-1.07-2.75-0.514-4.37-0.906-6.59-2.64-1.26-3.66-1.87-7.11-2.37-10.9-0.313-1.51-0.313-1.51-0.633-3.05-0.99-0.33-1.98-0.66-3-1 0.479-3.95 1.9-6.62 3.99-9.97 1.19-2.38 1.56-4.61 2.07-7.22 0.68-2.57 0.68-2.57 1.94-4.81 3.51-2.04 7.06-3.1 11-4z" fill="#666"/>
<path transform="translate(446,1219)" d="m0 0c3.54 1.37 6.93 2.91 10.3 4.62 1.32 0.669 1.32 0.669 2.68 1.35 0.996 0.507 0.996 0.507 2.01 1.02v3c-2.91 1.26-4.8 2-8 2-0.098 0.641-0.196 1.28-0.297 1.94-0.753 4.35-1.47 8.09-3.83 11.9-1.93 3.28-2.54 4.51-1.88 8.19 0.982 2.01 1.98 4.01 3 6 0.246 1.39 0.475 2.79 0.688 4.19 0.403 2.06 0.403 2.06 1.31 3.81 2.82 1.41 5.02 2.19 8 3 4.69 1.72 9.29 3.47 13.6 6.06 7.03 3.96 14.6 5.54 22.4 6.94 1.31-2.69 2.02-4.55 1.88-7.56-1.06-2.94-2.62-4.33-4.88-6.44v-2h-2v-3h-2c-2.09-3.4-2.18-6.05-2-10l5 1v2l2.17 0.844c2.75 1.12 5.41 2.35 8.08 3.66 0.871 0.423 1.74 0.846 2.64 1.28 2.11 1.22 2.11 1.22 3.11 3.22l3 1c0.474 0.804 0.949 1.61 1.44 2.44 1.69 2.77 2.67 3.31 5.56 4.56l1 2c4.65 2.34 9.05 2.36 14.2 2.56 3.12 0.485 4.52 1.36 6.84 3.44-0.25 2.38-0.25 2.38-1 5-1.88 1.12-1.88 1.12-4 2-0.495 0.516-0.99 1.03-1.5 1.56-3.22 3.09-7.52 2.55-11.8 2.5-1.08-0.00902-2.16-0.018-3.27-0.0273-1.23-0.0174-1.23-0.0174-2.48-0.0352l1-2c-4.08-2.1-7.44-2.15-11.9-1.97-2.09-0.0273-2.09-0.0273-5.09-1.03-1.71-0.283-3.42-0.552-5.12-0.812-4.66-0.816-8.46-2.21-12.7-4.25-3.59-1.56-7.35-2.17-11.2-2.94-7.57-1.55-13-4.06-19.3-8.41-3.83-2.28-7.27-2.94-11.7-3.59-1.36-3.4-0.583-5.56 0.493-8.95 0.99-4 0.856-8.13 0.945-12.2 0.266-7.98 1.24-15.1 3.56-22.8 0.351-1.66 0.69-3.33 1-5z" fill="#737373"/>
<path transform="translate(863,656)" d="m0 0c2.36 2.36 2.49 3.78 3 7h2l-0.0625 3.06c0.0719 4.53 0.58 8.79 1.57 13.2 1.22 5.47 1.6 10.5 1.5 16.1-0.0233 5.3 0.582 10.3 2.05 15.4 1.63 5.94 1.09 12.2 0.938 18.3-3.5 1.17-4.9 0.608-8.16-0.941-6.42-3.7-8.47-8.26-10.7-15.1-1.95-5.1-5.07-9.42-8.12-13.9-13-19.9-13-19.9-13-25l1.69 0.438c0.763 0.186 1.53 0.371 2.31 0.562l2.19 0.812c4.49 0.299 8-1.54 11.8-3.81 2.94-3.01 4.88-6.38 7-10 1.32-2.01 2.66-4.01 4-6z" fill="#B0B0B0"/>
<path transform="translate(782,579)" d="m0 0c1.12 7.62 1.12 7.62 0 11l1 3c0.0256 2.54-0.00445 5.06-0.0781 7.6-0.0273 1.54-0.0533 3.08-0.0781 4.62-0.043 2.41-0.0932 4.83-0.166 7.24-0.414 12.4-0.414 12.4 4.24 23.8 1.08 1.75 1.08 1.75 1.08 3.75h2c-0.25 2.38-0.25 2.38-1 5-2.06 1.31-2.06 1.31-4 2l1-3-2.62 1.31c-3.38 0.688-3.38 0.688-6.56-0.938-4.23-3.97-4.82-9.9-5.81-15.4h-2l-1.06-2.88c-4.21-9.68-11.4-17-18.9-24.1l1-3c0.99-0.33 1.98-0.66 3-1 0.434-1.82 0.434-1.82 0.562-4 1.26-6.69 6.09-10.2 11.4-14 5.73-2.66 10.9-1.91 17-1z" fill="#666"/>
<path transform="translate(671 556)" d="m0 0c1.23-0.00121 1.23-0.00121 2.48-0.00244 5.39 0.0535 5.39 0.0535 6.52 1.19 1.66 0.364 3.33 0.7 5 1l-2 5c-1.67 0.0427-3.33 0.0406-5 0l-1-1c-2.7 0.0388-5.37 0.147-8.06 0.312-0.739 0.0354-1.48 0.0709-2.24 0.107-4.42 0.259-8.45 0.94-12.7 2.1-3.35 0.821-6.73 1.14-10.2 1.48-1.15 0.126-1.15 0.126-2.33 0.255-4.24 0.455-8.47 0.824-12.7 1.1-11.9 0.831-21.8 3.06-32.8 7.64-1.55 0.63-3.1 1.26-4.64 1.89-4 1.65-7.98 3.34-11.9 5.06-2.45 1.06-4.91 2.11-7.37 3.16-1.6 0.69-3.2 1.38-4.79 2.07-0.726 0.309-1.45 0.617-2.2 0.935-3.59 1.58-6.7 3.26-9.84 5.62-3.21 2.26-3.21 2.26-6.84 2.26-3.23-0.956-5.62-2.08-8.38-4 11-8.57 23.2-14.8 36-20.2 1.86-0.776 3.7-1.58 5.55-2.39 10.1-4.23 20.4-6.87 31.2-8.45 0.708-0.103 1.42-0.206 2.15-0.312 0.616-0.0834 1.23-0.167 1.87-0.253 2.4-0.424 2.4-0.424 5.5-1.43 3.72-1 7.06-1.4 10.9-1.63 0.669-0.0417 1.34-0.0834 2.03-0.126 2.15-0.131 4.31-0.249 6.46-0.366 1.1-0.063 1.1-0.063 2.22-0.127 9.03-0.518 18-0.927 27.1-0.935z" fill="#9E9FA0"/>
<path transform="translate(657,1248)" d="m0 0 2 2c-0.598 0.268-1.2 0.536-1.81 0.812-2.17 1.18-3.49 2.42-5.19 4.19l-2 1c-0.42 0.945-0.84 1.89-1.27 2.86-3.7 6.72-13.5 9.5-20.6 11.7-3.55 0.794-6.46 0.839-10.1 0.469-2.31-1.5-2.31-1.5-4-3h-3-29v3c-11.8 3.18-25.6 3.78-37-1-2.55-1.7-4.34-3.13-6.18-5.55-2.75-2.19-5.43-2.18-8.88-2.57-6.78-0.798-6.78-0.798-8.94-1.88v-2h-7l1-2c6.06-0.193 11.8 0.549 17.8 1.44 1.43 0.202 1.43 0.202 2.89 0.408 7.03 1.02 7.03 1.02 9.3 2.15 10.4 1.52 21.2 1.33 31.6 1.56 3.07 0.0681 6.14 0.146 9.21 0.224 1.95 0.0448 3.89 0.0891 5.84 0.133 0.92 0.0239 1.84 0.0478 2.79 0.0724 2.17 0.0435 4.34 0.0341 6.51 0.0135l1-1c2.7-0.0732 5.37-0.0924 8.06-0.0625 1.14 0.00677 1.14 0.00677 2.3 0.0137 1.88 0.0118 3.76 0.0298 5.64 0.0488l-1-2c0.996-0.182 0.996-0.182 2.01-0.367 0.883-0.168 1.77-0.335 2.68-0.508 0.87-0.162 1.74-0.325 2.64-0.492 2.71-0.64 5.1-1.59 7.68-2.63 1.93-0.508 3.87-0.986 5.81-1.44 3.64-0.881 7.14-1.83 10.6-3.19 2.92-1.13 5.45-2.1 8.56-2.38z" fill="#8E908F"/>
<path transform="translate(534 864)" d="m0 0c9.51 6.53 17.5 15.8 25.6 24 2.34 2.41 2.34 2.41 5.36 4.3v2c-0.571-0.343-1.14-0.686-1.73-1.04-3.91-1.66-7.37-0.251-11.3 1.04-4.34 1.9-7.28 4.11-10 8-1.3-1.08-2.59-2.16-3.88-3.25-0.719-0.603-1.44-1.21-2.18-1.83-1.93-1.9-2.81-3.5-3.95-5.92-1.85-1.05-1.85-1.05-4-2-2.84-2.15-5.67-4.3-8-7v-2c-0.583-0.255-1.17-0.51-1.77-0.773-2.45-1.34-4.05-2.84-5.98-4.85-0.614-0.632-1.23-1.26-1.86-1.91-0.459-0.482-0.918-0.964-1.39-1.46 2-1 2-1 3.69-1.31 2.74-0.814 4.99-2.2 7.46-3.62 0.612-0.352 1.22-0.704 1.86-1.07 0.581-0.342 1.16-0.683 1.76-1.04 3.85-2 6.41-2.34 10.3-0.293z" fill="#666"/>
<path transform="translate(773,571)" d="m0 0v2c1.11-0.0412 2.23-0.0825 3.38-0.125 3.62 0.125 3.62 0.125 5.62 2.12v4c-0.629-0.0348-1.26-0.0696-1.91-0.105-9.3-0.294-15.5 1.71-22.5 8.05-2.66 3.34-3.25 6.88-3.63 11.1l-4 1v2c-1.35-0.625-2.68-1.31-4-2l-3.12-1.5c-3.7-3.22-3.71-5.47-4.39-10.2-0.653-3.13-1.98-4.44-4.49-6.34l-3-3c0.438-2.25 0.438-2.25 2-5 10.2-6.06 29.9-8.75 40-2z" fill="#737373"/>
<path transform="translate(360 1095)" d="m0 0c4.37 0.962 5.58 3.11 8.12 6.69 0.75 0.922 0.75 0.922 1.52 1.86 1.7 2.45 2.58 4.76 3.55 7.57 0.954 2.75 1.91 5.48 3 8.18 0.938 2.38 0.938 2.38 1.88 6 0.735 3.3 0.735 3.3 2.59 4.79 1.93 2.07 1.96 3.48 2.16 6.27 0.0986 1.21 0.0986 1.21 0.199 2.45 0.0374 0.615 0.0748 1.23 0.113 1.86h3c-0.0116 0.603-0.0232 1.21-0.0352 1.83-0.00902 0.799-0.018 1.6-0.0273 2.42-0.0116 0.789-0.0232 1.58-0.0352 2.39 0.0938 2.27 0.465 4.19 1.1 6.36-5.94-0.371-10.4-2.12-15-6l-1-3 2-1c-0.742-0.825-1.48-1.65-2.25-2.5-4.06-4.88-6.43-10.6-8.83-16.4-0.756-1.73-1.57-3.43-2.41-5.12-6.08-12.5-6.08-12.5-5.52-19 1.32-3.82 1.93-4.74 5.88-5.69z" fill="#47494D"/>
<path transform="translate(777,959)" d="m0 0c2.96 1.35 5.17 2.87 7.56 5.06 3.15 2.83 6.37 5.5 9.69 8.12 6.37 5.16 12.1 10.9 17.8 16.8-0.99 0.33-1.98 0.66-3 1-1.36 8.89-1.36 8.89 0.625 17.4 1.38 3.56 1.38 3.56 0.0625 6.88-0.557 0.887-1.11 1.77-1.69 2.69v3l-2 2c-2.7-2.36-3.88-4.64-5.25-7.94-1.83-4.2-3.88-8.08-6.25-12-2.96-4.96-5.25-9.96-7.38-15.3-0.968-2.38-2.01-4.65-3.18-6.93-3.55-6.98-6.36-12.9-6.94-20.8z" fill="#9E9FA1"/>
<path transform="translate(562,892)" d="m0 0c0.767 0.236 1.53 0.472 2.32 0.715 3.38 1.62 5.12 3.69 7.55 6.54 2.88 3.29 5.67 6.37 9.06 9.12 2.74 2.22 4.46 4.43 6.06 7.62-1.01-0.248-2.02-0.495-3.06-0.75-4.72-0.3-7.29 0.98-10.9 3.75-2.9 2.48-2.9 2.48-5 5v2h-2v-2c-0.577-0.251-1.15-0.503-1.75-0.762-2.54-1.4-4.22-2.98-6.25-5.05-0.741-0.747-1.48-1.49-2.24-2.26-0.764-0.781-1.53-1.56-2.31-2.37-1.15-1.16-1.15-1.16-2.33-2.35-1.43-1.44-2.85-2.89-4.27-4.34-1.6-1.63-3.22-3.25-4.84-4.87 3-5.49 6.18-7.78 12-10 3.16-0.927 4.85-1.05 8 0z" fill="#8C8E8D"/>
<path transform="translate(782,576)" d="m0 0c1.09 0.433 2.19 0.866 3.31 1.31 9.96 3.71 20.3 5.71 30.7 7.69v2c-7.75 0.125-7.75 0.125-10-1l-1 2-1-2h-2l2 2-2 2 0.0625 2.88c-0.0625 3.12-0.0625 3.12-1.53 5.02-1.8 2.47-1.98 3.9-2.16 6.92-0.0683 0.878-0.137 1.76-0.207 2.66-0.0554 0.834-0.111 1.67-0.168 2.53-0.453 5.44-1.47 8.75-5 13h-3l-2-7h-3l0.5 3.12c0.433 3.36 0.582 6.5 0.5 9.88l-2 1v-2h-2c0.00524-1.04 0.0105-2.08 0.0159-3.15 0.0181-3.86 0.0296-7.72 0.0391-11.6 0.00502-1.67 0.0118-3.34 0.0205-5.01 0.0122-2.4 0.0178-4.81 0.0222-7.21 0.00774-1.12 0.00774-1.12 0.0156-2.26 3.7e-4 -3.43-0.162-6.49-1.11-9.79 0.298-1.34 0.633-2.68 1-4 0.0655-1.58 0.0858-3.17 0.0625-4.75-0.00902-0.799-0.018-1.6-0.0273-2.42-0.0116-0.603-0.0232-1.21-0.0352-1.83z" fill="#B0B0B0"/>
<path transform="translate(688,873)" d="m0 0c3.81 1.77 6.05 3.98 9 7 2.64 2.37 5.31 4.69 8 7-0.217 0.773-0.217 0.773-0.438 1.56-0.186 0.804-0.371 1.61-0.562 2.44-0.474 1.65-0.474 1.65-0.957 3.34-0.0465 3.96 0.0298 4.27 2.57 6.95 1.22 1.13 2.45 2.24 3.7 3.34 1.3 1.21 2.59 2.43 3.88 3.66l1.95 1.86c2.81 2.81 5.27 5.83 7.67 8.98 0.79 1.03 1.58 2.07 2.39 3.13 1.56 2.39 2.5 3.93 2.79 6.74-0.938 1.75-0.938 1.75-3 3-2.72 0.252-5.26 0.135-8 0v2c-4.37-1.46-5.62-4.82-7.81-8.62-0.444-0.764-0.889-1.53-1.35-2.32-4.04-7.12-7-14.4-9.84-22.1-3-7.89-3-7.89-7.25-15.1-2.5-4.11-2.56-8.14-2.75-12.9z" fill="#45474C"/>
<path transform="translate(506,842)" d="m0 0c7.69 4.25 14.3 9.3 21 15 0.742 0.63 1.48 1.26 2.25 1.91 1.59 1.36 3.17 2.72 4.75 4.09l-1 2c-0.547-0.375-1.09-0.75-1.66-1.14-2.38-1.14-2.38-1.14-5-0.0703-0.938 0.46-1.88 0.92-2.84 1.39-0.938 0.447-1.88 0.895-2.84 1.36-2.66 1.37-2.66 1.37-4.85 3.14-1.81 1.32-1.81 1.32-4.25 1.19-5.51-1.88-8.48-4.75-12.1-9.17-1.59-1.92-1.59-1.92-4.3-3.96-2.19-1.75-2.19-1.75-3.19-4.75h2l0.562-1.75c2.17-3.39 4.85-4.45 8.44-6.25h2l1-3z" fill="#44464B"/>
<path transform="translate(870,692)" d="m0 0c0.121 0.99 0.242 1.98 0.367 3 0.916 8.12 0.916 8.12 2.76 16.1 1.65 5.77 1.03 12 0.875 17.9-3.5 1.17-4.9 0.608-8.16-0.941-6.41-3.7-8.59-8.33-10.8-15.2-1.51-4.23-3.7-8-6.01-11.8h5l0.625-1.69c4.02-6.76 7.96-7.95 15.4-7.31z" fill="#9E9FA1"/>
<path transform="translate(429,526)" d="m0 0 4 1-2 5 6 4c-1.46 5.37-5.09 8.31-9 12l-2.62 2.69-2.38 2.31c-0.692 0.703-1.38 1.41-2.1 2.13-3.99 2.57-7.08 2.32-11.7 2.12-1.18-0.0271-1.18-0.0271-2.39-0.0547-1.93-0.0469-3.87-0.119-5.8-0.195 0.864-4.54 3.51-7.07 6.62-10.3 0.545-0.578 1.09-1.16 1.65-1.75 1.57-1.65 3.14-3.3 4.72-4.94 0.706-0.736 1.41-1.47 2.14-2.23 3.43-3.5 6.96-6.78 10.9-9.77h2v-2z" fill="#727272"/>
<path transform="translate(514,1256)" d="m0 0c6.43-0.174 12.5 0.486 18.9 1.44 0.949 0.135 1.9 0.269 2.88 0.408 6.98 1.02 6.98 1.02 9.25 2.15 9.83 1.27 19.8 1.3 29.7 1.52 1.15 0.0342 2.31 0.0683 3.5 0.104 1.56 0.0376 1.56 0.0376 3.15 0.0759 2.63 0.303 2.63 0.303 5.63 2.3l-16 1 4.38 0.938c2.41 0.517 4.41 0.957 6.62 2.06v3c-11.8 3.18-25.6 3.78-37-1-2.55-1.7-4.34-3.13-6.18-5.55-2.75-2.19-5.43-2.18-8.88-2.57-6.78-0.798-6.78-0.798-8.94-1.88v-2h-7v-2z" fill="#8E908F"/>
<path transform="translate(727,576)" d="m0 0c0.99 0.33 1.98 0.66 3 1v2l2.25 0.75c3.6 1.64 5.97 3.69 7.75 7.25 0.0402 2.33 0.0432 4.67 0 7-8.14-1.7-8.14-1.7-11.9-3-3.73-1.19-7.44-1.84-11.3-2.5-1.69-0.302-3.38-0.638-5.05-1.04-9.08-2.17-18.5-2.13-27.8-2.46v-1l7-2c0.149-2.07 0.149-2.07-1-4 1.05-0.0251 2.1-0.0501 3.18-0.0759 3.89-0.094 7.78-0.194 11.7-0.296 1.68-0.0434 3.37-0.085 5.05-0.125 2.42-0.0577 4.84-0.121 7.25-0.186 0.755-0.0167 1.51-0.0334 2.29-0.0506 3.91-0.0413 3.91-0.0413 7.56-1.27z" fill="#9E9FA1"/>
<path transform="translate(458,507)" d="m0 0v2h3c1.12 3.75 1.12 3.75 0 6 0.99 0.33 1.98 0.66 3 1-1.35 4.04-4.05 5.39-7.44 7.69-5.41 3.74-10.6 7.65-15.6 11.9-1.99 1.4-1.99 1.4-4.99 1.4-1.82-1.09-1.82-1.09-3.69-2.5-0.934-0.696-0.934-0.696-1.89-1.41-0.471-0.361-0.941-0.722-1.43-1.09l2-1c0.828-2.48 1-4.35 1-7 1.92-1.72 3.8-3.23 5.88-4.75 0.587-0.438 1.17-0.876 1.78-1.33 1.77-1.32 3.56-2.62 5.35-3.92 0.985-0.73 1.97-1.46 2.98-2.21 6.61-4.79 6.61-4.79 10-4.79z" fill="#666"/>
<path transform="translate(648,495)" d="m0 0c3.59 4.5 6.8 9.69 9 15l-1 2c-0.887-0.177-1.77-0.353-2.69-0.535-3.34-0.662-6.67-1.32-10-1.97-1.44-0.283-2.87-0.567-4.31-0.853-7.37-1.47-14.7-2.9-22.2-3.43-1.82-0.209-1.82-0.209-3.82-1.21-2.17-0.0204-4.33 0.00835-6.5 0.0625-6.1 0.0566-11.6-0.541-17.5-2.06v-1h6v-2c7.69-4.52 18.4-1.87 26.9-0.712 8.65 1.17 8.65 1.17 17.1-0.288l2-2c2.39-0.598 4.54-1 7-1z" fill="#666"/>
<path transform="translate(534 864)" d="m0 0c5.7 3.93 11 8.68 15 14.4-1.05-0.289-2.1-0.578-3.19-0.875-5.62-0.763-9.88 1.92-14.8 4.43-2.8 1.33-4.97 2.2-8.05 2.45l-3-2v-2c-0.583-0.255-1.17-0.51-1.77-0.773-2.45-1.34-4.05-2.84-5.98-4.85-0.614-0.632-1.23-1.26-1.86-1.91-0.459-0.482-0.918-0.964-1.39-1.46 2-1 2-1 3.69-1.31 2.74-0.814 4.99-2.2 7.46-3.62 0.612-0.352 1.22-0.704 1.86-1.07 0.581-0.342 1.16-0.683 1.76-1.04 3.83-1.99 6.39-2.34 10.3-0.32z" fill="#5B5B5B"/>
<path transform="translate(619,476)" d="m0 0c0.664 0.205 1.33 0.41 2.01 0.621 0.883 0.269 1.77 0.539 2.68 0.816 0.87 0.267 1.74 0.534 2.64 0.809 2.65 0.795 2.65 0.795 5.33 1.22 6.53 1.48 11.3 8.65 15.3 13.5-0.84 1.96-0.84 1.96-2 4-2.56 0.688-2.56 0.688-5 1l-1 1c-4.91 0.565-8.86 0.579-13.3-1.69-2.7-2.33-5.23-4.72-7.69-7.31l-2-2v-3h-2l-1-3 2.44-0.75 2.56-1.25c0.695-2.03 0.695-2.03 1-4z" fill="#818483"/>
<path transform="translate(446,1219)" d="m0 0c3.54 1.37 6.93 2.91 10.3 4.62 1.32 0.669 1.32 0.669 2.68 1.35 0.996 0.507 0.996 0.507 2.01 1.02v3c-2.91 1.26-4.8 2-8 2-0.098 0.641-0.196 1.28-0.297 1.94-0.753 4.35-1.47 8.09-3.83 11.9-1.93 3.28-2.54 4.51-1.88 8.19 0.982 2.01 1.98 4.01 3 6 0.997 2.73 1.52 5.09 2 8-1.17 1.79-1.17 1.79-3 3-2.26-0.145-2.26-0.145-4.69-0.812-0.808-0.213-1.62-0.425-2.45-0.645-0.615-0.179-1.23-0.358-1.86-0.543-1.36-3.4-0.583-5.56 0.493-8.95 0.99-4 0.856-8.13 0.945-12.2 0.266-7.98 1.24-15.1 3.56-22.8 0.351-1.66 0.69-3.33 1-5z" fill="#727272"/>
<path transform="translate(562,892)" d="m0 0c0.779 0.249 1.56 0.498 2.36 0.754 3.15 1.48 4.72 3.22 6.95 5.87 1.05 1.23 1.05 1.23 2.11 2.48 0.779 0.94 0.779 0.94 1.57 1.9-2 1-2 1-5.81 0.875-3.89-0.0705-5.98 0.858-9.19 3.12h-2l-2 5c-4 0-4 0-5.82-1.43-0.576-0.623-1.15-1.25-1.75-1.89-0.579-0.615-1.16-1.23-1.75-1.86-0.556-0.602-1.11-1.2-1.68-1.82-0.995-1-1.99-2.01-3-3 3-5.49 6.18-7.78 12-10 3.16-0.927 4.85-1.05 8 0z" fill="#808382"/>
<path transform="translate(782,616)" d="m0 0c0.636 3.55 1.08 7.04 1.38 10.6 0.384 3.7 1.18 5.52 3.62 8.38 0.688 2.75 0.688 2.75 1 5h2c-0.25 2.38-0.25 2.38-1 5-2.06 1.31-2.06 1.31-4 2l1-3-2.62 1.31c-3.38 0.688-3.38 0.688-6.56-0.875-4.45-4.2-4.79-10.7-5.81-16.4-0.325-1.34-0.656-2.67-1-4-0.438-2.5-0.438-2.5 0-5 4.14-3.74 6.64-4.53 12-3z" fill="#5B5B5B"/>
<path transform="translate(587 916)" d="m0 0c3.79 2.8 6.64 6.31 9.62 9.94-2.57 0.857-5.04 1.49-7.69 2.06-1.21 0.265-1.21 0.265-2.45 0.535-0.615 0.133-1.23 0.266-1.86 0.402v2h-2l-2 6c-10.2-6.47-10.2-6.47-14-11v-3h2l1-3c1.52-1.35 1.52-1.35 3.38-2.62 0.606-0.425 1.21-0.851 1.84-1.29 4.47-2.71 7.57-2.08 12.2-0.0234z" fill="#9E9FA1"/>
<path transform="translate(702,566)" d="m0 0c2.77 0.141 5.54 0.287 8.31 0.438 1.18 0.059 1.18 0.059 2.38 0.119 1.14 0.0628 1.14 0.0628 2.29 0.127 1.04 0.055 1.04 0.055 2.11 0.111 1.9 0.205 1.9 0.205 4.9 1.21 1.39 2.07 1.39 2.07 2.69 4.56 0.437 0.826 0.874 1.65 1.32 2.5 0.489 0.957 0.489 0.957 0.988 1.93-3.33 1.67-7.07 1.12-10.7 1.1-1.29-0.00212-1.29-0.00212-2.61-0.00429-2.76-0.00561-5.52-0.0182-8.28-0.0309-1.87-0.00501-3.74-0.00958-5.61-0.0137-4.59-0.011-9.18-0.0283-13.8-0.0488v-2c0.638-0.254 1.28-0.508 1.93-0.77 0.826-0.344 1.65-0.688 2.5-1.04 0.824-0.336 1.65-0.673 2.5-1.02 2.4-1.05 2.4-1.05 3.07-4.17 1.98-0.33 3.96-0.66 6-1v-2z" fill="#D2D5D4"/>
<path transform="translate(360 1095)" d="m0 0c4.37 0.962 5.58 3.11 8.12 6.69 0.529 0.588 1.06 1.18 1.6 1.78 1.89 3 1.91 5.44 2.09 8.97 0.0986 1.76 0.0986 1.76 0.199 3.55 0.0374 0.892 0.0748 1.78 0.113 2.7-4.56 3.02-4.56 3.02-8.5 2.81-5.17-2.68-6.64-6.44-8.5-11.8-1.13-4.43-1.45-7.71 0.0625-12.1 1.94-1.94 1.94-1.94 4.81-2.62z" fill="#303336"/>
<path transform="translate(484,1242)" d="m0 0c2.94 1.07 5.49 2.29 8.19 3.88 3.67 2.16 7.51 3.68 11.5 5.2 2.18 0.87 4.25 1.85 6.33 2.93l2 1c0.688 1.94 0.688 1.94 1 4l-1 2c-4.99 1.66-8.82 1.43-13.8-0.375-3.25-1.62-3.25-1.62-6.25-3.62v-2h-3v-2l-5-1c-1.24-3.58-0.749-6.34 0-10z" fill="#8D8F8E"/>
<path transform="translate(725,1049)" d="m0 0 2 2c1.62 0.114 1.62 0.114 3.27 0.23 4.96 1.02 6.47 3.17 9.42 7.08 0.919 1.16 1.84 2.33 2.76 3.49 0.43 0.55 0.859 1.1 1.3 1.67 1.62 1.99 3.39 3.77 5.25 5.53-3.87 1.49-6.2 0.34-10-1-3.6-0.813-3.6-0.813-7-1l-3 2-6-4c0.142-1.92 0.288-3.83 0.438-5.75 0.0812-1.07 0.162-2.13 0.246-3.23 0.257-2.45 0.635-4.65 1.32-7.02z" fill="#737373"/>
<path transform="translate(711,552)" d="m0 0c5.07 3.56 8.31 8.52 11 14v2c-0.555-0.0408-1.11-0.0815-1.68-0.124-2.52-0.179-5.05-0.34-7.57-0.501-0.873-0.0645-1.75-0.129-2.64-0.195-1.27-0.0773-1.27-0.0773-2.56-0.156-0.775-0.0524-1.55-0.105-2.35-0.159-2.52 0.155-3.99 0.975-6.2 2.14-2.58-0.242-2.58-0.242-5.25-0.875-0.892-0.204-1.78-0.407-2.7-0.617-1.01-0.251-1.01-0.251-2.05-0.508l1-2c2.03-0.449 2.03-0.449 4.5-0.688 0.815-0.0864 1.63-0.173 2.47-0.262 0.67-0.0168 1.34-0.0335 2.03-0.0508l1 1c1.37-2.74 1.13-4.97 1-8l-1-2h2v-2c3.25-1.62 5.4-1.47 9-1z" fill="#B0B0B0"/>
<path transform="translate(555,885)" d="m0 0 2.5 0.75c3.17 1.59 5.18 3.59 7.5 6.25v2c-0.571-0.343-1.14-0.686-1.73-1.04-3.91-1.66-7.37-0.251-11.3 1.04-4.34 1.9-7.28 4.11-10 8-1.3-1.1-2.59-2.2-3.88-3.31-0.719-0.615-1.44-1.23-2.18-1.86-1.95-1.82-1.95-1.82-3.95-4.82h2c0.405-0.438 0.81-0.877 1.23-1.33 2.45-2.31 5.02-3.21 8.15-4.42 1.12-0.449 2.24-0.897 3.4-1.36 3.34-0.923 4.96-0.892 8.23 0.109z" fill="#727272"/>
<path transform="translate(545,1351)" d="m0 0c3.37 0.547 5.08 1.05 8 3 2.51 0.456 2.51 0.456 5.19 0.625 0.901 0.0748 1.8 0.15 2.73 0.227 0.687 0.049 1.37 0.098 2.08 0.148v-3c7.43-0.286 7.43-0.286 11 2l-1 4 6 4-1.88 0.438c-2.16 0.494-2.16 0.494-4.12 1.56l1 2c-4.22-0.602-7.97-1.63-12-3-2.79-0.888-5.58-1.76-8.38-2.62-0.736-0.229-1.47-0.459-2.23-0.695-1.8-0.56-3.6-1.12-5.39-1.68 3-2 3-2 4-2l-2.5-1.38-2.5-1.62v-2z" fill="#B1B1B1"/>
<path transform="translate(577 472)" d="m0 0c2.75 0.00316 5.5-0.0204 8.25-0.0457 10.9-0.0371 21.1 0.873 31.7 3.36l0.375 1.94 0.625 2.06 2 1c-3.44 2.29-4.99 2.18-9 2v-5c-4.07-0.757-7.96-1.14-12.1-1.21-1.18-0.0199-2.36-0.0399-3.58-0.0604-1.26-0.0167-2.52-0.0334-3.82-0.0506-1.3-0.0208-2.6-0.0416-3.94-0.063-3.44-0.0549-6.88-0.104-10.3-0.153-3.52-0.0504-7.04-0.106-10.6-0.161-6.89-0.107-13.8-0.209-20.7-0.307v-1c10.4-2.09 20.5-2.34 31-2.32z" fill="#787878"/>
<path transform="translate(450,1268)" d="m0 0c5.49 0.347 9.37 0.835 14 4 5.59 2.52 11.3 4.74 17 7l2.45 1.06c3.6 1.33 7.24 1.74 11 2.28 2.75 0.721 3.83 1.4 5.52 3.66v2c-6.44-0.915-12-2.24-17.8-5.06-3.59-1.56-7.35-2.18-11.2-2.94-8.17-1.66-14.7-4.34-21-10v-2z" fill="#858786"/>
<path transform="translate(453,1211)" d="m0 0c5.61 0.66 11.2 1.32 17 2l1 3-3.31-0.0625c-3.63-0.123-3.63-0.123-6.69 1.06 0.99 3.63 1.98 7.26 3 11-4.16-1.66-7.89-3.49-11.8-5.62-0.597-0.325-1.19-0.65-1.81-0.984-1.46-0.794-2.92-1.59-4.38-2.39 0.875-4.88 0.875-4.88 2-6 1.67-0.0406 3.33-0.0427 5 0v-2z" fill="#9E9FA1"/>
<path transform="translate(360,1190)" d="m0 0 2 1c2.79 0.275 5.58 0.446 8.37 0.621 2.63 0.379 2.63 0.379 5.63 2.38l-2 10c-5.75 1-5.75 1-8 1l-2 6h-2c-0.0909-1.65-0.0909-1.65-0.184-3.32-0.0845-1.45-0.169-2.91-0.254-4.36-0.0393-0.721-0.0786-1.44-0.119-2.19-0.225-3.79-0.572-7.41-1.44-11.1z" fill="#737373"/>
<path transform="translate(379,1130)" d="m0 0c0.99 0.33 1.98 0.66 3 1l1 10h3c-0.0116 0.603-0.0232 1.21-0.0352 1.83-0.00902 0.799-0.018 1.6-0.0273 2.42-0.0116 0.789-0.0232 1.58-0.0352 2.39 0.0938 2.27 0.465 4.19 1.1 6.36-5.94-0.371-10.4-2.12-15-6l-1-3 2-1c-0.99-1.65-1.98-3.3-3-5h5v2l2-1v-2l2-1v-7z" fill="#5D5D5D"/>
<path transform="translate(777,959)" d="m0 0c3.74 1.46 3.74 1.46 4.91 3.85 0.196 0.731 0.392 1.46 0.594 2.21 1.98 6.66 4.86 12.7 8.06 18.9 2.19 4.27 3.55 8.47 4.66 13.1 0.255 0.638 0.51 1.28 0.773 1.93l3 1 1 6h-3c-4.53-5.6-7.2-12.6-9.85-19.2-0.982-2.4-2.04-4.7-3.21-7-3.55-6.98-6.36-12.9-6.94-20.8z" fill="#8D8F8E"/>
<path transform="translate(558,475)" d="m0 0c6.55-0.0255 13.1-0.0429 19.6-0.0549 2.22-0.00501 4.45-0.0118 6.67-0.0205 3.21-0.0122 6.41-0.0178 9.62-0.0222 0.987-0.00516 1.97-0.0103 2.99-0.0156 5.45-4.38e-4 10.7 0.308 16.1 1.11l-2 5c-0.775-0.326-1.55-0.652-2.35-0.988-4.77-1.32-9.16-1.26-14.1-1.21-0.99 0.00283-1.98 0.00566-3 0.00858-3.15 0.0112-6.3 0.0362-9.44 0.0617-2.14 0.01-4.28 0.0192-6.42 0.0273-5.23 0.022-10.5 0.0554-15.7 0.0977v-2l-2-2z" fill="#666"/>
<path transform="translate(782,576)" d="m0 0 3.44 1.38c4.44 1.67 8.92 2.71 13.6 3.62v2h-4l-0.188 2.25c-1.1 3.72-2.52 4.75-5.81 6.75-3.81 0.75-3.81 0.75-7 1-0.702-2.19-1.1-3.59-0.531-5.84 0.587-2.38 0.63-4.46 0.594-6.91-0.00902-0.799-0.018-1.6-0.0273-2.42-0.0116-0.603-0.0232-1.21-0.0352-1.83z" fill="#9FA0A2"/>
<path transform="translate(799,1129)" d="m0 0h2v2c6.95 1.87 6.95 1.87 14 1h4c-0.778 5.06-1.86 10-3 15-0.164-0.955-0.164-0.955-0.332-1.93-0.22-0.683-0.441-1.37-0.668-2.07-3.04-1.27-5.88-1.98-9.12-2.5-4.13-2.15-4.73-5.12-6.21-9.38-0.219-0.699-0.438-1.4-0.664-2.12z" fill="#737373"/>
<path transform="translate(584,1262)" d="m0 0c9.4-0.107 18.6 0.00737 28 1v1l-9 1 1 3c-24.9 0.455-24.9 0.455-33-2l-2-2 15-1v-1z" fill="#AFB0B0"/>
<path transform="translate(731,580)" d="m0 0c3.8 0.543 5.5 2.16 8 5 1.48 2.96 1.06 5.74 1 9-5.11-1.07-10.1-2.23-15-4l1.88-1.62c2.4-2.69 3.19-4.93 4.12-8.38z" fill="#8D8F8E"/>
<path transform="translate(685,558)" d="m0 0-2 5c-1.67 0.0427-3.33 0.0406-5 0l-1-1c-1.49-0.0166-2.98 0.0368-4.47 0.121-0.899 0.0483-1.8 0.0967-2.72 0.146-1.42 0.0841-1.42 0.0841-2.87 0.17-0.949 0.0522-1.9 0.104-2.88 0.158-2.35 0.13-4.71 0.265-7.06 0.404v-3c4.61-2.28 8.96-2.46 14-2.69 1.19-0.0706 1.19-0.0706 2.41-0.143 4.04-0.205 7.64-0.229 11.6 0.83z" fill="#8C8E8D"/>
<path transform="translate(685,577)" d="m0 0c5.75 1.75 5.75 1.75 8 4-2.59 3.32-4.93 3.49-9 4-1.94 0.0765-3.89 0.108-5.84 0.0977-1.06-0.00322-2.13-0.00645-3.22-0.00977-1.09-0.00838-2.19-0.0168-3.32-0.0254-1.12-0.00451-2.24-0.00902-3.39-0.0137-2.75-0.0117-5.49-0.0282-8.24-0.0488v-1c0.762-0.0258 1.52-0.0516 2.31-0.0781 6.28-0.345 11.2-1.12 16.8-4.08 1.94-0.84 1.94-0.84 5.94-0.84v-2z" fill="#B1B1B1"/>
<path transform="translate(700,541)" d="m0 0c2.44 0.812 2.44 0.812 5 2l1 3 4 2 1 3c-6.75 2-6.75 2-9 2v2h-3c-0.0269-1.96-0.0464-3.92-0.0625-5.88-0.0116-1.09-0.0232-2.18-0.0352-3.3 0.0977-2.82 0.0977-2.82 1.1-4.82z" fill="#8D8F8E"/>
<path transform="translate(457,667)" d="m0 0c0.248 0.516 0.495 1.03 0.75 1.56 1.15 2.35 1.15 2.35 2.34 4.12 1.16 1.82 1.16 1.82 2.91 5.32-0.625 2.38-0.625 2.38-2 4l-2 1c-1.51-0.95-3-1.91-4.5-2.88-0.835-0.534-1.67-1.07-2.53-1.62-0.65-0.498-1.3-0.995-1.97-1.51 0-2 0-2 1.38-3.56 1.62-1.44 1.62-1.44 3.62-2.44 1.13-2.02 1.13-2.02 2-4z" fill="#8C8E8D"/>
<path transform="translate(279,542)" d="m0 0h3c0.19 11.4-0.395 22.7-1 34h-2c-1.61-3.22-1.15-6.72-1.12-10.2 0.00193-0.8 0.00387-1.6 0.00586-2.43 0.0511-7.14 0.479-14.2 1.12-21.3z" fill="#25272A"/>
<path transform="translate(471,819)" d="m0 0c1 1.81 1 1.81 1 4-1.44 2.75-1.44 2.75-3 5-4.11-0.525-6.26-1.67-9.31-4.44-0.697-0.617-1.39-1.23-2.11-1.87-1.57-1.69-1.57-1.69-1.57-3.69 11.2-1.6 11.2-1.6 15 1z" fill="#1A191B"/>
<path transform="translate(813,1150)" d="m0 0c0.99 0.33 1.98 0.66 3 1 0.99-0.33 1.98-0.66 3-1 1.04 8.31 1.52 16.6 2 25h-2l-3-16-4 1c-1.47-3.81-0.433-6.29 1-10z" fill="#B1B1B1"/>
<path transform="translate(873,715)" d="m0 0h1v14c-3 1-3 1-6.56-0.0625-3.44-1.94-3.44-1.94-4.88-5.12l-0.562-2.81 10-1 1-5z" fill="#8C8E8D"/>
<path transform="translate(514,1256)" d="m0 0c6.48-0.183 12.6 0.52 19 1.5 0.966 0.143 1.93 0.286 2.93 0.434 2.36 0.35 4.72 0.706 7.07 1.07v2h-5l1 2c-2.63-0.308-5.25-0.621-7.88-0.938-0.746-0.087-1.49-0.174-2.26-0.264-5.64-0.686-5.64-0.686-7.86-1.8v-2h-7v-2z" fill="#929494"/>
<path transform="translate(784,602)" d="m0 0c2 2 2 2 2.23 4.52-0.0105 1.04-0.0209 2.07-0.0317 3.14-0.00645 1.12-0.0129 2.24-0.0195 3.4-0.0168 1.18-0.0335 2.35-0.0508 3.56-0.00902 1.18-0.018 2.37-0.0273 3.59-0.0236 2.93-0.0566 5.86-0.0977 8.79l-2 1v-2h-2v-25l2-1z" fill="#9D9EA0"/>
<path transform="translate(663,1347)" d="m0 0c4.27-0.0869 8.54-0.14 12.8-0.188 1.82-0.0377 1.82-0.0377 3.68-0.0762 1.75-0.0145 1.75-0.0145 3.53-0.0293 1.07-0.0157 2.15-0.0314 3.25-0.0476 2.73 0.341 2.73 0.341 4.6 1.86 0.372 0.489 0.743 0.978 1.13 1.48-1.05 0.0909-1.05 0.0909-2.12 0.184-0.91 0.0838-1.82 0.168-2.76 0.254-0.905 0.0812-1.81 0.162-2.74 0.246-2.39 0.186-2.39 0.186-4.38 1.32-3.06 0.125-3.06 0.125-6 0l-1-1c-1.51-0.232-3.04-0.412-4.56-0.562-0.826-0.0838-1.65-0.168-2.5-0.254-0.638-0.0606-1.28-0.121-1.93-0.184l-1-3z" fill="#C3C4C4"/>
<path transform="translate(786,627)" d="m0 0 1 3h2v-2l2 1c0.457 1.78 0.457 1.78 0.812 3.94 0.421 2.16 0.421 2.16 1.19 4.06 2.48 1.6 2.48 1.6 5 2v1h-10c-4.15-8.04-4.15-8.04-5-12l2 1 1-2z" fill="#B1B1B2"/>
<path transform="translate(464,1227)" d="m0 0 1 2c1.13 0.451 1.13 0.451 2.28 0.91 2.89 1.16 4.82 2.56 7.22 4.53 2.48 2 4.72 3.69 7.5 5.25 2 1.31 2 1.31 2.88 3.19 0.149 2.53-0.262 4.67-0.875 7.12-3.5-2.33-4.34-4.2-6-8v-2h-2v-2l-1.69-0.812c-2.52-1.3-4.95-2.61-7.31-4.19v-2l-5-1 2-1v-2z" fill="#747474"/>
<path transform="translate(777,959)" d="m0 0c2.46 0.962 3.73 1.47 4.94 3.88 0.205 0.74 0.41 1.48 0.621 2.24 0.924 3.17 1.94 6.2 3.19 9.25 1.25 3.62 1.25 3.62 0.25 6.62h-2c-3.26-7.25-5.83-14.1-7-22z" fill="#737474"/>
<path transform="translate(484,1242)" d="m0 0c3.23 0.961 4.76 1.69 6.88 4.38 1.25 2.91 1.12 3.73 0.125 6.62l1 2h-3v-2l-5-1c-1.24-3.58-0.749-6.34 0-10z" fill="#818483"/>
<path transform="translate(821,1189)" d="m0 0c0.99 0.33 1.98 0.66 3 1 0.058 3.6 0.0936 7.21 0.125 10.8 0.0168 1.02 0.0335 2.05 0.0508 3.1 0.00645 0.983 0.0129 1.97 0.0195 2.98 0.0105 0.906 0.0209 1.81 0.0317 2.75-0.227 2.36-0.227 2.36-2.23 5.36-0.775-3.43-1.12-6.57-1.1-10.1 0.00322-0.931 0.00645-1.86 0.00977-2.82 0.00838-0.96 0.0168-1.92 0.0254-2.91 0.00451-0.979 0.00902-1.96 0.0137-2.97 0.0117-2.41 0.0282-4.81 0.0488-7.22z" fill="#B1B1B1"/>
<path transform="translate(600,1368)" d="m0 0v2h2l1-2 7 2c-0.99 0.33-1.98 0.66-3 1v3c0.99 0.33 1.98 0.66 3 1-5.57-0.48-10.7-1.3-16-3l-1-4c3.13-1.04 3.99-0.934 7 0z" fill="#A9A9AA"/>
<path transform="translate(528,1209)" d="m0 0h3v3c-9.11 1.93-17.8 2.88-27 1l1-2c0.992-0.0376 0.992-0.0376 2-0.0759 2.98-0.116 5.96-0.238 8.93-0.362 1.56-0.059 1.56-0.059 3.15-0.119 1.48-0.0628 1.48-0.0628 3-0.127 1.37-0.055 1.37-0.055 2.78-0.111 2.12 0.0246 2.12 0.0246 3.13-1.21z" fill="#1A191B"/>
<path transform="translate(490,417)" d="m0 0h21v3h-21v-3z" fill="#2A292B"/>
<path transform="translate(602,1261)" d="m0 0c1.6-0.0812 3.21-0.139 4.81-0.188 1.34-0.0522 1.34-0.0522 2.71-0.105 2.9 0.342 3.71 1.05 5.48 3.29-1.56 2-1.56 2-4 4-3.75 0.25-3.75 0.25-7 0l-1-3-2-1 1-3z" fill="#9E9FA1"/>
<path transform="translate(646,492)" d="m0 0v4c-2 0.68-4 1.34-6 2-0.701 0.268-1.4 0.536-2.12 0.812-1.88 0.188-1.88 0.188-4.12-1.25l-1.75-1.56c7.94-5.47 7.94-5.47 14-4z" fill="#8D8F8E"/>
<path transform="translate(453,1211)" d="m0 0c5.61 0.66 11.2 1.32 17 2l1 3-3.31-0.0625c-3.63-0.123-3.63-0.123-6.69 1.06-0.733 2.02-0.733 2.02-1 4l-1.25-2.38c-1.79-2.68-2.8-3.51-5.75-4.62v-3z" fill="#898B8A"/>
<path transform="translate(776,508)" d="m0 0 2 1c-0.0116 0.82-0.0232 1.64-0.0352 2.48-0.00902 1.08-0.018 2.16-0.0273 3.27-0.0116 1.07-0.0232 2.13-0.0352 3.23 0.0835 2.58 0.431 4.56 1.1 7.02 0.0389 2.33 0.0449 4.67 0 7h-2c-1.68-8.17-3.06-15.8-1-24z" fill="#8A8D8C"/>
<path transform="translate(484,1281)" d="m0 0c2.11 0.255 4.21 0.53 6.31 0.812 1.17 0.151 2.34 0.302 3.55 0.457 3.13 0.728 4.33 1.13 6.14 3.73v2c-1.73-0.285-3.46-0.578-5.19-0.875-0.963-0.162-1.93-0.325-2.92-0.492-2.8-0.613-5.27-1.49-7.89-2.63v-3z" fill="#8D8F8E"/>
<path transform="translate(688,873)" d="m0 0 4 2v4h2c0.778 3.41 1.1 6.51 1 10-2.36-0.945-3.73-1.56-5.09-3.75-1.03-2.56-1.31-4.75-1.53-7.5-0.0748-0.892-0.15-1.78-0.227-2.7-0.049-0.675-0.098-1.35-0.148-2.05z" fill="#303336"/>
<path transform="translate(856,586)" d="m0 0 2 4h-2l-2 5c-0.99-0.33-1.98-0.66-3-1-0.688-2.06-0.688-2.06-1-4h-2l1-3c2.46-1.23 4.28-1.07 7-1z" fill="#AEAEAE"/>
<path transform="translate(620,957)" d="m0 0c4.18 3.46 5.33 6.98 7 12-3.69 0-5.78-1.28-9-3v-3h2v-6z" fill="#9E9FA1"/>
<path transform="translate(470,1212)" d="m0 0h22l-1 2c-7.05 1.49-13.9 0.705-21 0v-2z" fill="#181719"/>
<path transform="translate(616 1370)" d="m0 0c1.06-0.0142 2.13-0.0284 3.22-0.043 2.71 0.23 2.71 0.23 4.71 2.23l-3.19-0.188c-4.08 0.201-5.43 1.14-8.81 3.19-2.81-0.312-2.81-0.312-5-1v-3c3.22-1.07 5.67-1.17 9.06-1.19z" fill="#B2B2B2"/>
<path transform="translate(441,1267)" d="m0 0c1.81 0.234 1.81 0.234 4 0.75l2.19 0.484 1.81 0.766 1 3-2 1c-0.656 2.53-0.656 2.53-1 5h-2c-0.716-1.73-1.43-3.45-2.15-5.18-0.92-2.09-0.92-2.09-2.85-4.82l1-1z" fill="#9A9B9C"/>
<path transform="translate(450,1268)" d="m0 0c1.44 0.0875 2.88 0.196 4.31 0.312 0.801 0.058 1.6 0.116 2.43 0.176 2.62 0.594 3.57 1.47 5.26 3.51l-2 2c-4.18-0.273-6.95-1.07-10-4v-2z" fill="#808382"/>
<path transform="translate(379,1195)" d="m0 0c2.31 0.33 4.62 0.66 7 1 1 3 1 3 0.0625 5.19-0.526 0.897-0.526 0.897-1.06 1.81-2.97-0.495-2.97-0.495-6-1v-7z" fill="#737373"/>
<path transform="translate(822,1087)" d="m0 0h2c0.169 2.4 0.335 4.79 0.5 7.19 0.0477 0.674 0.0954 1.35 0.145 2.04 0.246 3.6 0.411 7.17 0.355 10.8-0.99-0.33-1.98-0.66-3-1v-19z" fill="#B4B4B4"/>
<path transform="translate(820,1075)" d="m0 0h3c0.0272 1.9 0.0465 3.79 0.0625 5.69 0.0116 1.06 0.0232 2.11 0.0352 3.2-0.089 2.84-0.448 5.36-1.1 8.11-2-2-2-2-2.2-5.48 0.0133-1.38 0.0372-2.77 0.0703-4.15 0.00902-0.706 0.018-1.41 0.0273-2.14 0.0236-1.74 0.0595-3.49 0.0977-5.23z" fill="#7D7F7E"/>
<path transform="translate(613,475)" d="m0 0 5 1v3l2 1c-3.44 2.29-4.99 2.18-9 2v-5h2v-2z" fill="#727272"/>
<path transform="translate(685,558)" d="m0 0-2 5c-2.25 0.312-2.25 0.312-5 0-2.31-2.5-2.31-2.5-4-5 4.02-0.841 7.02-1.05 11 0z" fill="#6D6D6D"/>
<path transform="translate(736,1127)" d="m0 0c2 2 2 2 2.27 4.28-0.00516 0.878-0.0103 1.76-0.0156 2.66 0.00516 0.875 0.0103 1.75 0.0156 2.65-0.266 2.41-0.266 2.41-2.27 5.41v-5h-2v-9l2-1z" fill="#949695"/>
<path transform="translate(786,978)" d="m0 0c4.18 3.46 5.33 6.98 7 12l-2 1c-2.63-2.38-4.47-4.79-6-8 0.312-2.81 0.312-2.81 1-5z" fill="#818483"/>
<path transform="translate(378,1147)" d="m0 0c1.32 0.397 2.63 0.818 3.94 1.25 0.731 0.232 1.46 0.464 2.21 0.703 1.85 1.05 1.85 1.05 2.6 3.16 0.0812 0.624 0.162 1.25 0.246 1.89-6.52-0.492-6.52-0.492-8.94-3.06-0.526-0.959-0.526-0.959-1.06-1.94l1-2z" fill="#45474C"/>
<path transform="translate(637,560)" d="m0 0c-5.55 2.48-10.2 1.85-16 1v-2c5.51-1.38 11.1-2.24 16 1z" fill="#8D8F8E"/>
<path transform="translate(279,542)" d="m0 0h3c0.0272 2.06 0.0465 4.12 0.0625 6.19 0.0116 1.15 0.0232 2.3 0.0352 3.48-0.0857 2.93-0.419 5.5-1.1 8.33h-1c-0.77-6.07-1.1-11.9-1-18z" fill="#414345"/>
<path transform="translate(670,417)" d="m0 0c1.94-0.0811 3.87-0.139 5.81-0.188 1.08-0.0348 2.16-0.0696 3.27-0.105 2.92 0.293 2.92 0.293 5.92 3.29h-15v-3z" fill="#2D2E2F"/>
<path transform="translate(515,1289)" d="m0 0c2.48 0.113 4.96 0.24 7.44 0.375 0.707 0.0309 1.41 0.0619 2.14 0.0938 1.81 0.104 3.62 0.31 5.42 0.531l1 2c-3.29 1.1-5.74 1.1-9.19 1.06-1.63-0.0135-1.63-0.0135-3.29-0.0273-0.831-0.0116-1.66-0.0232-2.52-0.0352l1-2-2-2z" fill="#848786"/>
<path transform="translate(372,1142)" d="m0 0h5l1 7c-4 0-4 0-5.75-1.5l-1.25-1.5 2-2-1-2z" fill="#909191"/>
<path transform="translate(696,531)" d="m0 0h2c0.366 1.56 0.718 3.12 1.06 4.69 0.197 0.87 0.394 1.74 0.598 2.64 0.36 2.84 0.0489 4.92-0.66 7.68-0.99-0.33-1.98-0.66-3-1v-14z" fill="#616161"/>
<path transform="translate(388,1198)" d="m0 0 10 2 1 3c-3.25 1.02-4.59 1.19-7.75-0.25-2.25-1.75-2.25-1.75-3.25-4.75z" fill="#757676"/>
<path transform="translate(381,584)" d="m0 0h4l-1 5h-3l-1 4h-3l-1-3 1.94-1.88c2.1-1.95 2.1-1.95 3.06-4.12z" fill="#8F9190"/>
<path transform="translate(702,566)" d="m0 0v2c-3.38 1.13-4.77 0.818-8.19 0.0625-0.901-0.195-1.8-0.389-2.73-0.59-0.687-0.156-1.37-0.312-2.08-0.473l1-2c4.69-1.08 7.69-1.22 12 1z" fill="#888B8A"/>
<path transform="translate(401,1255)" d="m0 0c5.96-0.293 5.96-0.293 8 0l3 3-15 1-1-2h5v-2z" fill="#A5A6A8"/>
<path transform="translate(464,1227)" d="m0 0 1 2 2.19 0.812c3.65 1.54 5.91 3.49 8.81 6.19v2c-3.11-1.5-6.12-3.08-9-5v-2l-5-1 2-1v-2z" fill="#777878"/>
<path transform="translate(645,1014)" d="m0 0c1.78 3.06 2.23 5.22 2.12 8.75-0.018 0.799-0.0361 1.6-0.0547 2.42-0.0348 0.905-0.0348 0.905-0.0703 1.83l-3-2c-0.125-2.88-0.125-2.88 0-6-0.439-2.27-0.439-2.27-1-4l2-1z" fill="#28292B"/>
<path transform="translate(600,1368)" d="m0 0 1 5c-2.31-0.33-4.62-0.66-7-1l-1-4c3.13-1.04 3.99-0.934 7 0z" fill="#ABABAC"/>
<path transform="translate(528,1209)" d="m0 0h3v3c-3.62 1.21-6.93 1.11-10.7 1.06-0.702-0.00451-1.4-0.00902-2.13-0.0137-1.73-0.0118-3.46-0.0297-5.19-0.0488l1-2c2.91-0.379 2.91-0.379 6.5-0.562 4.07 0.145 4.07 0.145 7.5-1.44z" fill="#545658"/>
<path transform="translate(635,982)" d="m0 0c3.43 3.76 4.56 8.23 6 13-3-1-3-1-4.69-4.25-1.15-3.29-1.62-5.34-1.31-8.75z" fill="#565759"/>
<path transform="translate(898,1122)" d="m0 0c1.13 3.38 0.738 5.56 0 9-0.0377 2-0.0465 4 0 6-2.76-2.76-2.97-4.64-3.25-8.5 0.25-3.5 0.25-3.5 1.75-5.44l1.5-1.06z" fill="#B1B1B1"/>
<path transform="translate(602,1261)" d="m0 0c1.6-0.0812 3.21-0.139 4.81-0.188 1.34-0.0522 1.34-0.0522 2.71-0.105 2.9 0.342 3.71 1.05 5.48 3.29-0.99 0.33-1.98 0.66-3 1v-2h-11l1-2z" fill="#9D9EA0"/>
<path transform="translate(428,1207)" d="m0 0c2.97 0.33 5.94 0.66 9 1l-1 3c-2.97-0.33-5.94-0.66-9-1l1-3z" fill="#717171"/>
<path transform="translate(403,1203)" d="m0 0c3.95-0.179 6.6-0.0935 10 2v2c-6.62 0.25-6.62 0.25-10-2v-2z" fill="#757575"/>
<path transform="translate(782,576)" d="m0 0 8 3v2l-5-1-1 5h-2v-9z" fill="#949696"/>
<path transform="translate(776,508)" d="m0 0 2 1c0.027 1.46 0.0464 2.92 0.0625 4.38 0.0116 0.812 0.0232 1.62 0.0352 2.46-0.0977 2.16-0.0977 2.16-1.1 4.16h-2c-0.0816-4.16 0.0175-7.95 1-12z" fill="#A2A3A3"/>
<path transform="translate(361,1120)" d="m0 0c0.99 0.33 1.98 0.66 3 1 0.73 2.07 0.73 2.07 1.19 4.56 0.159 0.826 0.317 1.65 0.48 2.5 0.11 0.638 0.219 1.28 0.332 1.93-0.99-0.33-1.98-0.66-3-1-0.73-2.07-0.73-2.07-1.19-4.56-0.159-0.826-0.317-1.65-0.48-2.5-0.164-0.957-0.164-0.957-0.332-1.93z" fill="#545557"/>
<path transform="translate(724,1065)" d="m0 0c1.94 1.06 1.94 1.06 4 3 0.75 3.69 0.75 3.69 1 7-5.74-5.29-5.74-5.29-6-9l1-1z" fill="#D3D6D5"/>
<path transform="translate(551 1357)" d="m0 0c1.09 0.383 2.18 0.766 3.3 1.16 1.64 0.57 1.64 0.57 3.32 1.15 0.843 0.3 1.69 0.601 2.55 0.91v2c-1.96-0.45-3.92-0.91-5.88-1.38-1.09-0.255-2.18-0.51-3.3-0.773-2.82-0.852-2.82-0.852-4.82-2.85 2-1 2-1 4.82-0.223z" fill="#ACADAD"/>
<path transform="translate(689,1347)" d="m0 0c1.88 1.5 1.88 1.5 3 3-8.43 1.43-8.43 1.43-13-1 3.4-2.09 6.04-2.42 10-2z" fill="#D3D6D5"/>
<path transform="translate(461,1213)" d="m0 0h9l1 3h-10v-3z" fill="#C0C2C2"/>
<path transform="translate(784,619)" d="m0 0c2.09 3.4 2.18 6.05 2 10l-2 1v-2h-2c0.875-7.88 0.875-7.88 2-9z" fill="#8E908F"/>
<path transform="translate(691,466)" d="m0 0h1c0.756 5.23 1.21 9.77 0 15-2.33-2.33-2.39-3.19-2.75-6.38-0.098-0.771-0.196-1.54-0.297-2.34 0.0533-2.61 0.729-4.07 2.05-6.29z" fill="#353739"/>
</svg>
