<?xml version="1.0" encoding="UTF-8"?>
<svg version="1.1" viewBox="0 0 1600 304" xmlns="http://www.w3.org/2000/svg">
<path transform="translate(0)" d="m0 0h1600v304h-1600v-304z" fill="#FAFEFE"/>
<path transform="translate(1141,11)" d="m0 0c10.8 5.04 16.6 14.9 22 25 0.99 1.67 1.98 3.34 3 5 2.75-1.53 4.95-2.95 7.19-5.19l1.81-1.81h2c0.251-0.589 0.503-1.18 0.762-1.79 1.39-2.49 2.86-3.84 5.05-5.65 3.22-2.73 6.24-5.54 9.19-8.56 2.61-2.67 4.89-4.93 8-7 11.9 0.989 22.9 4.74 33 11 0.81 0.494 1.62 0.987 2.45 1.5 1.86 1.15 3.71 2.32 5.55 3.5 2.25-1.91 4.5-3.83 6.75-5.75 0.951-0.808 0.951-0.808 1.92-1.63 3.24-2.76 6.38-5.55 9.33-8.62 9.17 2.78 15 10.9 19.6 18.8 9.07 17.1 7.5 37.1 7.62 56 0.0216 3.29 0.0486 6.58 0.0767 9.88 0.0492 5.86 0.0938 11.7 0.137 17.6 0.118 16.1 0.247 32.2 0.423 48.2 0.0762 7.14 0.126 14.3 0.16 21.4 0.0279 4.75 0.0764 9.49 0.13 14.2 0.0211 2.25 0.0337 4.5 0.0372 6.75 0.00608 3.1 0.0427 6.21 0.0866 9.31-0.00552 0.915-0.011 1.83-0.0167 2.77 0.0959 4.49 0.258 6.36 3.1 10 2.81 2.07 3.94 2.52 7.36 2.3 0.779-0.0335 1.56-0.067 2.36-0.102 1.9-0.082 1.9-0.082 2.89-1.27 2-0.0408 4-0.0425 6 0 4.05 6.38 4.05 6.38 3.83 9.03-1.02 2.41-2.21 3.55-4.21 5.22-0.606 0.521-1.21 1.04-1.84 1.58-1.79 1.17-1.79 1.17-4.79 1.17-0.229 0.588-0.459 1.18-0.695 1.78-1.65 2.8-3.47 3.95-6.18 5.72-3.43 2.26-6.28 4.54-9.12 7.5-5.5 5-5.5 5-8 5l-1 3c-1.64 1.04-3.31 2.04-5 3-1.02 0.978-2.02 1.98-3 3-1.11 1.1-2.23 2.19-3.38 3.25-0.565 0.541-1.13 1.08-1.71 1.64-1.91 1.11-1.91 1.11-4.36 1.01-7.83-2.76-14-10.8-17.6-18-4.27-9.23-7.02-18.1-7.07-28.4-0.00834-1.28-0.0167-2.57-0.0253-3.89-0.00431-1.41-0.00853-2.82-0.0127-4.23-0.00795-1.5-0.0163-2.99-0.0251-4.49-0.018-3.21-0.033-6.43-0.0458-9.64-0.0203-5.1-0.0479-10.2-0.0767-15.3-0.06-10.8-0.112-21.7-0.163-32.5-0.0552-11.7-0.112-23.3-0.178-35-0.0281-5.05-0.0518-10.1-0.0719-15.2-0.0135-3.16-0.0309-6.33-0.0493-9.49-0.00766-1.45-0.0138-2.9-0.0181-4.36-0.0285-9.22-0.408-18.3-1.18-27.5h-2v2c-1.61 1.59-1.61 1.59-3.75 3.38-2.87 2.44-5.64 4.9-8.25 7.62-3.89-1.26-5.89-2.45-8-6v-2c-0.99-0.33-1.98-0.66-3-1-2.69-2.44-2.69-2.44-5-5v-2l-1.73-0.844c-2.23-1.14-4.37-2.36-6.52-3.66-0.706-0.423-1.41-0.846-2.14-1.28l-1.61-1.22v-2c-2.33-0.685-4.66-1.35-7-2l-2.5-0.938c-4.05-0.101-6.54 2.36-9.5 4.94-0.688 0.548-1.38 1.1-2.08 1.66-2.61 3.19-2.38 5.21-2.31 9.29 0.00849 0.99 0.00849 0.99 0.0172 2 0.0223 2.1 0.0725 4.2 0.123 6.3 0.0201 1.43 0.0383 2.85 0.0547 4.28 0.044 3.49 0.113 6.98 0.195 10.5 5.66 0.818 11.1 1.11 16.8 1.03 1.65-0.0126 3.3-0.025 4.95-0.0371 2.57-0.025 5.15-0.0531 7.72-0.0862 2.5-0.0301 5.01-0.0479 7.51-0.0642 0.774-0.0135 1.55-0.0269 2.35-0.0408 1.89-0.00893 3.78 0.0871 5.66 0.201 2 2 2 2 2.19 5.94-0.038 4.07-0.544 6.38-3.44 9.44l-2.75 2.62-2.5 2.5c-18.5 18.5-18.5 18.5-20.5 18.6-0.875-0.00524-1.75-0.0105-2.65-0.0159-0.944-0.00322-1.89-0.00645-2.86-0.00977-0.993-0.00838-1.99-0.0168-3.01-0.0254-0.997-0.00451-1.99-0.00902-3.02-0.0137-2.47-0.0118-4.94-0.0283-7.42-0.0488 0.0613 10.8 0.138 21.7 0.236 32.5 0.0447 5.03 0.0839 10.1 0.111 15.1 0.0261 4.86 0.0665 9.71 0.117 14.6 0.0166 1.85 0.0282 3.7 0.0344 5.55 0.00966 2.6 0.0377 5.19 0.07 7.79-0.00144 0.76-0.00287 1.52-0.00435 2.3 0.089 5.09 1.03 8.69 3.44 13.2 2.97 2.06 4.74 3.13 8.38 2.75l2.62-0.75c1.43-0.207 2.87-0.393 4.31-0.562 1.83-0.217 1.83-0.217 3.69-0.438 0.842 1.1 1.67 2.2 2.5 3.31 0.464 0.615 0.928 1.23 1.41 1.86 1.09 1.82 1.09 1.82 1.09 4.82-2.01 1.65-2.01 1.65-4.69 3.38-3.89 2.61-7.04 5.27-10.3 8.62-2.38 1.98-4.81 3.9-7.24 5.81-2.87 2.28-5.69 4.6-8.51 6.94-2.85 2.34-5.66 4.62-8.75 6.62-2.21 1.43-3.69 2.76-5.5 4.62-5.92 5.89-5.92 5.89-9.5 6.25-11.2-5.61-16.7-16.9-21.2-28-4.26-13-3.58-27.1-3.64-40.6-0.0162-2.13-0.0334-4.26-0.0515-6.39-0.0453-5.56-0.0803-11.1-0.112-16.7-0.0522-8.95-0.117-17.9-0.188-26.8-0.0229-3.12-0.0391-6.25-0.0547-9.37-0.0134-1.9-0.027-3.79-0.0409-5.69-0.00261-0.872-0.00523-1.74-0.00792-2.64 0.342-3.84 0.342-3.84-1.17-7.06-2.8-0.148-5.57-0.235-8.38-0.281-0.84-0.0184-1.68-0.0368-2.54-0.0558-2.69-0.0589-5.39-0.112-8.08-0.163-3.54-0.0674-7.08-0.141-10.6-0.219-0.823-0.0136-1.65-0.0272-2.49-0.0411-5.77-0.127-5.77-0.127-6.88-1.24-1.13-12.4-1.13-12.4 2.19-17.1l2.81-1.88 2.5-2.12c2.5-1.88 2.5-1.88 5.12-3.44 2.32-1.27 2.32-1.27 3.73-2.81 5.13-5.07 11.8-9.47 18.6-11.6 2.94 0.312 2.94 0.312 5 1 0.108-5.45 0.0245-10.9-0.312-16.3-0.058-0.966-0.116-1.93-0.176-2.93-0.709-3.83-2.59-6.42-4.76-9.57-2.98-2.02-5.21-1.58-8.75-1.19-2.59 0.968-5.08 2.04-7.57 3.22-2.92 0.936-4.53 0.732-7.43-0.223-2.15-2.58-3.07-4.03-2.83-7.42 1.04-3.24 2.43-4.47 5.02-6.64 0.812-0.687 1.62-1.37 2.46-2.08 1.85-1.46 3.69-2.82 5.66-4.11 2.63-1.71 4.51-3.51 6.69-5.75 5.53-5 5.53-5 8-5l1-3 2.44-0.938c2.68-0.776 2.68-0.776 3.45-2.9 1.4-2.72 3.06-3.94 5.49-5.79 4.15-3.22 8.22-6.5 12.2-9.88 0.533-0.446 1.07-0.891 1.61-1.35 1.25-1.05 2.51-2.1 3.76-3.15z" fill="#000002"/>
<path transform="translate(846 97.1)" d="m0 0c8.93 3.86 14.7 13.5 19 21.9 1.68 4.27 2.97 8.53 4 13l0.562 2.27c0.796 4.98 0.841 10 1.04 15 0.0561 1.24 0.0561 1.24 0.113 2.51 0.0303 0.754 0.0606 1.51 0.0918 2.28 0.0849 1.98 0.0849 1.98 1.19 3.89 0.364-0.545 0.727-1.09 1.1-1.65 1.06-1.6 2.13-3.19 3.19-4.79 1.07-1.6 2.13-3.21 3.2-4.81 1.49-2.26 3-4.5 4.51-6.75 0.499-0.746 0.998-1.49 1.51-2.26 16.1-23.5 16.1-23.5 25.5-29.7h2c0.211-0.594 0.423-1.19 0.641-1.8 1.86-3.01 3.94-3.85 7.11-5.39 1.03-0.509 2.05-1.02 3.11-1.54 6.77-2.73 13.6-2.81 20.8-1.71 6.14 2.62 9.74 8.03 12.4 14 5.26 13.6 5.64 26.6 5.8 41.1-0.0133 2.39-0.0133 2.39 1.14 4.38 0.326-0.638 0.652-1.28 0.988-1.93 0.437-0.826 0.874-1.65 1.32-2.5 0.429-0.824 0.859-1.65 1.3-2.5 1.39-2.07 1.39-2.07 4.39-3.07 0.0606-0.687 0.121-1.37 0.184-2.08 1.09-3.9 3.34-6.54 5.88-9.61 0.493-0.609 0.986-1.22 1.49-1.85 1-1.24 2-2.47 3.01-3.7 2.68-3.31 5.27-6.7 7.88-10.1 0.514-0.559 1.03-1.12 1.56-1.7h2c0.389-0.889 0.389-0.889 0.785-1.8 2.17-3.94 5.75-6.41 9.21-9.2 0.877-0.713 1.75-1.43 2.66-2.16 7.86-6.09 14.3-8.58 24.3-7.84 5.94 0.848 8.77 3.14 12.4 7.64 2.58 3.87 4.07 7.99 5.57 12.4 0.343 0.782 0.686 1.56 1.04 2.37 6.56 18 3.82 41.4 4.12 60.3 0.054 3.48 0.111 6.96 0.169 10.4 0.0764 4.62 0.139 9.24 0.194 13.9 0.0333 2.15 0.0671 4.3 0.101 6.45 0.00837 0.991 0.0167 1.98 0.0254 3 0.0364 6.54 0.0364 6.54 2.35 12.6 5.57 3.71 12.6 2.08 19 1 0.867 1.26 1.72 2.54 2.56 3.81 0.476 0.708 0.951 1.42 1.44 2.14 0.996 2.04 0.996 2.04-0.00391 5.04-1.33 0.333-2.67 0.667-4 1l-1 3c-1.32 0.685-2.66 1.35-4 2-1.36 1.31-2.69 2.65-4 4-1.98 1.69-3.98 3.35-6 5l-2.75 2.31c-2.25 1.69-2.25 1.69-4.25 1.69v2h-3c-0.371 0.959-0.371 0.959-0.75 1.94-1.58 2.61-2.42 2.35-5.25 3.06-0.699 1.32-1.37 2.65-2 4-0.99 0.33-1.98 0.66-3 1-1.36 1.31-2.69 2.65-4 4-1.15 1.12-2.32 2.23-3.5 3.31-0.567 0.532-1.13 1.06-1.72 1.61-1.78 1.07-1.78 1.07-3.76 0.934-8.52-3.62-14.7-13-19-20.9-0.954-2.54-1.82-5.04-2.62-7.62-0.217-0.648-0.433-1.3-0.656-1.96-3.25-10.3-2.86-21.3-2.89-32-0.0105-1.38-0.0219-2.76-0.0342-4.14-0.0519-5.8-0.1-11.6-0.116-17.4-0.0101-3.57-0.0395-7.14-0.0813-10.7-0.0181-2-0.0157-4-0.0128-6.01-0.0965-7.17-0.259-12.8-5.58-18.1-1.52-0.0718-3.04-0.0839-4.56-0.0625-0.826 0.00902-1.65 0.018-2.5 0.0273-0.638 0.0116-1.28 0.0232-1.93 0.0352v2c-2.09 2.2-4.23 4.31-6.49 6.34-1.88 2.07-3.02 4.24-4.32 6.72-2.44 4.6-5.03 9.04-7.79 13.5-3.92 6.99-4.87 12-4.77 20-0.0174 1.37-0.0174 1.37-0.0352 2.76 0.0246 5.68 0.687 9.73 3.41 14.7 2.13 2.23 2.13 2.23 5 3 3.44-0.781 3.44-0.781 7-2 2.33-0.074 4.67-0.0952 7 0 3.04 5.23 3.04 5.23 2.86 8.48-1.1 3.21-2.49 4.2-5.24 6.14-2.77 1.99-5.26 3.92-7.62 6.38-1.98 1.7-3.97 3.36-6 5-0.766 0.62-1.53 1.24-2.32 1.88-0.802 0.638-1.6 1.28-2.43 1.93-0.758 0.605-1.52 1.21-2.3 1.83-1.95 1.36-1.95 1.36-3.95 1.36l-2 4h-3c-0.371 0.959-0.371 0.959-0.75 1.94-1.58 2.61-2.42 2.35-5.25 3.06-0.685 1.32-1.35 2.66-2 4-4.44 4-4.44 4-7 4v2c-8.6-1.59-13.1-8.32-18-15-10.7-16.4-9.62-35.9-9.69-54.6-0.0293-3.81-0.0641-7.63-0.102-11.4-0.022-2.36-0.0381-4.71-0.0468-7.07 0.87-16.7 0.87-16.7-6.16-30.9-3.9-0.26-6.72-0.229-10 2l-2 3h-2c-0.416 1.12-0.416 1.12-0.84 2.27-1.05 2.48-2.15 4.32-3.72 6.48-4.82 7.02-8.54 14.7-12.4 22.2h-2c-1.82 14.8-1.82 14.8 2 29 2.89 2.57 5.11 3.72 9 4 1.68-0.644 3.34-1.31 5-2 3.31-0.125 3.31-0.125 6 0 4.06 6.4 4.06 6.4 3.75 9.44-0.371 0.773-0.371 0.773-0.75 1.56-0.639 0.103-1.28 0.206-1.94 0.312l-2.06 0.688-1 3c-1.32 0.685-2.66 1.35-4 2-1.36 1.31-2.69 2.65-4 4-2.29 2.05-4.64 4.02-7 6-0.91 0.776-1.82 1.55-2.76 2.35-0.967 0.812-1.93 1.62-2.93 2.46-0.911 0.77-1.82 1.54-2.76 2.33-2.38 1.73-3.76 2.27-6.55 2.86l-2 4c-1.33 0.333-2.67 0.667-4 1l-0.938 1.88c-1.43 2.86-3.31 3.58-6.06 5.12-1.75 1.58-1.75 1.58-3 3-4.6-1.49-7.5-3.75-11-7v-2h-2c-12.8-15.6-14.1-33.4-14.2-52.7-0.0156-1.39-0.0318-2.79-0.0486-4.18-0.0699-5.85-0.131-11.7-0.182-17.6-0.0321-3.6-0.0734-7.21-0.12-10.8-0.0234-2.01-0.0367-4.02-0.0496-6.03-0.113-8.49-0.324-17-3.73-24.9-4.39-3.03-9.47-2.63-14.6-1.81-1.69 0.96-3.36 1.96-5 3-3.12 0.125-3.12 0.125-6-1-1.94-3.38-1.94-3.38-3-7 1.16-3.48 2.07-4.02 5-6.06 3.02-2.02 3.02-2.02 5-4.94 1.67-1 3.33-2 5-3l1-2c4.5-3 4.5-3 7-3l2-4h3c0.236-0.585 0.472-1.17 0.715-1.77 1.57-2.71 3.32-4.01 5.85-5.85 3.25-2.24 3.25-2.24 5.44-5.38 1.66-1 3.33-2 5-3 1.55-1.3 3.07-2.63 4.56-4 1.47-1.34 2.95-2.68 4.44-4 1-0.897 1-0.897 2.03-1.81 1.97-1.19 1.97-1.19 3.99-1.04z" fill="#000002"/>
<path transform="translate(704 94.8)" d="m0 0c1.34-0.0184 1.34-0.0184 2.7-0.0371 4.98-0.0111 8.78 0.475 13.5 2.22 3.67 0.752 7.37 1.29 11.1 1.86 5.72 0.934 5.72 0.934 7.93 3.14l3.62 1.31c12.3 4.48 19.7 13.5 25.5 24.9 5.24 11.8 5.18 24.9 5.25 37.5 0.0162 1.47 0.0334 2.93 0.0515 4.4 0.0451 3.81 0.0802 7.63 0.112 11.4 0.0524 6.12 0.117 12.2 0.188 18.4 0.0226 2.12 0.039 4.24 0.0547 6.37 0.0135 1.3 0.027 2.59 0.0409 3.93 0.00951 1.13 0.019 2.26 0.0288 3.43 0.218 7.04 0.218 7.04 3.27 13.2 3.5 2.58 5.54 3.12 9.88 3.12 2.02-0.952 4.03-1.95 6-3 2.19 0 2.19 0 4 1 2.62 3.37 3.36 5.76 3 10-0.598 0.268-1.2 0.536-1.81 0.812-2.22 1.21-3.41 2.41-5.19 4.19-1.57 1.29-3.15 2.56-4.75 3.81-3.15 2.49-6.24 5.02-9.25 7.69-3 2.5-3 2.5-5 2.5v2h-3c-0.371 0.959-0.371 0.959-0.75 1.94-1.25 2.06-1.25 2.06-3.31 2.62l-1.94 0.438-1 3c-1.32 0.685-2.66 1.35-4 2-1.36 1.31-2.69 2.65-4 4-5.71 5.7-5.71 5.7-9.94 6.69-5.63-1.26-9.72-4.01-13.3-8.5l-1.75-3.19-2-3.44c-2.29-4.61-3.44-9.56-4.61-14.5-0.409-1.69-0.896-3.35-1.39-5.02l-2-1c-0.371 0.959-0.371 0.959-0.75 1.94-1.25 2.06-1.25 2.06-3.31 2.62l-1.94 0.438-1 3c-2.75 2-2.75 2-6 4l-2.75 1.75c-2.25 1.25-2.25 1.25-4.25 1.25l-1 3c-1.31 0.93-2.63 1.85-3.99 2.7-2.59 1.68-5.08 3.48-7.57 5.3-1.36 0.99-1.36 0.99-2.75 2-1.8 1.34-3.56 2.73-5.29 4.16-3.97 3.06-7.83 4.17-12.7 3.54-6.89-1.77-13.1-5.3-18.6-9.7v-2c-0.599-0.263-1.2-0.526-1.82-0.797-8.15-4.49-10.6-14.9-13.2-23.2-0.204-0.636-0.407-1.27-0.617-1.93-2.89-15.7 1.6-30.6 9.62-44.1 1.47-1.59 1.47-1.59 3-3 1.13-1.31 2.26-2.62 3.38-3.94 2.66-3.05 5.23-5.8 8.62-8.06h3c0.227-0.598 0.454-1.2 0.688-1.81 1.72-2.87 3.35-3.61 6.31-5.19 0.978-0.555 0.978-0.555 1.98-1.12 31.5-17.9 31.5-17.9 46-17.9v-2h-2v-2h-2c-0.254-0.607-0.508-1.21-0.77-1.84-3.07-5.39-10.6-8.08-16.2-10.2-17.9-3.86-39.4-1.62-55 8.28-2.01 0.723-2.01 0.723-4.65 0.141-2.9-1.74-3.3-2.83-4.17-6.04-0.233-0.817-0.467-1.63-0.707-2.48-0.159-0.626-0.317-1.25-0.48-1.9 2.89-2.01 5.51-3.81 8.81-5.06l2.19-0.938 1-3c1.67-1.02 3.36-2.03 5.08-2.96 5.27-2.68 5.27-2.68 8.92-7.04 1.58-0.893 3.16-1.78 4.75-2.65 3.83-2.3 7.33-5.05 10.9-7.74 2.36-1.61 2.36-1.61 4.36-1.61v-2c1.76-1.37 1.76-1.37 4.12-2.88 0.82-0.527 1.64-1.05 2.48-1.6 0.789-0.504 1.58-1.01 2.39-1.53 1.13-0.768 2.25-1.54 3.38-2.31 5.06-3.25 9.63-2.87 15.4-2.88zm12.2 0.188 2 1z" fill="#000002"/>
<path transform="translate(109 96.4)" d="m0 0c4.23 1.11 8.59 1.51 12.9 2.04 7.43 0.964 14.7 2.13 22 3.8 4.72 1.05 9.48 1.91 14.2 2.76 4.94 0.897 4.94 0.897 7.15 2 2.87-0.0382 5.7-0.142 8.56-0.312 0.815-0.0442 1.63-0.0883 2.47-0.134 4.26-0.264 8.26-0.696 12.4-1.8l3.56-0.75c1.73 1.27 1.73 1.27 3 3-0.0749 3.59-0.322 5.34-2.94 7.88-2.06 1.12-2.06 1.12-4.06 1.12l-1 3c-1.56 1.39-1.56 1.39-3.44 2.69-0.617 0.437-1.23 0.874-1.87 1.32-1.69 0.988-1.69 0.988-3.69 0.988l-1 3c-4.33 3-4.33 3-7 3l-1 3-1.94 0.438-2.06 0.562c-0.684 1.32-1.35 2.66-2 4-1.32 0.702-2.65 1.37-4 2l-2 2c-1.96 1.96-3.54 2.81-6 4-1.02 0.976-2.02 1.98-3 3-6.11 5.46-6.11 5.46-10 6-11.7-3.65-22.1-10.3-32.2-17.2-1.04-0.712-2.09-1.42-3.16-2.16-0.945-0.656-1.89-1.31-2.86-1.99-5.71-3.44-10.3-3.92-16.8-3.7 1.21 3.43 2.38 5.5 5 8v2l2 0.688c3.2 1.4 6 3.11 8.94 5 0.681 0.434 1.36 0.869 2.06 1.32 0.741 0.489 1.48 0.977 2.25 1.48 3.48 1.92 7.05 3.13 10.8 4.39 10.9 3.76 21.5 8.24 31.9 13.1 0.821 0.366 1.64 0.732 2.49 1.11 7.39 3.44 18.5 8.88 21.5 16.9h2c11.5 14.2 14.3 31.4 13 49-2.19 12.7-8.66 23.4-19 31-2.75 1.81-2.75 1.81-5 3-0.681 0.392-1.36 0.784-2.06 1.19-1.94 0.812-1.94 0.812-5.94 0.812l-1 3c-23.8 11.3-55.8 9.65-81 5v-2l-1.84-0.156c-6.51-0.842-11.8-2.86-17.7-5.78-0.694-0.348-1.39-0.696-2.1-1.05-3.28-1.7-5.85-3.37-8.4-6.01l-3-2.38c-2.81-2.46-4.59-4.18-6-7.62 1.19-3.28 2.92-5 5.62-7.12 1.88-1.44 1.88-1.44 3.38-2.88v-2l1.69-0.719c2.85-1.58 4.94-3.55 7.31-5.78 4.58-4.3 4.58-4.3 7.19-5.53 2.36-1.26 2.69-2.59 3.81-4.97 1.73-1.68 1.73-1.68 3.75-3.31 2.78-2.34 5.16-4.67 7.44-7.5 2.31-2.82 4.2-4.23 7.81-5.19v-2c3.39 1.4 5.18 2.8 7 6 0.0554 1.1 0.111 2.21 0.168 3.35 0.505 3.87 0.505 3.87 3.75 6.2 1.22 0.758 2.46 1.49 3.71 2.2 0.605 0.373 1.21 0.745 1.83 1.13 5.4 3.26 11 5.73 17 7.62 2.67 0.836 5.08 1.77 7.62 2.96 4.62 2.01 9.44 2.79 14.4 3.66 0.911 0.169 1.82 0.338 2.76 0.512 4.9 0.898 9.8 1.7 14.7 2.36-0.139-5.56-2.57-8.3-6.11-12.3-1.88-1.72-3.56-2.73-5.89-3.73v-2l-1.69-0.312c-2.31-0.688-2.31-0.688-4.56-2.06-2.74-1.62-5.49-2.72-8.48-3.8-4.13-1.51-8.19-3.18-12.3-4.83v-2c-0.617-0.17-1.23-0.34-1.87-0.516-5.26-1.5-10.2-3.27-15.1-5.62-1.99-0.858-3.9-1.4-6.01-1.87v-2c-0.734-0.121-1.47-0.242-2.23-0.366-2.72-0.622-4.72-1.47-7.17-2.78-1.21-0.645-1.21-0.645-2.45-1.3-0.833-0.451-1.67-0.901-2.52-1.37-0.825-0.439-1.65-0.878-2.5-1.33-4.76-2.54-9.46-5.16-14.1-7.86v-2l-2.06-0.625c-7.28-3.41-12.6-9.51-16-16.7-3.02-9.02-0.653-17.7 2.82-26.2 1.29-2.48 1.29-2.48 3.29-3.48 0.986-1.71 1.97-3.42 2.93-5.15 2.19-3.78 3.87-6.45 8.07-7.85l5-5h2l1-3c4.33-3 4.33-3 7-3v-2c7.04-4.99 15-8.59 22.9-12 2.16-0.887 2.16-0.887 3.92-2.21 2.95-0.999 5-0.202 7.92 0.641z" fill="#000002"/>
<path transform="translate(1465 97.1)" d="m0 0c4.93 1.13 8.2 2.29 11.9 5.9l2.56 2.44c2.31 2.42 4.37 4.94 6.44 7.56 0.478 0.471 0.956 0.941 1.45 1.43 1.6 1.62 2.91 3.29 4.24 5.14 0.437 0.599 0.874 1.2 1.32 1.82 0.988 1.62 0.988 1.62 0.988 3.62h2c1.3 1.87 1.3 1.87 2.75 4.44 1.97 3.39 3.97 6.7 6.19 9.94 3.01 4.46 5.7 9.08 8.38 13.7 1.48 2.54 3.03 5.03 4.62 7.5 2.06 3.38 2.06 3.38 2.06 5.38h2c0.398 0.759 0.797 1.52 1.21 2.3 0.53 0.994 1.06 1.99 1.61 3.01 0.522 0.986 1.04 1.97 1.58 2.99 2.2 3.71 3.49 5.33 7.61 6.7 0.193-0.592 0.387-1.18 0.586-1.79 0.26-0.79 0.521-1.58 0.789-2.39 0.255-0.777 0.51-1.55 0.773-2.36 0.852-2.46 0.852-2.46 1.92-4.94 2.08-5.63 1.82-11.2-0.309-16.8-1.91-3.87-3.84-7.55-6.46-11-1.3-1.77-1.3-1.77-1.3-3.71 2.36-4.86 6.51-7.39 11-10.1 3.4-2.69 6.56-5.56 9.62-8.62 2.38-2.38 2.38-2.38 4.75-4.19 3.05-2.54 5.4-5.39 7.88-8.48 1.95-1.91 3.14-2.16 5.75-2.71 0.289-0.66 0.578-1.32 0.875-2 0.557-0.99 0.557-0.99 1.12-2 3.12-0.75 3.12-0.75 6-1 6.83 8.24 11.8 20.6 11 31.4-0.282 1.53-0.616 3.05-1 4.56-0.179 0.816-0.358 1.63-0.543 2.47-2.38 9.33-7.91 18.5-14.5 25.5h-2c-0.268 0.639-0.536 1.28-0.812 1.94-1.19 2.06-1.19 2.06-4.19 3.06l-2 4c-0.99 0.33-1.98 0.66-3 1l-2 4c-0.99 0.33-1.98 0.66-3 1-1.21 2-1.21 2-2 4h-3c-0.371 0.866-0.371 0.866-0.75 1.75-2.23 4.01-5.05 6.45-9.25 8.25 0.362 5.32 3.34 8.16 6.75 11.9 1.06 1.2 2.11 2.39 3.17 3.59 0.521 0.582 1.04 1.16 1.58 1.76 1.39 1.59 2.71 3.23 4.02 4.89 2.6 2.96 5.13 4.93 8.42 7.07 0.999 0.665 2 1.33 3.03 2.02 4.87 2.78 8.64 4.14 14.2 3.3 3.25-0.474 4.63-0.624 7.81 0.438 1.2 1.49 1.2 1.49 2.25 3.31 0.356 0.594 0.712 1.19 1.08 1.8 0.672 1.89 0.672 1.89 0.672 3.8-1.57 3.29-4.39 5.09-7.25 7.21-0.621 0.473-1.24 0.946-1.88 1.43-1.3 0.988-2.6 1.97-3.9 2.95-1.92 1.46-3.82 2.94-5.71 4.43-1.17 0.915-2.33 1.83-3.5 2.75-0.548 0.434-1.1 0.868-1.66 1.31-3.86 3-3.86 3-6.09 3l-1 3c-2.14 1.68-2.14 1.68-4.81 3.44-3.45 2.28-6.3 4.61-9.19 7.56-1.33 0.667-2.67 1.33-4 2-0.598 0.701-1.2 1.4-1.81 2.12-2.19 1.88-2.19 1.88-5.39 2.26-4.5-0.458-7.21-2.05-10.7-4.7-0.61-0.449-1.22-0.897-1.85-1.36-5.63-4.32-9.41-9.37-13.2-15.3-1.33-1.84-2.66-3.67-4-5.5-3-4.12-3-4.12-3-7.5h-2c-1.73-2.52-1.73-2.52-3.62-5.81-0.632-1.08-1.26-2.16-1.91-3.27-1.46-2.92-1.46-2.92-1.46-5.92h-2c-0.352-0.655-0.704-1.31-1.07-1.98-5.26-9.72-10.7-19.3-16.6-28.7-1.31-2.31-1.31-2.31-1.31-4.31-2.87 1.44-3.26 3.35-4.56 6.25-0.434 0.954-0.869 1.91-1.32 2.89-2.87 7.32-3.25 14.6-0.371 21.9 1.92 4.39 4.04 8.68 6.25 12.9-1.62 1.71-3.29 3.37-5 5h-2c-0.248 0.578-0.495 1.16-0.75 1.75-1.78 3.2-3.86 5.58-7.19 7.19-2.34 1.07-2.34 1.07-4.69 3.69l-2.38 2.38h-2l-1 3c-1.5 1.51-1.5 1.51-3.44 3.12-3.4 2.89-6.75 5.82-10.1 8.81-1.28 1.16-1.28 1.16-2.59 2.34-0.944 0.853-0.944 0.853-1.91 1.72-5.78-2.38-8.52-7.73-11-13.2-4.53-12.5-2.81-23.7 1.92-35.9 1.1-1.9 1.1-1.9 4.1-2.9 0.611-1.86 0.611-1.86 1-4 0.637-1.35 1.3-2.69 2-4h2c0.258-0.574 0.516-1.15 0.781-1.74 1.33-2.47 2.86-4.35 4.72-6.45 0.608-0.695 1.22-1.39 1.84-2.11 1.66-1.71 1.66-1.71 3.66-2.71l1-3c4.33-3 4.33-3 7-3l0.625-1.69c1.88-3.16 4.54-5.07 7.38-7.31 1.3-1.1 2.59-2.2 3.88-3.31 0.596-0.512 1.19-1.02 1.8-1.55 0.436-0.375 0.871-0.75 1.32-1.14-2.01-4.68-5.39-8.45-8.54-12.4-3.46-4.39-3.46-4.39-3.46-6.6h-2c-0.639-0.846-1.28-1.69-1.94-2.56-4.54-5.54-10.4-9.89-17.5-10.9-5.12-0.0749-9.01 0.0428-13.5 2.51-2.5 0.0625-2.5 0.0625-5-1-1.84-2.15-3.1-4.31-4-7 0.647-2.91 1.77-3.8 4-5.75 2-1.25 2-1.25 4-1.25l0.781-1.8c1.32-2.38 2.64-3.71 4.72-5.45l1.84-1.58c1.66-1.17 1.66-1.17 3.66-1.17v-2c1.73-1.61 3.54-3.14 5.38-4.62 0.998-0.817 2-1.63 3.02-2.48 2.6-1.9 2.6-1.9 4.6-1.9 0.251-0.588 0.503-1.18 0.762-1.78 1.39-2.5 2.87-3.88 5.05-5.72 0.713-0.605 1.43-1.21 2.16-1.83 1.58-1.3 3.18-2.58 4.78-3.86 2.3-1.79 2.3-1.79 4.38-3.94 3.92-3.92 3.92-3.92 6.96-3.77z" fill="#000002"/>
<path transform="translate(265,23)" d="m0 0c12.1 9.82 18.8 24.9 21 40 0.533 5.61 0.598 11.2 0.688 16.9 0.0333 1.48 0.0678 2.96 0.104 4.43 0.0836 3.56 0.151 7.13 0.209 10.7 10.3 0.88 20.5 1.07 30.8 0.873 5.81-0.0586 10.7 0.117 16.2 2.13 0.297 5.05 0.0926 7.95-3 12-1.62 1.71-3.3 3.37-5 5-0.895 0.926-0.895 0.926-1.81 1.87-0.62 0.641-1.24 1.28-1.88 1.94-0.872 0.907-0.872 0.907-1.76 1.83-1.55 1.36-1.55 1.36-3.55 1.36-0.227 0.536-0.454 1.07-0.688 1.62-1.77 3.2-3.85 5.67-6.31 8.38h-2l-1 3h-21c0.0856 9.79 0.179 19.6 0.288 29.4 0.0499 4.55 0.0962 9.09 0.134 13.6 0.037 4.39 0.0834 8.78 0.136 13.2 0.0185 1.67 0.0336 3.34 0.0453 5.01 0.017 2.35 0.046 4.7 0.0778 7.04 0.00216 0.685 0.00432 1.37 0.00655 2.08 0.0966 5.62 1.55 10.4 3.31 15.7 5.15 2.7 10.3 2.52 16 2 5.69-1.86 10.8-5.03 16-8 1.17 1.62 2.34 3.25 3.5 4.88 0.65 0.905 1.3 1.81 1.97 2.74 1.53 2.38 1.53 2.38 1.53 4.38-1.66 1.02-3.32 2.02-5 3l-1 2c-1.76 1.01-3.51 2.01-5.29 2.98-1.83 0.996-1.83 0.996-3.46 2.77l-1.25 1.25h-3c-0.371 0.959-0.371 0.959-0.75 1.94-1.58 2.61-2.42 2.35-5.25 3.06-0.684 1.32-1.35 2.66-2 4-1.94 1.06-1.94 1.06-4 2-1.01 0.994-2 2-3 3-1.33 1.09-2.69 2.15-4.06 3.19-0.692 0.53-1.38 1.06-2.1 1.61-1.84 1.21-1.84 1.21-3.84 1.21v2c-1.83 1.69-1.83 1.69-4.25 3.56-0.789 0.62-1.58 1.24-2.39 1.88-2.21 1.46-3.77 2.13-6.36 2.56v3c-1.61 1.32-1.61 1.32-3.75 2.56-1.04 0.621-1.04 0.621-2.11 1.25-2.02 1.12-4.06 2.17-6.14 3.18-13.3-8.54-19.4-19.2-23.4-34.3-1.4-6.53-1.74-12.8-1.77-19.5-0.00829-0.955-0.0166-1.91-0.0251-2.89-0.0173-2.06-0.0325-4.13-0.0458-6.19-0.0211-3.26-0.0481-6.52-0.0767-9.78-0.0697-8.09-0.129-16.2-0.189-24.3-0.0508-6.85-0.106-13.7-0.166-20.6-0.0266-3.22-0.0474-6.44-0.068-9.66-0.0166-1.96-0.0335-3.92-0.0507-5.88-0.00628-1.35-0.00628-1.35-0.0127-2.73 0.352-3.95 0.352-3.95-1.18-7.27-2.79-0.135-5.55-0.211-8.34-0.246-1.72-0.0329-3.44-0.0661-5.16-0.0996-2.72-0.0475-5.45-0.0919-8.17-0.131-2.62-0.0396-5.24-0.0912-7.86-0.144-0.818-0.00841-1.64-0.0168-2.48-0.0255-5.77-0.127-5.77-0.127-7.99-2.35-0.082-2.28-0.082-2.28 0.188-4.94 0.0761-0.875 0.152-1.75 0.23-2.65 0.657-2.72 1.36-3.74 3.58-5.41h2c0.251-0.599 0.503-1.2 0.762-1.82 1.4-2.48 2.72-3.51 5.05-5.12 3.4-2.44 6.26-5.06 9.19-8.06 7.97-7.29 7.97-7.29 12-9 3.81 0.312 3.81 0.312 7 1 0.364-7.46 0.561-13.6-4.34-19.7-2.64-2.14-4.95-1.8-8.24-1.71-3.29 0.505-5.76 1.79-8.59 3.5-1.82 0.875-1.82 0.875-5.82 0.875v-2h-2l-3-7c3.66-3.74 7.46-7.23 11.4-10.6 0.601-0.515 1.2-1.03 1.82-1.56 4.96-4.22 10-8.27 15.2-12.2 2.68-2.07 5.16-4.16 7.53-6.57 2.25-1.8 4.55-3.54 6.84-5.28 1.87-1.49 3.5-3.01 5.16-4.72 1.13-1.03 2.28-2.05 3.44-3.06 0.864-0.76 0.864-0.76 1.75-1.54 3.76-2.9 6.21-4.09 10.8-2.4z" fill="#000002"/>
<path transform="translate(583 100)" d="m0 0c7.3 4.33 13.6 9.9 18.7 16.6l2.31 2.25c1.69 1.75 1.69 1.75 1.69 3.75h2c5.69 7.83 12.1 19.3 12 29.2-1.27 3.77-2.97 4.81-6.27 6.97-2.89 1.92-5.47 3.66-7.92 6.12-1.77 1.76-1.77 1.76-3.77 1.76l-1 3c-3.06 3.4-6.05 5.73-10 8-2.8 2.1-5.2 4.21-7.62 6.75-2.38 2.25-2.38 2.25-5.38 2.25-0.371 0.959-0.371 0.959-0.75 1.94-1.58 2.61-2.42 2.35-5.25 3.06-0.699 1.32-1.37 2.65-2 4l-3 1-1 3-1.94 0.438-2.06 0.562c-1.05 1.85-1.05 1.85-2 4-1.96 2.22-3.52 3.77-6.19 5.06-2.17 0.857-2.17 0.857-2.81 3.94 0.58 0.271 1.16 0.541 1.76 0.82 2.24 1.18 4.1 2.54 6.12 4.05 7.65 5.13 17.3 8.29 26.6 6.8 8.5-2.26 16.6-5.99 24.6-9.68 1.04 1.24 2.05 2.49 3.06 3.75 0.853 1.04 0.853 1.04 1.72 2.11 1.21 2.14 1.21 2.14 1.06 4.26-1.41 3.14-4.16 4.86-6.84 6.88-0.683 0.545-1.37 1.09-2.07 1.65-5.54 4.35-5.54 4.35-8.93 4.35l-1 3c-1.65 1.03-3.32 2.02-5 3-0.603 0.607-1.21 1.21-1.83 1.84-2.38 2.37-4.89 4.3-7.61 6.29-0.927 0.683-1.85 1.37-2.81 2.07-2.75 1.8-2.75 1.8-5.54 2.86-0.731 0.312-1.46 0.624-2.21 0.945l-1 3c-2.21 1.82-2.21 1.82-4.94 3.69-0.896 0.623-1.79 1.25-2.71 1.89-2.35 1.43-2.35 1.43-4.35 1.43l-1 3c-3 2-3 2-6 2-0.268 0.639-0.536 1.28-0.812 1.94-1.19 2.06-1.19 2.06-4.19 3.06-7.32 1.09-12.7-2.5-19-6-0.946-0.519-1.89-1.04-2.87-1.57-0.704-0.471-1.41-0.941-2.13-1.43v-2c-0.715-0.218-1.43-0.436-2.17-0.66-3.48-1.64-5.65-3.94-8.14-6.78-0.479-0.537-0.957-1.07-1.45-1.63-18.1-20.6-29.7-48.5-29.5-76-0.00773-1.12-0.0155-2.24-0.0234-3.39 0.0201-8.55 0.399-16.4 5.15-23.7 0.529-0.826 1.06-1.65 1.6-2.5 0.503-0.762 1.01-1.52 1.52-2.31 0.4-0.648 0.799-1.3 1.21-1.96 0.867-1.39 1.82-2.72 2.79-4.04h2l0.688-2.19c1.58-3.38 3.62-5.25 6.31-7.81 0.722-0.928 1.44-1.86 2.19-2.81 0.598-0.722 1.2-1.44 1.81-2.19h2c0.402-0.897 0.402-0.897 0.812-1.81 1.19-2.19 2.28-3.6 4.19-5.19h2l1-3c1.93-1.68 1.93-1.68 4.31-3.44 2.46-1.82 4.69-3.57 6.84-5.75 2.03-1.99 3.17-2.17 5.84-2.81l1-3c1.96-1.07 3.97-2.06 6-3l2.25-1.44c13.6-7.74 26.2-7.23 40-0.18z" fill="#000002"/>
<path transform="translate(380,95)" d="m0 0c3.44 1.24 6.25 2.56 9 5v2c0.587 0.233 1.17 0.467 1.78 0.707 6.09 3.54 9.97 11.8 12.2 18.3v3c1.71 0.964 1.71 0.964 4 1 1.99-1.63 3.6-3.18 5.31-5.06 3.59-3.78 7.21-7.35 11.2-10.7 3-2.54 5.71-5.37 8.28-8.34 5.06-5.6 5.06-5.6 8.31-6.49 8.86-0.184 18 5.73 24.7 11 2.19 2.11 3.17 3.61 4.14 6.54 1.32 0.684 2.66 1.35 4 2 2.28 2.45 4.1 5.25 6 8 0.726 1.02 1.45 2.04 2.2 3.09 0.739 1.06 1.48 2.13 2.24 3.22 0.7 1.01 1.4 2.01 2.12 3.05 0.476 0.87 0.951 1.74 1.44 2.64-1.24 3.71-2.85 4.77-6 7h-2l-0.75 1.88c-1.51 2.57-2.61 2.84-5.25 4.12-1.67 1.66-3.34 3.33-5 5-2.15 1.94-4.35 3.82-6.56 5.69-0.564 0.485-1.13 0.971-1.71 1.47-2.27 1.93-4.38 3.67-7.07 4.99-2.03 0.802-2.03 0.802-2.66 3.86-2.06 1.69-2.06 1.69-4 3-3.49-3.07-5.83-6.21-8.25-10.2-6.01-9.76-6.01-9.76-14.8-16.8-2.01-0.274-2.01-0.274-4.25-0.312-0.748-0.0374-1.5-0.0748-2.27-0.113-3.65 0.625-6.24 1.44-8.48 4.43-0.897 4.56-0.719 9.08-0.621 13.7 0.00867 1.38 0.0148 2.75 0.0185 4.13 0.0172 3.63 0.0713 7.25 0.132 10.9 0.0433 2.93 0.0611 5.85 0.0773 8.78 0.0478 8.5 0.128 17 0.393 25.5 0.0221 1.21 0.0441 2.43 0.0669 3.68 0.0462 1.16 0.0923 2.31 0.14 3.5 0.032 1.03 0.064 2.05 0.097 3.11 0.936 3.64 2.58 4.72 5.7 6.71 2.4 0.513 2.4 0.513 4.75 0.312 0.779-0.0245 1.56-0.049 2.36-0.0742 1.9-0.0432 1.9-0.0432 2.89-1.24 2-0.0408 4-0.0425 6 0 4.05 6.38 4.05 6.38 3.83 9.03-1.02 2.41-2.21 3.55-4.21 5.22-0.606 0.521-1.21 1.04-1.84 1.58-1.79 1.17-1.79 1.17-4.79 1.17-0.371 0.959-0.371 0.959-0.75 1.94-1.25 2.06-1.25 2.06-3.31 2.62l-1.94 0.438-1 3c-2 1.82-2 1.82-4.44 3.69-1.2 0.934-1.2 0.934-2.43 1.89-2.13 1.43-2.13 1.43-4.13 1.43l-1 3c-1.97 1.37-3.98 2.7-6 4l-1.69 1.75c-1.31 1.25-1.31 1.25-4.31 1.25-0.251 0.59-0.503 1.18-0.762 1.79-1.4 2.49-2.81 3.83-5.05 5.59-0.666 0.544-1.33 1.09-2.02 1.65-2.17 0.977-2.17 0.977-4.62 0.422-9.78-5.55-16.9-15.9-20.3-26.4-1.33-4.95-2.32-9.96-3.25-15-0.171-0.726-0.343-1.45-0.519-2.2-0.576-3.35-0.606-6.53-0.607-9.93-0.00187-0.698-0.00374-1.4-0.00566-2.12-0.00399-1.51-0.00608-3.02-0.00646-4.53-0.00344-3.22-0.0248-6.44-0.0452-9.67-0.0379-5.99-0.0693-12-0.0672-18 7.9e-4 -4.18-0.0227-8.35-0.0619-12.5-0.0104-1.58-0.012-3.17-0.00435-4.75 0.0382-8.76-0.0757-16.1-5.68-23.3-7.78-0.622-7.78-0.622-14.9 2.06-3.12 1.94-3.12 1.94-5.81 2.12-3.67-1.89-4.58-4.47-6.31-8.19v-3c1.61-1.25 1.61-1.25 3.75-2.44 3.23-1.88 5.65-3.86 8.25-6.56h2l1-3c1.88-1.55 3.83-3.02 5.81-4.44 3.7-2.66 7-5.31 10.2-8.56 1.31-1.03 2.65-2.03 4-3 2.93-2.15 5.47-4.39 8-7 5.53-5 5.53-5 8-5 0.34-0.866 0.34-0.866 0.688-1.75 1.64-2.82 3.71-4.33 6.31-6.25z" fill="#000002"/>
<path transform="translate(1362 96.8)" d="m0 0c10.7 4.96 17.6 16.6 21.6 27.2 5.37 16.7 4.01 36 4.1 53.4 0.0094 1.34 0.0191 2.67 0.0291 4.01 0.00986 1.35 0.0197 2.69 0.0295 4.04 0.00491 0.669 0.00982 1.34 0.0149 2.03 0.0236 3.45 0.0379 6.89 0.0364 10.3-6.34e-4 2.75 0.0117 5.49 0.039 8.24 0.0252 2.55 0.0318 5.11 0.0172 7.66-0.13 6.82-0.13 6.82 2.99 12.6 3.61 2.29 6.6 2.32 10.7 1.71 2.41-0.54 4.65-1.22 7-2 2.76 3.22 4.52 6.04 6 10-4.98 4.54-9.97 8.87-15.5 12.8-1.68 1.17-1.68 1.17-2.53 3.23-1.67 1-3.33 2-5 3-1.08 0.88-2.14 1.78-3.19 2.69-2.81 2.31-2.81 2.31-4.81 2.31l-1 3-1.94 0.438-2.06 0.562c-0.684 1.32-1.35 2.66-2 4-2.06 1.12-2.06 1.12-4 2l-1 2-1.75 0.812c-2.5 1.16-2.5 1.16-4.75 3.88-2.5 2.31-2.5 2.31-4.5 2.31-11.5-5.75-17.9-17-22-28.9-2.86-9.93-3.14-19.6-3.17-29.8-0.00724-2.32-0.023-4.64-0.0413-6.96-0.0521-6.6-0.1-13.2-0.116-19.8-0.0101-4.05-0.0395-8.1-0.0813-12.1-0.0122-1.53-0.0174-3.07-0.0152-4.6 0.00899-8.16-0.0902-14.7-4.58-21.8l-1-3c-7.15-0.317-12.6-0.39-19 3l-3 1c-3.27-3.59-4.88-6.09-5-11 1.95-2.41 1.95-2.41 4.69-4.62 0.891-0.735 1.78-1.47 2.7-2.23 0.862-0.709 1.72-1.42 2.61-2.15l2.19-2.19c1.81-1.81 1.81-1.81 4.12-3.19 3.05-1.84 5.51-4.03 8.14-6.42 1.55-1.21 1.55-1.21 3.55-1.21v-2c1.9-1.73 1.9-1.73 4.38-3.62 0.812-0.632 1.62-1.26 2.46-1.91 2.16-1.46 2.16-1.46 4.16-1.46l1-3c1.67-1.52 3.41-2.97 5.19-4.38 3.16-2.5 6.24-5 9.19-7.75 2.62-1.88 2.62-1.88 5.06-2.06z" fill="#000002"/>
<path transform="translate(544 132)" d="m0 0c4.99 2.89 8.42 6.61 11.9 11.1l2.06 2.38c2.71 3.68 4.81 7.59 6.94 11.6 0.472 0.856 0.944 1.71 1.43 2.59 4.83 9.05 4.83 9.05 3.57 13.4-2.42 2.68-5.01 4.97-8 7h-2v2c-1.69 1.23-3.39 2.45-5.12 3.62-2.14 1.49-2.14 1.49-4.7 4.19l-2.19 2.19h-2l-1 3c-3.35-0.578-4.83-1.39-7-4-1.23-2.32-2.36-4.61-3.44-7-0.307-0.672-0.614-1.34-0.931-2.04-12.7-28.2-12.7-28.2-7.84-42.3 1.43-3.22 2.81-5.36 5.46-7.71 4.53-1.65 8.39-1.99 12.8-0.121z" fill="#FAFEFE"/>
<path transform="translate(718,172)" d="m0 0c3 2 3 2 3.45 4.24 0.0325 0.931 0.0651 1.86 0.0986 2.82 0.0417 1.06 0.0835 2.11 0.126 3.2 0.0379 1.72 0.0379 1.72 0.0767 3.47 0.0399 1.77 0.0399 1.77 0.0806 3.57 0.0459 2.5 0.0823 4.99 0.11 7.49 0.0396 2.55 0.108 5.1 0.205 7.65 0.787 20.6 0.787 20.6-2.41 25.5-3.41 3.24-7.29 4.63-11.7 6.08-1.36 0.839-2.7 1.71-4 2.62-3 1.38-3 1.38-5.5 1-7.12-4.63-12.1-9.32-14.5-17.6-1.31-12.2 1.06-22.7 8.62-32.5 5.44-5.99 11.9-10.5 19.4-13.5l1-2c2.38-1.25 2.38-1.25 5-2z" fill="#FAFEFE"/>
<path transform="translate(1368,33)" d="m0 0c1.86 2.2 3.42 4.3 5 6.69 0.853 1.25 1.71 2.51 2.56 3.76 0.406 0.606 0.812 1.21 1.23 1.84 1.33 1.95 1.33 1.95 3.58 4.48 0.536 0.736 1.07 1.47 1.62 2.23-1.26 3.77-2.75 4.78-6 7-2.81 0.75-2.81 0.75-5 1l-1 3c-2.6 1.65-3.86 2-7 2l-1 3c-2.32 1.03-4.65 2.03-7 3-1.02 0.981-2.02 1.98-3 3-2.19 0.688-2.19 0.688-4 1v2c-0.568 0.303-1.14 0.606-1.72 0.918-3.9 2.12-7.58 4.23-11.1 6.96-3.19 2.12-3.19 2.12-5.39 1.76-0.594-0.209-1.19-0.418-1.8-0.633v-2c-0.99-0.33-1.98-0.66-3-1-1.61-1.89-1.61-1.89-3.19-4.25-0.53-0.768-1.06-1.54-1.61-2.33-1.4-2.8-1.74-4.34-1.21-7.42 1.68-1.8 1.68-1.8 3.88-3.31 0.719-0.512 1.44-1.02 2.18-1.55 1.95-1.14 1.95-1.14 3.95-1.14l1-3c2.56-1.19 2.56-1.19 5-2v-2c1.9-1.6 3.81-3.09 5.81-4.56 1.19-0.897 2.38-1.8 3.57-2.7 0.906-0.683 0.906-0.683 1.83-1.38 7.51-5.71 7.51-5.71 14.5-12.1 2.52-2.5 3.6-2.31 7.32-2.31z" fill="#010103"/>
<path transform="translate(286,95)" d="m0 0 13 1 1 3h-13l-1-4z" fill="#333436"/>
<path transform="translate(96,279)" d="m0 0h12l1 3c-1.79 0.0809-3.58 0.139-5.38 0.188-1.5 0.0522-1.5 0.0522-3.02 0.105-0.859-0.0967-1.72-0.193-2.6-0.293l-2-3z" fill="#9EA1A0"/>
<path transform="translate(355,225)" d="m0 0h3v12c-0.99-0.33-1.98-0.66-3-1v-11z" fill="#3C3D3F"/>
<path transform="translate(525,142)" d="m0 0h2v15h-1v-5h-2l1-10z" fill="#CBCECD"/>
</svg>
